<svg xmlns="http://www.w3.org/2000/svg" xmlns:xlink="http://www.w3.org/1999/xlink" contentStyleType="text/css" data-diagram-type="ACTIVITY" height="1373px" preserveAspectRatio="none" style="width:841px;height:1373px;background:#FFFFFF;" version="1.1" viewBox="0 0 841 1373" width="841px" zoomAndPan="magnify"><?plantuml 1.2026.4?><defs/><g><g class="title" data-source-line="12"><text fill="#000000" font-family="sans-serif" font-size="14" font-weight="700" lengthAdjust="spacing" textLength="258.2412" x="290.3901" y="34.5332">Activity Diagram - Student Onboarding</text></g><ellipse cx="484.2957" cy="63.6094" fill="#222222" rx="10" ry="10" style="stroke:#222222;stroke-width:1;"/><rect fill="#E8F7FA" height="35.0938" rx="12.5" ry="12.5" style="stroke:#2F4F4F;stroke-width:0.5;" width="204.1133" x="382.239" y="93.6094"/><text fill="#000000" font-family="sans-serif" font-size="12" lengthAdjust="spacing" textLength="184.1133" x="392.239" y="116.0664">[Student] Register student account</text><rect fill="#E8F7FA" height="35.0938" rx="12.5" ry="12.5" style="stroke:#2F4F4F;stroke-width:0.5;" width="241.4668" x="363.5623" y="148.7031"/><text fill="#000000" font-family="sans-serif" font-size="12" lengthAdjust="spacing" textLength="221.4668" x="373.5623" y="171.1602">[Backend] Create user and student profile</text><rect fill="#E8F7FA" height="35.0938" rx="12.5" ry="12.5" style="stroke:#2F4F4F;stroke-width:0.5;" width="240.7871" x="363.9021" y="203.7969"/><text fill="#000000" font-family="sans-serif" font-size="12" lengthAdjust="spacing" textLength="220.7871" x="373.9021" y="226.2539">[Backend] Send email verification request</text><rect fill="#E8F7FA" height="35.0938" rx="12.5" ry="12.5" style="stroke:#2F4F4F;stroke-width:0.5;" width="182.7559" x="392.9177" y="258.8906"/><text fill="#000000" font-family="sans-serif" font-size="12" lengthAdjust="spacing" textLength="162.7559" x="402.9177" y="281.3477">[Student] Open verification link</text><rect fill="#E8F7FA" height="35.0938" rx="12.5" ry="12.5" style="stroke:#2F4F4F;stroke-width:0.5;" width="172.0742" x="398.2585" y="313.9844"/><text fill="#000000" font-family="sans-serif" font-size="12" lengthAdjust="spacing" textLength="152.0742" x="408.2585" y="336.4414">[Backend] Verify email token</text><polygon fill="#E8F7FA" points="444.947,369.0781,523.6443,369.0781,535.6443,381.0781,523.6443,393.0781,444.947,393.0781,432.947,381.0781,444.947,369.0781" style="stroke:#2F4F4F;stroke-width:0.5;stroke-linejoin:miter;stroke-miterlimit:10;"/><text fill="#000000" font-family="sans-serif" font-size="12" lengthAdjust="spacing" textLength="78.6973" x="444.947" y="385.9883">Email verified?</text><text fill="#000000" font-family="sans-serif" font-size="11" lengthAdjust="spacing" textLength="17.1177" x="415.8293" y="378.6611">yes</text><text fill="#000000" font-family="sans-serif" font-size="11" lengthAdjust="spacing" textLength="12.2354" x="535.6443" y="378.6611">no</text><rect fill="#E8F7FA" height="35.0938" rx="12.5" ry="12.5" style="stroke:#2F4F4F;stroke-width:0.5;" width="100.7305" x="219.5874" y="403.0781"/><text fill="#000000" font-family="sans-serif" font-size="12" lengthAdjust="spacing" textLength="80.7305" x="229.5874" y="425.5352">[Student] Login</text><rect fill="#E8F7FA" height="35.0938" rx="12.5" ry="12.5" style="stroke:#2F4F4F;stroke-width:0.5;" width="199.4609" x="170.2222" y="458.1719"/><text fill="#000000" font-family="sans-serif" font-size="12" lengthAdjust="spacing" textLength="179.4609" x="180.2222" y="480.6289">[Student] Open onboarding status</text><rect fill="#E8F7FA" height="35.0938" rx="12.5" ry="12.5" style="stroke:#2F4F4F;stroke-width:0.5;" width="245.4629" x="147.2212" y="513.2656"/><text fill="#000000" font-family="sans-serif" font-size="12" lengthAdjust="spacing" textLength="225.4629" x="157.2212" y="535.7227">[Backend] Return required document state</text><rect fill="#E8F7FA" height="35.0938" rx="12.5" ry="12.5" style="stroke:#2F4F4F;stroke-width:0.5;" width="262.8066" x="138.5493" y="568.3594"/><text fill="#000000" font-family="sans-serif" font-size="12" lengthAdjust="spacing" textLength="242.8066" x="148.5493" y="590.8164">[Student] Upload student card / ID documents</text><rect fill="#E8F7FA" height="35.0938" rx="12.5" ry="12.5" style="stroke:#2F4F4F;stroke-width:0.5;" width="299.498" x="120.2036" y="623.4531"/><text fill="#000000" font-family="sans-serif" font-size="12" lengthAdjust="spacing" textLength="279.498" x="130.2036" y="645.9102">[Storage Adapter] Store documents in object storage</text><rect fill="#E8F7FA" height="35.0938" rx="12.5" ry="12.5" style="stroke:#2F4F4F;stroke-width:0.5;" width="282.1426" x="128.8813" y="678.5469"/><text fill="#000000" font-family="sans-serif" font-size="12" lengthAdjust="spacing" textLength="262.1426" x="138.8813" y="701.0039">[Backend] Mark student profile as pending review</text><rect fill="#E8F7FA" height="35.0938" rx="12.5" ry="12.5" style="stroke:#2F4F4F;stroke-width:0.5;" width="196.7656" x="171.5698" y="733.6406"/><text fill="#000000" font-family="sans-serif" font-size="12" lengthAdjust="spacing" textLength="176.7656" x="181.5698" y="756.0977">[Admin] View pending student list</text><rect fill="#E8F7FA" height="35.0938" rx="12.5" ry="12.5" style="stroke:#2F4F4F;stroke-width:0.5;" width="277.4844" x="131.2104" y="788.7344"/><text fill="#000000" font-family="sans-serif" font-size="12" lengthAdjust="spacing" textLength="257.4844" x="141.2104" y="811.1914">[Admin] Review profile and uploaded documents</text><polygon fill="#E8F7FA" points="222.2632,843.8281,317.6421,843.8281,329.6421,855.8281,317.6421,867.8281,222.2632,867.8281,210.2632,855.8281,222.2632,843.8281" style="stroke:#2F4F4F;stroke-width:0.5;stroke-linejoin:miter;stroke-miterlimit:10;"/><text fill="#000000" font-family="sans-serif" font-size="12" lengthAdjust="spacing" textLength="95.3789" x="222.2632" y="860.7383">Documents valid?</text><text fill="#000000" font-family="sans-serif" font-size="11" lengthAdjust="spacing" textLength="39.7515" x="170.5117" y="853.4111">approve</text><text fill="#000000" font-family="sans-serif" font-size="11" lengthAdjust="spacing" textLength="26.8984" x="329.6421" y="853.4111">reject</text><rect fill="#E8F7FA" height="35.0938" rx="12.5" ry="12.5" style="stroke:#2F4F4F;stroke-width:0.5;" width="151.4082" x="56.6846" y="877.8281"/><text fill="#000000" font-family="sans-serif" font-size="12" lengthAdjust="spacing" textLength="131.4082" x="66.6846" y="900.2852">[Admin] Approve student</text><rect fill="#E8F7FA" height="35.0938" rx="12.5" ry="12.5" style="stroke:#2F4F4F;stroke-width:0.5;" width="232.7773" x="16" y="932.9219"/><text fill="#000000" font-family="sans-serif" font-size="12" lengthAdjust="spacing" textLength="212.7773" x="26" y="955.3789">[Backend] Set student status to ACTIVE</text><rect fill="#E8F7FA" height="35.0938" rx="12.5" ry="12.5" style="stroke:#2F4F4F;stroke-width:0.5;" width="164.0879" x="50.3447" y="988.0156"/><text fill="#000000" font-family="sans-serif" font-size="12" lengthAdjust="spacing" textLength="144.0879" x="60.3447" y="1010.4727">[Backend] Record audit log</text><rect fill="#E8F7FA" height="35.0938" rx="12.5" ry="12.5" style="stroke:#2F4F4F;stroke-width:0.5;" width="222.7871" x="20.9951" y="1043.1094"/><text fill="#000000" font-family="sans-serif" font-size="12" lengthAdjust="spacing" textLength="202.7871" x="30.9951" y="1065.5664">[Backend] Create approval notification</text><rect fill="#E8F7FA" height="35.0938" rx="12.5" ry="12.5" style="stroke:#2F4F4F;stroke-width:0.5;" width="224.791" x="19.9932" y="1098.2031"/><text fill="#000000" font-family="sans-serif" font-size="12" lengthAdjust="spacing" textLength="204.791" x="29.9932" y="1120.6602">[Student] Receive approval notification</text><rect fill="#E8F7FA" height="35.0938" rx="12.5" ry="12.5" style="stroke:#2F4F4F;stroke-width:0.5;" width="199.4375" x="32.6699" y="1153.2969"/><text fill="#000000" font-family="sans-serif" font-size="12" lengthAdjust="spacing" textLength="179.4375" x="42.6699" y="1175.7539">[Student] Access student features</text><ellipse cx="132.3887" cy="1219.3906" fill="none" rx="11" ry="11" style="stroke:#222222;stroke-width:1;"/><ellipse cx="132.3887" cy="1219.3906" fill="#222222" rx="6" ry="6" style="stroke:#222222;stroke-width:1;"/><rect fill="#E8F7FA" height="35.0938" rx="12.5" ry="12.5" style="stroke:#2F4F4F;stroke-width:0.5;" width="205.4258" x="304.8037" y="877.8281"/><text fill="#000000" font-family="sans-serif" font-size="12" lengthAdjust="spacing" textLength="185.4258" x="314.8037" y="900.2852">[Admin] Reject student with reason</text><rect fill="#E8F7FA" height="35.0938" rx="12.5" ry="12.5" style="stroke:#2F4F4F;stroke-width:0.5;" width="252.7754" x="281.1289" y="932.9219"/><text fill="#000000" font-family="sans-serif" font-size="12" lengthAdjust="spacing" textLength="232.7754" x="291.1289" y="955.3789">[Backend] Set student status to REJECTED</text><rect fill="#E8F7FA" height="35.0938" rx="12.5" ry="12.5" style="stroke:#2F4F4F;stroke-width:0.5;" width="164.0879" x="325.4727" y="988.0156"/><text fill="#000000" font-family="sans-serif" font-size="12" lengthAdjust="spacing" textLength="144.0879" x="335.4727" y="1010.4727">[Backend] Record audit log</text><rect fill="#E8F7FA" height="35.0938" rx="12.5" ry="12.5" style="stroke:#2F4F4F;stroke-width:0.5;" width="222.1133" x="296.46" y="1043.1094"/><text fill="#000000" font-family="sans-serif" font-size="12" lengthAdjust="spacing" textLength="202.1133" x="306.46" y="1065.5664">[Backend] Create rejection notification</text><rect fill="#E8F7FA" height="35.0938" rx="12.5" ry="12.5" style="stroke:#2F4F4F;stroke-width:0.5;" width="186.0957" x="314.4688" y="1098.2031"/><text fill="#000000" font-family="sans-serif" font-size="12" lengthAdjust="spacing" textLength="166.0957" x="324.4688" y="1120.6602">[Student] View rejection reason</text><rect fill="#E8F7FA" height="35.0938" rx="12.5" ry="12.5" style="stroke:#2F4F4F;stroke-width:0.5;" width="224.7852" x="295.124" y="1153.2969"/><text fill="#000000" font-family="sans-serif" font-size="12" lengthAdjust="spacing" textLength="204.7852" x="305.124" y="1175.7539">[Student] Upload corrected documents</text><rect fill="#E8F7FA" height="35.0938" rx="12.5" ry="12.5" style="stroke:#2F4F4F;stroke-width:0.5;" width="277.4785" x="268.7773" y="1208.3906"/><text fill="#000000" font-family="sans-serif" font-size="12" lengthAdjust="spacing" textLength="257.4785" x="278.7773" y="1230.8477">[Storage Adapter] Store replacement documents</text><rect fill="#E8F7FA" height="35.0938" rx="12.5" ry="12.5" style="stroke:#2F4F4F;stroke-width:0.5;" width="246.1309" x="284.4512" y="1263.4844"/><text fill="#000000" font-family="sans-serif" font-size="12" lengthAdjust="spacing" textLength="226.1309" x="294.4512" y="1285.9414">[Backend] Return profile to pending review</text><rect fill="#E8F7FA" height="35.0938" rx="12.5" ry="12.5" style="stroke:#2F4F4F;stroke-width:0.5;" width="212.1055" x="301.4639" y="1318.5781"/><text fill="#000000" font-family="sans-serif" font-size="12" lengthAdjust="spacing" textLength="192.1055" x="311.4639" y="1341.0352">[Admin] Review updated documents</text><rect fill="#E8F7FA" height="35.0938" rx="12.5" ry="12.5" style="stroke:#2F4F4F;stroke-width:0.5;" width="189.4297" x="603.9238" y="403.0781"/><text fill="#000000" font-family="sans-serif" font-size="12" lengthAdjust="spacing" textLength="169.4297" x="613.9238" y="425.5352">[Student] See verification failure</text><rect fill="#E8F7FA" height="35.0938" rx="12.5" ry="12.5" style="stroke:#2F4F4F;stroke-width:0.5;" width="244.7656" x="576.2559" y="458.1719"/><text fill="#000000" font-family="sans-serif" font-size="12" lengthAdjust="spacing" textLength="224.7656" x="586.2559" y="480.6289">[Student] Retry with a valid verification link</text><ellipse cx="698.6387" cy="524.2656" fill="none" rx="11" ry="11" style="stroke:#222222;stroke-width:1;"/><ellipse cx="698.6387" cy="524.2656" fill="#222222" rx="6" ry="6" style="stroke:#222222;stroke-width:1;"/><line style="stroke:#333333;stroke-width:1;" x1="484.2957" x2="484.2957" y1="73.6094" y2="93.6094"/><polygon fill="#333333" points="480.2957,83.6094,484.2957,93.6094,488.2957,83.6094,484.2957,87.6094" style="stroke:#333333;stroke-width:1;stroke-linejoin:miter;stroke-miterlimit:10;"/><line style="stroke:#333333;stroke-width:1;" x1="484.2957" x2="484.2957" y1="128.7031" y2="148.7031"/><polygon fill="#333333" points="480.2957,138.7031,484.2957,148.7031,488.2957,138.7031,484.2957,142.7031" style="stroke:#333333;stroke-width:1;stroke-linejoin:miter;stroke-miterlimit:10;"/><line style="stroke:#333333;stroke-width:1;" x1="484.2957" x2="484.2957" y1="183.7969" y2="203.7969"/><polygon fill="#333333" points="480.2957,193.7969,484.2957,203.7969,488.2957,193.7969,484.2957,197.7969" style="stroke:#333333;stroke-width:1;stroke-linejoin:miter;stroke-miterlimit:10;"/><line style="stroke:#333333;stroke-width:1;" x1="484.2957" x2="484.2957" y1="238.8906" y2="258.8906"/><polygon fill="#333333" points="480.2957,248.8906,484.2957,258.8906,488.2957,248.8906,484.2957,252.8906" style="stroke:#333333;stroke-width:1;stroke-linejoin:miter;stroke-miterlimit:10;"/><line style="stroke:#333333;stroke-width:1;" x1="484.2957" x2="484.2957" y1="293.9844" y2="313.9844"/><polygon fill="#333333" points="480.2957,303.9844,484.2957,313.9844,488.2957,303.9844,484.2957,307.9844" style="stroke:#333333;stroke-width:1;stroke-linejoin:miter;stroke-miterlimit:10;"/><line style="stroke:#333333;stroke-width:1;" x1="269.9526" x2="269.9526" y1="438.1719" y2="458.1719"/><polygon fill="#333333" points="265.9526,448.1719,269.9526,458.1719,273.9526,448.1719,269.9526,452.1719" style="stroke:#333333;stroke-width:1;stroke-linejoin:miter;stroke-miterlimit:10;"/><line style="stroke:#333333;stroke-width:1;" x1="269.9526" x2="269.9526" y1="493.2656" y2="513.2656"/><polygon fill="#333333" points="265.9526,503.2656,269.9526,513.2656,273.9526,503.2656,269.9526,507.2656" style="stroke:#333333;stroke-width:1;stroke-linejoin:miter;stroke-miterlimit:10;"/><line style="stroke:#333333;stroke-width:1;" x1="269.9526" x2="269.9526" y1="548.3594" y2="568.3594"/><polygon fill="#333333" points="265.9526,558.3594,269.9526,568.3594,273.9526,558.3594,269.9526,562.3594" style="stroke:#333333;stroke-width:1;stroke-linejoin:miter;stroke-miterlimit:10;"/><line style="stroke:#333333;stroke-width:1;" x1="269.9526" x2="269.9526" y1="603.4531" y2="623.4531"/><polygon fill="#333333" points="265.9526,613.4531,269.9526,623.4531,273.9526,613.4531,269.9526,617.4531" style="stroke:#333333;stroke-width:1;stroke-linejoin:miter;stroke-miterlimit:10;"/><line style="stroke:#333333;stroke-width:1;" x1="269.9526" x2="269.9526" y1="658.5469" y2="678.5469"/><polygon fill="#333333" points="265.9526,668.5469,269.9526,678.5469,273.9526,668.5469,269.9526,672.5469" style="stroke:#333333;stroke-width:1;stroke-linejoin:miter;stroke-miterlimit:10;"/><line style="stroke:#333333;stroke-width:1;" x1="269.9526" x2="269.9526" y1="713.6406" y2="733.6406"/><polygon fill="#333333" points="265.9526,723.6406,269.9526,733.6406,273.9526,723.6406,269.9526,727.6406" style="stroke:#333333;stroke-width:1;stroke-linejoin:miter;stroke-miterlimit:10;"/><line style="stroke:#333333;stroke-width:1;" x1="269.9526" x2="269.9526" y1="768.7344" y2="788.7344"/><polygon fill="#333333" points="265.9526,778.7344,269.9526,788.7344,273.9526,778.7344,269.9526,782.7344" style="stroke:#333333;stroke-width:1;stroke-linejoin:miter;stroke-miterlimit:10;"/><line style="stroke:#333333;stroke-width:1;" x1="132.3887" x2="132.3887" y1="912.9219" y2="932.9219"/><polygon fill="#333333" points="128.3887,922.9219,132.3887,932.9219,136.3887,922.9219,132.3887,926.9219" style="stroke:#333333;stroke-width:1;stroke-linejoin:miter;stroke-miterlimit:10;"/><line style="stroke:#333333;stroke-width:1;" x1="132.3887" x2="132.3887" y1="968.0156" y2="988.0156"/><polygon fill="#333333" points="128.3887,978.0156,132.3887,988.0156,136.3887,978.0156,132.3887,982.0156" style="stroke:#333333;stroke-width:1;stroke-linejoin:miter;stroke-miterlimit:10;"/><line style="stroke:#333333;stroke-width:1;" x1="132.3887" x2="132.3887" y1="1023.1094" y2="1043.1094"/><polygon fill="#333333" points="128.3887,1033.1094,132.3887,1043.1094,136.3887,1033.1094,132.3887,1037.1094" style="stroke:#333333;stroke-width:1;stroke-linejoin:miter;stroke-miterlimit:10;"/><line style="stroke:#333333;stroke-width:1;" x1="132.3887" x2="132.3887" y1="1078.2031" y2="1098.2031"/><polygon fill="#333333" points="128.3887,1088.2031,132.3887,1098.2031,136.3887,1088.2031,132.3887,1092.2031" style="stroke:#333333;stroke-width:1;stroke-linejoin:miter;stroke-miterlimit:10;"/><line style="stroke:#333333;stroke-width:1;" x1="132.3887" x2="132.3887" y1="1133.2969" y2="1153.2969"/><polygon fill="#333333" points="128.3887,1143.2969,132.3887,1153.2969,136.3887,1143.2969,132.3887,1147.2969" style="stroke:#333333;stroke-width:1;stroke-linejoin:miter;stroke-miterlimit:10;"/><line style="stroke:#333333;stroke-width:1;" x1="132.3887" x2="132.3887" y1="1188.3906" y2="1208.3906"/><polygon fill="#333333" points="128.3887,1198.3906,132.3887,1208.3906,136.3887,1198.3906,132.3887,1202.3906" style="stroke:#333333;stroke-width:1;stroke-linejoin:miter;stroke-miterlimit:10;"/><line style="stroke:#333333;stroke-width:1;" x1="407.5166" x2="407.5166" y1="912.9219" y2="932.9219"/><polygon fill="#333333" points="403.5166,922.9219,407.5166,932.9219,411.5166,922.9219,407.5166,926.9219" style="stroke:#333333;stroke-width:1;stroke-linejoin:miter;stroke-miterlimit:10;"/><line style="stroke:#333333;stroke-width:1;" x1="407.5166" x2="407.5166" y1="968.0156" y2="988.0156"/><polygon fill="#333333" points="403.5166,978.0156,407.5166,988.0156,411.5166,978.0156,407.5166,982.0156" style="stroke:#333333;stroke-width:1;stroke-linejoin:miter;stroke-miterlimit:10;"/><line style="stroke:#333333;stroke-width:1;" x1="407.5166" x2="407.5166" y1="1023.1094" y2="1043.1094"/><polygon fill="#333333" points="403.5166,1033.1094,407.5166,1043.1094,411.5166,1033.1094,407.5166,1037.1094" style="stroke:#333333;stroke-width:1;stroke-linejoin:miter;stroke-miterlimit:10;"/><line style="stroke:#333333;stroke-width:1;" x1="407.5166" x2="407.5166" y1="1078.2031" y2="1098.2031"/><polygon fill="#333333" points="403.5166,1088.2031,407.5166,1098.2031,411.5166,1088.2031,407.5166,1092.2031" style="stroke:#333333;stroke-width:1;stroke-linejoin:miter;stroke-miterlimit:10;"/><line style="stroke:#333333;stroke-width:1;" x1="407.5166" x2="407.5166" y1="1133.2969" y2="1153.2969"/><polygon fill="#333333" points="403.5166,1143.2969,407.5166,1153.2969,411.5166,1143.2969,407.5166,1147.2969" style="stroke:#333333;stroke-width:1;stroke-linejoin:miter;stroke-miterlimit:10;"/><line style="stroke:#333333;stroke-width:1;" x1="407.5166" x2="407.5166" y1="1188.3906" y2="1208.3906"/><polygon fill="#333333" points="403.5166,1198.3906,407.5166,1208.3906,411.5166,1198.3906,407.5166,1202.3906" style="stroke:#333333;stroke-width:1;stroke-linejoin:miter;stroke-miterlimit:10;"/><line style="stroke:#333333;stroke-width:1;" x1="407.5166" x2="407.5166" y1="1243.4844" y2="1263.4844"/><polygon fill="#333333" points="403.5166,1253.4844,407.5166,1263.4844,411.5166,1253.4844,407.5166,1257.4844" style="stroke:#333333;stroke-width:1;stroke-linejoin:miter;stroke-miterlimit:10;"/><line style="stroke:#333333;stroke-width:1;" x1="407.5166" x2="407.5166" y1="1298.5781" y2="1318.5781"/><polygon fill="#333333" points="403.5166,1308.5781,407.5166,1318.5781,411.5166,1308.5781,407.5166,1312.5781" style="stroke:#333333;stroke-width:1;stroke-linejoin:miter;stroke-miterlimit:10;"/><line style="stroke:#333333;stroke-width:1;" x1="210.2632" x2="132.3887" y1="855.8281" y2="855.8281"/><line style="stroke:#333333;stroke-width:1;" x1="132.3887" x2="132.3887" y1="855.8281" y2="877.8281"/><polygon fill="#333333" points="128.3887,867.8281,132.3887,877.8281,136.3887,867.8281,132.3887,871.8281" style="stroke:#333333;stroke-width:1;stroke-linejoin:miter;stroke-miterlimit:10;"/><line style="stroke:#333333;stroke-width:1;" x1="329.6421" x2="407.5166" y1="855.8281" y2="855.8281"/><line style="stroke:#333333;stroke-width:1;" x1="407.5166" x2="407.5166" y1="855.8281" y2="877.8281"/><polygon fill="#333333" points="403.5166,867.8281,407.5166,877.8281,411.5166,867.8281,407.5166,871.8281" style="stroke:#333333;stroke-width:1;stroke-linejoin:miter;stroke-miterlimit:10;"/><line style="stroke:#333333;stroke-width:1;" x1="269.9526" x2="269.9526" y1="823.8281" y2="843.8281"/><polygon fill="#333333" points="265.9526,833.8281,269.9526,843.8281,273.9526,833.8281,269.9526,837.8281" style="stroke:#333333;stroke-width:1;stroke-linejoin:miter;stroke-miterlimit:10;"/><line style="stroke:#333333;stroke-width:1;" x1="698.6387" x2="698.6387" y1="438.1719" y2="458.1719"/><polygon fill="#333333" points="694.6387,448.1719,698.6387,458.1719,702.6387,448.1719,698.6387,452.1719" style="stroke:#333333;stroke-width:1;stroke-linejoin:miter;stroke-miterlimit:10;"/><line style="stroke:#333333;stroke-width:1;" x1="698.6387" x2="698.6387" y1="493.2656" y2="513.2656"/><polygon fill="#333333" points="694.6387,503.2656,698.6387,513.2656,702.6387,503.2656,698.6387,507.2656" style="stroke:#333333;stroke-width:1;stroke-linejoin:miter;stroke-miterlimit:10;"/><line style="stroke:#333333;stroke-width:1;" x1="432.947" x2="269.9526" y1="381.0781" y2="381.0781"/><line style="stroke:#333333;stroke-width:1;" x1="269.9526" x2="269.9526" y1="381.0781" y2="403.0781"/><polygon fill="#333333" points="265.9526,393.0781,269.9526,403.0781,273.9526,393.0781,269.9526,397.0781" style="stroke:#333333;stroke-width:1;stroke-linejoin:miter;stroke-miterlimit:10;"/><line style="stroke:#333333;stroke-width:1;" x1="535.6443" x2="698.6387" y1="381.0781" y2="381.0781"/><line style="stroke:#333333;stroke-width:1;" x1="698.6387" x2="698.6387" y1="381.0781" y2="403.0781"/><polygon fill="#333333" points="694.6387,393.0781,698.6387,403.0781,702.6387,393.0781,698.6387,397.0781" style="stroke:#333333;stroke-width:1;stroke-linejoin:miter;stroke-miterlimit:10;"/><line style="stroke:#333333;stroke-width:1;" x1="484.2957" x2="484.2957" y1="349.0781" y2="369.0781"/><polygon fill="#333333" points="480.2957,359.0781,484.2957,369.0781,488.2957,359.0781,484.2957,363.0781" style="stroke:#333333;stroke-width:1;stroke-linejoin:miter;stroke-miterlimit:10;"/><?plantuml-src fLHDZzCm4BtdLup4fNj0291On1vGQ5Eq2BHIk-m5xM7MdgIcgHrifrL0_7ScSVFLPhK2SgXK-ysyD_Dcx9NF2MBXrLxv2XOACuixU0vhNqhI7cxqWq4hbSwYo6sLBh2-TnkKvi27a6BkQ72JAqs-AWWAarVrdy5TRAqvp4rkB3nxtNp3dDYA-1K1VnzGR3DhIYsF4SdRvUKo3dV6IhBXV85skyxHqqUBLNExDDglrK-2bw-YtqC6gN1dj7oCOBbSNYPl_e70e_LHzExRiMVtiA9CEKyMtB6BA0GJ-Ii6rRIavJtCBN5IA1tZa5MrsCAQLEKqmgxv5sY7AeSzMPKgWLuP3PP-bEIQl1tvJK5wZ68RjgDqT_LjTKpe3HzUHP5AOPOCA4Y-lm2_uMIpYjn5K_c0vhF958UTd3RaffiPBWfzwLfO9s15lhH1lh8aGHfHxkhYQpoTPVrQv0Rx3WbE3Y_WUj75kJx4MCnueYKMR01tZW-enu5YUG_VITHK3VHCsnVs-zGCG0TSMLEIfRsYGniMovtIt54-wX1jSAvgQqQuLHFSfsLRowQuGHEuc2QeDcJH2TzZhdf7iE0KUmgkZ1ZYSDEAk1eW1kFaEv718Pu2YEUtrtV9PC2A16y4O2aLbsMoIT1ne8Cqp44RtytWC62m9eBK_cyYOY78kKvxoeIb9TTZsTIY-KFyBC7CKctrH9TMT9o1aEYW_8QDHJVcVQ9Xg-HJChzD5l_TiY2pNjKdEz0CMey_rtowDAp2CdWyNqFuvC9OAd8KrEpaPDpfAhSJpMsPMfIf9IWBYO_eakHHR8AHd2oDWftQd3r3QwBnOvVo2yOpSVQ6i4vR1QCnBDFK8zdDKA3z0m00?></g></svg>