<svg xmlns="http://www.w3.org/2000/svg" xmlns:xlink="http://www.w3.org/1999/xlink" contentStyleType="text/css" data-diagram-type="ACTIVITY" height="974px" preserveAspectRatio="none" style="width:814px;height:974px;background:#FFFFFF;" version="1.1" viewBox="0 0 814 974" width="814px" zoomAndPan="magnify"><?plantuml 1.2026.4?><defs/><g><g class="title" data-source-line="6"><text fill="#000000" font-family="sans-serif" font-size="14" font-weight="700" lengthAdjust="spacing" textLength="300.3164" x="255.9961" y="34.5332">Activity Diagram - Create and Publish Survey</text></g><ellipse cx="493.7849" cy="63.6094" fill="#222222" rx="10" ry="10" style="stroke:#222222;stroke-width:1;"/><rect fill="#E8F7FA" height="35.0938" rx="12.5" ry="12.5" style="stroke:#2F4F4F;stroke-width:0.5;" width="205.4258" x="391.072" y="93.6094"/><text fill="#000000" font-family="sans-serif" font-size="12" lengthAdjust="spacing" textLength="185.4258" x="401.072" y="116.0664">[Admin] Open survey management</text><rect fill="#E8F7FA" height="35.0938" rx="12.5" ry="12.5" style="stroke:#2F4F4F;stroke-width:0.5;" width="166.0566" x="410.7566" y="148.7031"/><text fill="#000000" font-family="sans-serif" font-size="12" lengthAdjust="spacing" textLength="146.0566" x="420.7566" y="171.1602">[Admin] Create draft survey</text><rect fill="#E8F7FA" height="35.0938" rx="12.5" ry="12.5" style="stroke:#2F4F4F;stroke-width:0.5;" width="304.1797" x="341.6951" y="203.7969"/><text fill="#000000" font-family="sans-serif" font-size="12" lengthAdjust="spacing" textLength="284.1797" x="351.6951" y="226.2539">[Backend] Validate title, schedule and recipient scope</text><polygon fill="#E8F7FA" points="443.0896,258.8906,544.4802,258.8906,556.4802,270.8906,544.4802,282.8906,443.0896,282.8906,431.0896,270.8906,443.0896,258.8906" style="stroke:#2F4F4F;stroke-width:0.5;stroke-linejoin:miter;stroke-miterlimit:10;"/><text fill="#000000" font-family="sans-serif" font-size="12" lengthAdjust="spacing" textLength="101.3906" x="443.0896" y="275.8008">Survey input valid?</text><text fill="#000000" font-family="sans-serif" font-size="11" lengthAdjust="spacing" textLength="17.1177" x="413.9719" y="268.4736">yes</text><text fill="#000000" font-family="sans-serif" font-size="11" lengthAdjust="spacing" textLength="12.2354" x="556.4802" y="268.4736">no</text><rect fill="#E8F7FA" height="35.0938" rx="12.5" ry="12.5" style="stroke:#2F4F4F;stroke-width:0.5;" width="202.0684" x="194.5913" y="292.8906"/><text fill="#000000" font-family="sans-serif" font-size="12" lengthAdjust="spacing" textLength="182.0684" x="204.5913" y="315.3477">[Backend] Save survey as DRAFT</text><rect fill="#E8F7FA" height="35.0938" rx="12.5" ry="12.5" style="stroke:#2F4F4F;stroke-width:0.5;" width="304.1738" x="143.5386" y="347.9844"/><text fill="#000000" font-family="sans-serif" font-size="12" lengthAdjust="spacing" textLength="284.1738" x="153.5386" y="370.4414">[Admin] Add questions or use question bank/template</text><rect fill="#E8F7FA" height="35.0938" rx="12.5" ry="12.5" style="stroke:#2F4F4F;stroke-width:0.5;" width="252.8105" x="169.2202" y="403.0781"/><text fill="#000000" font-family="sans-serif" font-size="12" lengthAdjust="spacing" textLength="232.8105" x="179.2202" y="425.5352">[Backend] Save questions and assignments</text><rect fill="#E8F7FA" height="35.0938" rx="12.5" ry="12.5" style="stroke:#2F4F4F;stroke-width:0.5;" width="169.3848" x="210.9331" y="458.1719"/><text fill="#000000" font-family="sans-serif" font-size="12" lengthAdjust="spacing" textLength="149.3848" x="220.9331" y="480.6289">[Admin] Review draft survey</text><rect fill="#E8F7FA" height="35.0938" rx="12.5" ry="12.5" style="stroke:#2F4F4F;stroke-width:0.5;" width="142.0508" x="224.6001" y="513.2656"/><text fill="#000000" font-family="sans-serif" font-size="12" lengthAdjust="spacing" textLength="122.0508" x="234.6001" y="535.7227">[Admin] Publish survey</text><rect fill="#E8F7FA" height="35.0938" rx="12.5" ry="12.5" style="stroke:#2F4F4F;stroke-width:0.5;" width="190.7715" x="200.2397" y="568.3594"/><text fill="#000000" font-family="sans-serif" font-size="12" lengthAdjust="spacing" textLength="170.7715" x="210.2397" y="590.8164">[Backend] Validate publish rules</text><polygon fill="#E8F7FA" points="232.2505,623.4531,359.0005,623.4531,371.0005,635.4531,359.0005,647.4531,232.2505,647.4531,220.2505,635.4531,232.2505,623.4531" style="stroke:#2F4F4F;stroke-width:0.5;stroke-linejoin:miter;stroke-miterlimit:10;"/><text fill="#000000" font-family="sans-serif" font-size="12" lengthAdjust="spacing" textLength="126.75" x="232.2505" y="640.3633">Draft can be published?</text><text fill="#000000" font-family="sans-serif" font-size="11" lengthAdjust="spacing" textLength="17.1177" x="203.1328" y="633.0361">yes</text><text fill="#000000" font-family="sans-serif" font-size="11" lengthAdjust="spacing" textLength="12.2354" x="371.0005" y="633.0361">no</text><rect fill="#E8F7FA" height="35.0938" rx="12.5" ry="12.5" style="stroke:#2F4F4F;stroke-width:0.5;" width="277.4609" x="16" y="657.4531"/><text fill="#000000" font-family="sans-serif" font-size="12" lengthAdjust="spacing" textLength="257.4609" x="26" y="679.9102">[Backend] Change survey status to PUBLISHED</text><rect fill="#E8F7FA" height="35.0938" rx="12.5" ry="12.5" style="stroke:#2F4F4F;stroke-width:0.5;" width="227.4629" x="40.999" y="712.5469"/><text fill="#000000" font-family="sans-serif" font-size="12" lengthAdjust="spacing" textLength="207.4629" x="50.999" y="735.0039">[Backend] Generate recipient snapshot</text><rect fill="#E8F7FA" height="35.0938" rx="12.5" ry="12.5" style="stroke:#2F4F4F;stroke-width:0.5;" width="218.0996" x="45.6807" y="767.6406"/><text fill="#000000" font-family="sans-serif" font-size="12" lengthAdjust="spacing" textLength="198.0996" x="55.6807" y="790.0977">[Backend] Create survey notifications</text><rect fill="#E8F7FA" height="35.0938" rx="12.5" ry="12.5" style="stroke:#2F4F4F;stroke-width:0.5;" width="164.0879" x="72.6865" y="822.7344"/><text fill="#000000" font-family="sans-serif" font-size="12" lengthAdjust="spacing" textLength="144.0879" x="82.6865" y="845.1914">[Backend] Record audit log</text><rect fill="#E8F7FA" height="35.0938" rx="12.5" ry="12.5" style="stroke:#2F4F4F;stroke-width:0.5;" width="237.459" x="36.001" y="877.8281"/><text fill="#000000" font-family="sans-serif" font-size="12" lengthAdjust="spacing" textLength="217.459" x="46.001" y="900.2852">[Student] Survey appears in assigned list</text><ellipse cx="154.7305" cy="943.9219" fill="none" rx="11" ry="11" style="stroke:#222222;stroke-width:1;"/><ellipse cx="154.7305" cy="943.9219" fill="#222222" rx="6" ry="6" style="stroke:#222222;stroke-width:1;"/><rect fill="#E8F7FA" height="35.0938" rx="12.5" ry="12.5" style="stroke:#2F4F4F;stroke-width:0.5;" width="246.1191" x="313.4609" y="657.4531"/><text fill="#000000" font-family="sans-serif" font-size="12" lengthAdjust="spacing" textLength="226.1191" x="323.4609" y="679.9102">[Backend] Return business validation error</text><rect fill="#E8F7FA" height="35.0938" rx="12.5" ry="12.5" style="stroke:#2F4F4F;stroke-width:0.5;" width="179.4043" x="346.8184" y="712.5469"/><text fill="#000000" font-family="sans-serif" font-size="12" lengthAdjust="spacing" textLength="159.4043" x="356.8184" y="735.0039">[Admin] Fix draft configuration</text><rect fill="#E8F7FA" height="35.0938" rx="12.5" ry="12.5" style="stroke:#2F4F4F;stroke-width:0.5;" width="201.4238" x="591.2324" y="292.8906"/><text fill="#000000" font-family="sans-serif" font-size="12" lengthAdjust="spacing" textLength="181.4238" x="601.2324" y="315.3477">[Backend] Return validation errors</text><rect fill="#E8F7FA" height="35.0938" rx="12.5" ry="12.5" style="stroke:#2F4F4F;stroke-width:0.5;" width="204.7285" x="589.5801" y="347.9844"/><text fill="#000000" font-family="sans-serif" font-size="12" lengthAdjust="spacing" textLength="184.7285" x="599.5801" y="370.4414">[Admin] Correct survey information</text><ellipse cx="691.9443" cy="414.0781" fill="none" rx="11" ry="11" style="stroke:#222222;stroke-width:1;"/><ellipse cx="691.9443" cy="414.0781" fill="#222222" rx="6" ry="6" style="stroke:#222222;stroke-width:1;"/><line style="stroke:#333333;stroke-width:1;" x1="493.7849" x2="493.7849" y1="73.6094" y2="93.6094"/><polygon fill="#333333" points="489.7849,83.6094,493.7849,93.6094,497.7849,83.6094,493.7849,87.6094" style="stroke:#333333;stroke-width:1;stroke-linejoin:miter;stroke-miterlimit:10;"/><line style="stroke:#333333;stroke-width:1;" x1="493.7849" x2="493.7849" y1="128.7031" y2="148.7031"/><polygon fill="#333333" points="489.7849,138.7031,493.7849,148.7031,497.7849,138.7031,493.7849,142.7031" style="stroke:#333333;stroke-width:1;stroke-linejoin:miter;stroke-miterlimit:10;"/><line style="stroke:#333333;stroke-width:1;" x1="493.7849" x2="493.7849" y1="183.7969" y2="203.7969"/><polygon fill="#333333" points="489.7849,193.7969,493.7849,203.7969,497.7849,193.7969,493.7849,197.7969" style="stroke:#333333;stroke-width:1;stroke-linejoin:miter;stroke-miterlimit:10;"/><line style="stroke:#333333;stroke-width:1;" x1="295.6255" x2="295.6255" y1="327.9844" y2="347.9844"/><polygon fill="#333333" points="291.6255,337.9844,295.6255,347.9844,299.6255,337.9844,295.6255,341.9844" style="stroke:#333333;stroke-width:1;stroke-linejoin:miter;stroke-miterlimit:10;"/><line style="stroke:#333333;stroke-width:1;" x1="295.6255" x2="295.6255" y1="383.0781" y2="403.0781"/><polygon fill="#333333" points="291.6255,393.0781,295.6255,403.0781,299.6255,393.0781,295.6255,397.0781" style="stroke:#333333;stroke-width:1;stroke-linejoin:miter;stroke-miterlimit:10;"/><line style="stroke:#333333;stroke-width:1;" x1="295.6255" x2="295.6255" y1="438.1719" y2="458.1719"/><polygon fill="#333333" points="291.6255,448.1719,295.6255,458.1719,299.6255,448.1719,295.6255,452.1719" style="stroke:#333333;stroke-width:1;stroke-linejoin:miter;stroke-miterlimit:10;"/><line style="stroke:#333333;stroke-width:1;" x1="295.6255" x2="295.6255" y1="493.2656" y2="513.2656"/><polygon fill="#333333" points="291.6255,503.2656,295.6255,513.2656,299.6255,503.2656,295.6255,507.2656" style="stroke:#333333;stroke-width:1;stroke-linejoin:miter;stroke-miterlimit:10;"/><line style="stroke:#333333;stroke-width:1;" x1="295.6255" x2="295.6255" y1="548.3594" y2="568.3594"/><polygon fill="#333333" points="291.6255,558.3594,295.6255,568.3594,299.6255,558.3594,295.6255,562.3594" style="stroke:#333333;stroke-width:1;stroke-linejoin:miter;stroke-miterlimit:10;"/><line style="stroke:#333333;stroke-width:1;" x1="154.7305" x2="154.7305" y1="692.5469" y2="712.5469"/><polygon fill="#333333" points="150.7305,702.5469,154.7305,712.5469,158.7305,702.5469,154.7305,706.5469" style="stroke:#333333;stroke-width:1;stroke-linejoin:miter;stroke-miterlimit:10;"/><line style="stroke:#333333;stroke-width:1;" x1="154.7305" x2="154.7305" y1="747.6406" y2="767.6406"/><polygon fill="#333333" points="150.7305,757.6406,154.7305,767.6406,158.7305,757.6406,154.7305,761.6406" style="stroke:#333333;stroke-width:1;stroke-linejoin:miter;stroke-miterlimit:10;"/><line style="stroke:#333333;stroke-width:1;" x1="154.7305" x2="154.7305" y1="802.7344" y2="822.7344"/><polygon fill="#333333" points="150.7305,812.7344,154.7305,822.7344,158.7305,812.7344,154.7305,816.7344" style="stroke:#333333;stroke-width:1;stroke-linejoin:miter;stroke-miterlimit:10;"/><line style="stroke:#333333;stroke-width:1;" x1="154.7305" x2="154.7305" y1="857.8281" y2="877.8281"/><polygon fill="#333333" points="150.7305,867.8281,154.7305,877.8281,158.7305,867.8281,154.7305,871.8281" style="stroke:#333333;stroke-width:1;stroke-linejoin:miter;stroke-miterlimit:10;"/><line style="stroke:#333333;stroke-width:1;" x1="154.7305" x2="154.7305" y1="912.9219" y2="932.9219"/><polygon fill="#333333" points="150.7305,922.9219,154.7305,932.9219,158.7305,922.9219,154.7305,926.9219" style="stroke:#333333;stroke-width:1;stroke-linejoin:miter;stroke-miterlimit:10;"/><line style="stroke:#333333;stroke-width:1;" x1="436.5205" x2="436.5205" y1="692.5469" y2="712.5469"/><polygon fill="#333333" points="432.5205,702.5469,436.5205,712.5469,440.5205,702.5469,436.5205,706.5469" style="stroke:#333333;stroke-width:1;stroke-linejoin:miter;stroke-miterlimit:10;"/><line style="stroke:#333333;stroke-width:1;" x1="220.2505" x2="154.7305" y1="635.4531" y2="635.4531"/><line style="stroke:#333333;stroke-width:1;" x1="154.7305" x2="154.7305" y1="635.4531" y2="657.4531"/><polygon fill="#333333" points="150.7305,647.4531,154.7305,657.4531,158.7305,647.4531,154.7305,651.4531" style="stroke:#333333;stroke-width:1;stroke-linejoin:miter;stroke-miterlimit:10;"/><line style="stroke:#333333;stroke-width:1;" x1="371.0005" x2="436.5205" y1="635.4531" y2="635.4531"/><line style="stroke:#333333;stroke-width:1;" x1="436.5205" x2="436.5205" y1="635.4531" y2="657.4531"/><polygon fill="#333333" points="432.5205,647.4531,436.5205,657.4531,440.5205,647.4531,436.5205,651.4531" style="stroke:#333333;stroke-width:1;stroke-linejoin:miter;stroke-miterlimit:10;"/><line style="stroke:#333333;stroke-width:1;" x1="295.6255" x2="295.6255" y1="603.4531" y2="623.4531"/><polygon fill="#333333" points="291.6255,613.4531,295.6255,623.4531,299.6255,613.4531,295.6255,617.4531" style="stroke:#333333;stroke-width:1;stroke-linejoin:miter;stroke-miterlimit:10;"/><line style="stroke:#333333;stroke-width:1;" x1="691.9443" x2="691.9443" y1="327.9844" y2="347.9844"/><polygon fill="#333333" points="687.9443,337.9844,691.9443,347.9844,695.9443,337.9844,691.9443,341.9844" style="stroke:#333333;stroke-width:1;stroke-linejoin:miter;stroke-miterlimit:10;"/><line style="stroke:#333333;stroke-width:1;" x1="691.9443" x2="691.9443" y1="383.0781" y2="403.0781"/><polygon fill="#333333" points="687.9443,393.0781,691.9443,403.0781,695.9443,393.0781,691.9443,397.0781" style="stroke:#333333;stroke-width:1;stroke-linejoin:miter;stroke-miterlimit:10;"/><line style="stroke:#333333;stroke-width:1;" x1="431.0896" x2="295.6255" y1="270.8906" y2="270.8906"/><line style="stroke:#333333;stroke-width:1;" x1="295.6255" x2="295.6255" y1="270.8906" y2="292.8906"/><polygon fill="#333333" points="291.6255,282.8906,295.6255,292.8906,299.6255,282.8906,295.6255,286.8906" style="stroke:#333333;stroke-width:1;stroke-linejoin:miter;stroke-miterlimit:10;"/><line style="stroke:#333333;stroke-width:1;" x1="556.4802" x2="691.9443" y1="270.8906" y2="270.8906"/><line style="stroke:#333333;stroke-width:1;" x1="691.9443" x2="691.9443" y1="270.8906" y2="292.8906"/><polygon fill="#333333" points="687.9443,282.8906,691.9443,292.8906,695.9443,282.8906,691.9443,286.8906" style="stroke:#333333;stroke-width:1;stroke-linejoin:miter;stroke-miterlimit:10;"/><line style="stroke:#333333;stroke-width:1;" x1="493.7849" x2="493.7849" y1="238.8906" y2="258.8906"/><polygon fill="#333333" points="489.7849,248.8906,493.7849,258.8906,497.7849,248.8906,493.7849,252.8906" style="stroke:#333333;stroke-width:1;stroke-linejoin:miter;stroke-miterlimit:10;"/><?plantuml-src bLF1ZjCm4BtdAqRYqaeW14WieWUKRPi52ObL0rnG3xFn9B6QsC4UjmJ4lw-Jk6tQ3GTyi-TvtfitCoov8eWpbdl9BQma5WPhU05BGyW4g0JSkuTAsX9IP_RKHf7TITLW1xCb2dsGge0SAqkZI2KLSTiGDBfgkyie5XkZ3qjTQGFFtlHd5CIZb3yH-7EBsQumsYaHFgpV9JT9FCIq4MI6znMQNLfvnNS6spwQQCMf_4tmwdNqTqGW9DRQL_MF_4cItApV_dV-o38QZjx_Y4KjrHQ-DAJ0zeP1ZGeBgadnuWm8_Wg3EGTW5-tqa19R-8wL51s2kmuz1vkL95mrTCHG9Xlf4_fdtT0YYcGEiw4_u0jr3Flk_uSvSEc5p5goyrxrY275FHqbeeNL9aw-BW8eY8o5W9-EB4kjB7WRdANJ0poWshragflEbyLa-lFdJZPQAmlL6M6lY3QqbtIuSkC2SHp2o-1Jkvg0CzuhpzBZEdDMVUeClUmJY2OCkigxB54L9vjyazbPO0tttsu_Vqe_hbUBgLztfCXqQaQDKjZOKlCaFWn3O56QPIupx8sRn6yeyxC9w8Hag7Gn1gNiX2VSXdK5R1f2O_rO1Fz9-Esq8o6MTTDVoEymp9IUJtEoCzuzP_qsMpiCMAyHo2-q6Mi8FKlahz3IJAjS5ixq-3DI46DM3jnAo3owLF2K_PhqUewMsdZBZoFaQywrgKUaVQa3rIC0?></g></svg>