<svg xmlns="http://www.w3.org/2000/svg" xmlns:xlink="http://www.w3.org/1999/xlink" contentStyleType="text/css" data-diagram-type="ACTIVITY" height="1067px" preserveAspectRatio="none" style="width:864px;height:1067px;background:#FFFFFF;" version="1.1" viewBox="0 0 864 1067" width="864px" zoomAndPan="magnify"><?plantuml 1.2026.4?><defs/><g><g class="title" data-source-line="5"><text fill="#000000" font-family="sans-serif" font-size="14" font-weight="700" lengthAdjust="spacing" textLength="291.751" x="285.1479" y="34.5332">Activity Diagram - Submit Survey Response</text></g><ellipse cx="488.1223" cy="63.6094" fill="#222222" rx="10" ry="10" style="stroke:#222222;stroke-width:1;"/><rect fill="#E8F7FA" height="35.0938" rx="12.5" ry="12.5" style="stroke:#2F4F4F;stroke-width:0.5;" width="196.7715" x="389.7366" y="93.6094"/><text fill="#000000" font-family="sans-serif" font-size="12" lengthAdjust="spacing" textLength="176.7715" x="399.7366" y="116.0664">[Student] Open assigned surveys</text><rect fill="#E8F7FA" height="35.0938" rx="12.5" ry="12.5" style="stroke:#2F4F4F;stroke-width:0.5;" width="242.7617" x="366.7415" y="148.7031"/><text fill="#000000" font-family="sans-serif" font-size="12" lengthAdjust="spacing" textLength="222.7617" x="376.7415" y="171.1602">[Backend] Filter visible and active surveys</text><rect fill="#E8F7FA" height="35.0938" rx="12.5" ry="12.5" style="stroke:#2F4F4F;stroke-width:0.5;" width="171.4238" x="402.4104" y="203.7969"/><text fill="#000000" font-family="sans-serif" font-size="12" lengthAdjust="spacing" textLength="151.4238" x="412.4104" y="226.2539">[Student] Open survey detail</text><rect fill="#E8F7FA" height="35.0938" rx="12.5" ry="12.5" style="stroke:#2F4F4F;stroke-width:0.5;" width="316.1738" x="330.0354" y="258.8906"/><text fill="#000000" font-family="sans-serif" font-size="12" lengthAdjust="spacing" textLength="296.1738" x="340.0354" y="281.3477">[Backend] Load survey, questions and submission state</text><polygon fill="#E8F7FA" points="433.4221,313.9844,542.8225,313.9844,554.8225,325.9844,542.8225,337.9844,433.4221,337.9844,421.4221,325.9844,433.4221,313.9844" style="stroke:#2F4F4F;stroke-width:0.5;stroke-linejoin:miter;stroke-miterlimit:10;"/><text fill="#000000" font-family="sans-serif" font-size="12" lengthAdjust="spacing" textLength="109.4004" x="433.4221" y="330.8945">Student can submit?</text><text fill="#000000" font-family="sans-serif" font-size="11" lengthAdjust="spacing" textLength="17.1177" x="404.3044" y="323.5674">yes</text><text fill="#000000" font-family="sans-serif" font-size="11" lengthAdjust="spacing" textLength="12.2354" x="554.8225" y="323.5674">no</text><rect fill="#E8F7FA" height="35.0938" rx="12.5" ry="12.5" style="stroke:#2F4F4F;stroke-width:0.5;" width="190.7422" x="178.2378" y="347.9844"/><text fill="#000000" font-family="sans-serif" font-size="12" lengthAdjust="spacing" textLength="170.7422" x="188.2378" y="370.4414">[Student] Fill rating/text answers</text><rect fill="#E8F7FA" height="35.0938" rx="12.5" ry="12.5" style="stroke:#2F4F4F;stroke-width:0.5;" width="200.0938" x="173.562" y="403.0781"/><text fill="#000000" font-family="sans-serif" font-size="12" lengthAdjust="spacing" textLength="180.0938" x="183.562" y="425.5352">[Student] Submit survey response</text><rect fill="#E8F7FA" height="35.0938" rx="12.5" ry="12.5" style="stroke:#2F4F4F;stroke-width:0.5;" width="266.1582" x="140.5298" y="458.1719"/><text fill="#000000" font-family="sans-serif" font-size="12" lengthAdjust="spacing" textLength="246.1582" x="150.5298" y="480.6289">[Backend] Validate survey status and deadline</text><rect fill="#E8F7FA" height="35.0938" rx="12.5" ry="12.5" style="stroke:#2F4F4F;stroke-width:0.5;" width="230.7852" x="158.2163" y="513.2656"/><text fill="#000000" font-family="sans-serif" font-size="12" lengthAdjust="spacing" textLength="210.7852" x="168.2163" y="535.7227">[Backend] Validate one-submission rule</text><rect fill="#E8F7FA" height="35.0938" rx="12.5" ry="12.5" style="stroke:#2F4F4F;stroke-width:0.5;" width="200.1055" x="173.5562" y="568.3594"/><text fill="#000000" font-family="sans-serif" font-size="12" lengthAdjust="spacing" textLength="180.1055" x="183.5562" y="590.8164">[Backend] Validate answer values</text><polygon fill="#E8F7FA" points="225.2515,623.4531,321.9663,623.4531,333.9663,635.4531,321.9663,647.4531,225.2515,647.4531,213.2515,635.4531,225.2515,623.4531" style="stroke:#2F4F4F;stroke-width:0.5;stroke-linejoin:miter;stroke-miterlimit:10;"/><text fill="#000000" font-family="sans-serif" font-size="12" lengthAdjust="spacing" textLength="96.7148" x="225.2515" y="640.3633">Submission valid?</text><text fill="#000000" font-family="sans-serif" font-size="11" lengthAdjust="spacing" textLength="17.1177" x="196.1338" y="633.0361">yes</text><text fill="#000000" font-family="sans-serif" font-size="11" lengthAdjust="spacing" textLength="12.2354" x="333.9663" y="633.0361">no</text><rect fill="#E8F7FA" height="35.0938" rx="12.5" ry="12.5" style="stroke:#2F4F4F;stroke-width:0.5;" width="214.1094" x="31.998" y="657.4531"/><text fill="#000000" font-family="sans-serif" font-size="12" lengthAdjust="spacing" textLength="194.1094" x="41.998" y="679.9102">[Backend] Create Survey_Response</text><rect fill="#E8F7FA" height="35.0938" rx="12.5" ry="12.5" style="stroke:#2F4F4F;stroke-width:0.5;" width="242.123" x="17.9912" y="712.5469"/><text fill="#000000" font-family="sans-serif" font-size="12" lengthAdjust="spacing" textLength="222.123" x="27.9912" y="735.0039">[Backend] Save Response_Detail records</text><rect fill="#E8F7FA" height="35.0938" rx="12.5" ry="12.5" style="stroke:#2F4F4F;stroke-width:0.5;" width="223.4258" x="27.3398" y="767.6406"/><text fill="#000000" font-family="sans-serif" font-size="12" lengthAdjust="spacing" textLength="203.4258" x="37.3398" y="790.0977">[Backend] Mark recipient as submitted</text><rect fill="#E8F7FA" height="35.0938" rx="12.5" ry="12.5" style="stroke:#2F4F4F;stroke-width:0.5;" width="207.4297" x="35.3379" y="871.6523"/><text fill="#000000" font-family="sans-serif" font-size="12" lengthAdjust="spacing" textLength="187.4297" x="45.3379" y="894.1094">[Backend] Dispatch translation task</text><polygon fill="#E8F7FA" points="37,822.7344,241.1055,822.7344,253.1055,834.7344,241.1055,846.7344,37,846.7344,25,834.7344,37,822.7344" style="stroke:#2F4F4F;stroke-width:0.5;stroke-linejoin:miter;stroke-miterlimit:10;"/><text fill="#000000" font-family="sans-serif" font-size="11" lengthAdjust="spacing" textLength="17.1177" x="143.0527" y="858.1533">yes</text><text fill="#000000" font-family="sans-serif" font-size="12" lengthAdjust="spacing" textLength="204.1055" x="37" y="839.6445">Text answers need async processing?</text><polygon fill="#E8F7FA" points="139.0527,926.7461,151.0527,938.7461,139.0527,950.7461,127.0527,938.7461,139.0527,926.7461" style="stroke:#2F4F4F;stroke-width:0.5;stroke-linejoin:miter;stroke-miterlimit:10;"/><rect fill="#E8F7FA" height="35.0938" rx="12.5" ry="12.5" style="stroke:#2F4F4F;stroke-width:0.5;" width="202.7598" x="37.6729" y="970.7461"/><text fill="#000000" font-family="sans-serif" font-size="12" lengthAdjust="spacing" textLength="182.7598" x="47.6729" y="993.2031">[Student] See submission success</text><ellipse cx="139.0527" cy="1036.8398" fill="none" rx="11" ry="11" style="stroke:#222222;stroke-width:1;"/><ellipse cx="139.0527" cy="1036.8398" fill="#222222" rx="6" ry="6" style="stroke:#222222;stroke-width:1;"/><rect fill="#E8F7FA" height="35.0938" rx="12.5" ry="12.5" style="stroke:#2F4F4F;stroke-width:0.5;" width="246.1191" x="285.1055" y="657.4531"/><text fill="#000000" font-family="sans-serif" font-size="12" lengthAdjust="spacing" textLength="226.1191" x="295.1055" y="679.9102">[Backend] Return validation/business error</text><rect fill="#E8F7FA" height="35.0938" rx="12.5" ry="12.5" style="stroke:#2F4F4F;stroke-width:0.5;" width="198.7461" x="308.792" y="712.5469"/><text fill="#000000" font-family="sans-serif" font-size="12" lengthAdjust="spacing" textLength="178.7461" x="318.792" y="735.0039">[Student] Correct answers or stop</text><ellipse cx="408.165" cy="778.6406" fill="none" rx="11" ry="11" style="stroke:#222222;stroke-width:1;"/><ellipse cx="408.165" cy="778.6406" fill="#222222" rx="6" ry="6" style="stroke:#222222;stroke-width:1;"/><rect fill="#E8F7FA" height="35.0938" rx="12.5" ry="12.5" style="stroke:#2F4F4F;stroke-width:0.5;" width="282.8223" x="561.2246" y="347.9844"/><text fill="#000000" font-family="sans-serif" font-size="12" lengthAdjust="spacing" textLength="262.8223" x="571.2246" y="370.4414">[Backend] Return forbidden or unavailable survey</text><rect fill="#E8F7FA" height="35.0938" rx="12.5" ry="12.5" style="stroke:#2F4F4F;stroke-width:0.5;" width="187.4199" x="608.9258" y="403.0781"/><text fill="#000000" font-family="sans-serif" font-size="12" lengthAdjust="spacing" textLength="167.4199" x="618.9258" y="425.5352">[Student] Cannot submit survey</text><ellipse cx="702.6357" cy="469.1719" fill="none" rx="11" ry="11" style="stroke:#222222;stroke-width:1;"/><ellipse cx="702.6357" cy="469.1719" fill="#222222" rx="6" ry="6" style="stroke:#222222;stroke-width:1;"/><line style="stroke:#333333;stroke-width:1;" x1="488.1223" x2="488.1223" y1="73.6094" y2="93.6094"/><polygon fill="#333333" points="484.1223,83.6094,488.1223,93.6094,492.1223,83.6094,488.1223,87.6094" style="stroke:#333333;stroke-width:1;stroke-linejoin:miter;stroke-miterlimit:10;"/><line style="stroke:#333333;stroke-width:1;" x1="488.1223" x2="488.1223" y1="128.7031" y2="148.7031"/><polygon fill="#333333" points="484.1223,138.7031,488.1223,148.7031,492.1223,138.7031,488.1223,142.7031" style="stroke:#333333;stroke-width:1;stroke-linejoin:miter;stroke-miterlimit:10;"/><line style="stroke:#333333;stroke-width:1;" x1="488.1223" x2="488.1223" y1="183.7969" y2="203.7969"/><polygon fill="#333333" points="484.1223,193.7969,488.1223,203.7969,492.1223,193.7969,488.1223,197.7969" style="stroke:#333333;stroke-width:1;stroke-linejoin:miter;stroke-miterlimit:10;"/><line style="stroke:#333333;stroke-width:1;" x1="488.1223" x2="488.1223" y1="238.8906" y2="258.8906"/><polygon fill="#333333" points="484.1223,248.8906,488.1223,258.8906,492.1223,248.8906,488.1223,252.8906" style="stroke:#333333;stroke-width:1;stroke-linejoin:miter;stroke-miterlimit:10;"/><line style="stroke:#333333;stroke-width:1;" x1="273.6089" x2="273.6089" y1="383.0781" y2="403.0781"/><polygon fill="#333333" points="269.6089,393.0781,273.6089,403.0781,277.6089,393.0781,273.6089,397.0781" style="stroke:#333333;stroke-width:1;stroke-linejoin:miter;stroke-miterlimit:10;"/><line style="stroke:#333333;stroke-width:1;" x1="273.6089" x2="273.6089" y1="438.1719" y2="458.1719"/><polygon fill="#333333" points="269.6089,448.1719,273.6089,458.1719,277.6089,448.1719,273.6089,452.1719" style="stroke:#333333;stroke-width:1;stroke-linejoin:miter;stroke-miterlimit:10;"/><line style="stroke:#333333;stroke-width:1;" x1="273.6089" x2="273.6089" y1="493.2656" y2="513.2656"/><polygon fill="#333333" points="269.6089,503.2656,273.6089,513.2656,277.6089,503.2656,273.6089,507.2656" style="stroke:#333333;stroke-width:1;stroke-linejoin:miter;stroke-miterlimit:10;"/><line style="stroke:#333333;stroke-width:1;" x1="273.6089" x2="273.6089" y1="548.3594" y2="568.3594"/><polygon fill="#333333" points="269.6089,558.3594,273.6089,568.3594,277.6089,558.3594,273.6089,562.3594" style="stroke:#333333;stroke-width:1;stroke-linejoin:miter;stroke-miterlimit:10;"/><line style="stroke:#333333;stroke-width:1;" x1="139.0527" x2="139.0527" y1="692.5469" y2="712.5469"/><polygon fill="#333333" points="135.0527,702.5469,139.0527,712.5469,143.0527,702.5469,139.0527,706.5469" style="stroke:#333333;stroke-width:1;stroke-linejoin:miter;stroke-miterlimit:10;"/><line style="stroke:#333333;stroke-width:1;" x1="139.0527" x2="139.0527" y1="747.6406" y2="767.6406"/><polygon fill="#333333" points="135.0527,757.6406,139.0527,767.6406,143.0527,757.6406,139.0527,761.6406" style="stroke:#333333;stroke-width:1;stroke-linejoin:miter;stroke-miterlimit:10;"/><line style="stroke:#333333;stroke-width:1;" x1="139.0527" x2="139.0527" y1="846.7344" y2="871.6523"/><polygon fill="#333333" points="135.0527,861.6523,139.0527,871.6523,143.0527,861.6523,139.0527,865.6523" style="stroke:#333333;stroke-width:1;stroke-linejoin:miter;stroke-miterlimit:10;"/><line style="stroke:#333333;stroke-width:1;" x1="253.1055" x2="265.1055" y1="834.7344" y2="834.7344"/><polygon fill="#333333" points="261.1055,879.1992,265.1055,889.1992,269.1055,879.1992,265.1055,883.1992" style="stroke:#333333;stroke-width:1;stroke-linejoin:miter;stroke-miterlimit:10;"/><line style="stroke:#333333;stroke-width:1;" x1="265.1055" x2="265.1055" y1="834.7344" y2="938.7461"/><line style="stroke:#333333;stroke-width:1;" x1="265.1055" x2="151.0527" y1="938.7461" y2="938.7461"/><polygon fill="#333333" points="161.0527,934.7461,151.0527,938.7461,161.0527,942.7461,157.0527,938.7461" style="stroke:#333333;stroke-width:1;stroke-linejoin:miter;stroke-miterlimit:10;"/><line style="stroke:#333333;stroke-width:1;" x1="139.0527" x2="139.0527" y1="906.7461" y2="926.7461"/><polygon fill="#333333" points="135.0527,916.7461,139.0527,926.7461,143.0527,916.7461,139.0527,920.7461" style="stroke:#333333;stroke-width:1;stroke-linejoin:miter;stroke-miterlimit:10;"/><line style="stroke:#333333;stroke-width:1;" x1="139.0527" x2="139.0527" y1="802.7344" y2="822.7344"/><polygon fill="#333333" points="135.0527,812.7344,139.0527,822.7344,143.0527,812.7344,139.0527,816.7344" style="stroke:#333333;stroke-width:1;stroke-linejoin:miter;stroke-miterlimit:10;"/><line style="stroke:#333333;stroke-width:1;" x1="139.0527" x2="139.0527" y1="950.7461" y2="970.7461"/><polygon fill="#333333" points="135.0527,960.7461,139.0527,970.7461,143.0527,960.7461,139.0527,964.7461" style="stroke:#333333;stroke-width:1;stroke-linejoin:miter;stroke-miterlimit:10;"/><line style="stroke:#333333;stroke-width:1;" x1="139.0527" x2="139.0527" y1="1005.8398" y2="1025.8398"/><polygon fill="#333333" points="135.0527,1015.8398,139.0527,1025.8398,143.0527,1015.8398,139.0527,1019.8398" style="stroke:#333333;stroke-width:1;stroke-linejoin:miter;stroke-miterlimit:10;"/><line style="stroke:#333333;stroke-width:1;" x1="408.165" x2="408.165" y1="692.5469" y2="712.5469"/><polygon fill="#333333" points="404.165,702.5469,408.165,712.5469,412.165,702.5469,408.165,706.5469" style="stroke:#333333;stroke-width:1;stroke-linejoin:miter;stroke-miterlimit:10;"/><line style="stroke:#333333;stroke-width:1;" x1="408.165" x2="408.165" y1="747.6406" y2="767.6406"/><polygon fill="#333333" points="404.165,757.6406,408.165,767.6406,412.165,757.6406,408.165,761.6406" style="stroke:#333333;stroke-width:1;stroke-linejoin:miter;stroke-miterlimit:10;"/><line style="stroke:#333333;stroke-width:1;" x1="213.2515" x2="139.0527" y1="635.4531" y2="635.4531"/><line style="stroke:#333333;stroke-width:1;" x1="139.0527" x2="139.0527" y1="635.4531" y2="657.4531"/><polygon fill="#333333" points="135.0527,647.4531,139.0527,657.4531,143.0527,647.4531,139.0527,651.4531" style="stroke:#333333;stroke-width:1;stroke-linejoin:miter;stroke-miterlimit:10;"/><line style="stroke:#333333;stroke-width:1;" x1="333.9663" x2="408.165" y1="635.4531" y2="635.4531"/><line style="stroke:#333333;stroke-width:1;" x1="408.165" x2="408.165" y1="635.4531" y2="657.4531"/><polygon fill="#333333" points="404.165,647.4531,408.165,657.4531,412.165,647.4531,408.165,651.4531" style="stroke:#333333;stroke-width:1;stroke-linejoin:miter;stroke-miterlimit:10;"/><line style="stroke:#333333;stroke-width:1;" x1="273.6089" x2="273.6089" y1="603.4531" y2="623.4531"/><polygon fill="#333333" points="269.6089,613.4531,273.6089,623.4531,277.6089,613.4531,273.6089,617.4531" style="stroke:#333333;stroke-width:1;stroke-linejoin:miter;stroke-miterlimit:10;"/><line style="stroke:#333333;stroke-width:1;" x1="702.6357" x2="702.6357" y1="383.0781" y2="403.0781"/><polygon fill="#333333" points="698.6357,393.0781,702.6357,403.0781,706.6357,393.0781,702.6357,397.0781" style="stroke:#333333;stroke-width:1;stroke-linejoin:miter;stroke-miterlimit:10;"/><line style="stroke:#333333;stroke-width:1;" x1="702.6357" x2="702.6357" y1="438.1719" y2="458.1719"/><polygon fill="#333333" points="698.6357,448.1719,702.6357,458.1719,706.6357,448.1719,702.6357,452.1719" style="stroke:#333333;stroke-width:1;stroke-linejoin:miter;stroke-miterlimit:10;"/><line style="stroke:#333333;stroke-width:1;" x1="421.4221" x2="273.6089" y1="325.9844" y2="325.9844"/><line style="stroke:#333333;stroke-width:1;" x1="273.6089" x2="273.6089" y1="325.9844" y2="347.9844"/><polygon fill="#333333" points="269.6089,337.9844,273.6089,347.9844,277.6089,337.9844,273.6089,341.9844" style="stroke:#333333;stroke-width:1;stroke-linejoin:miter;stroke-miterlimit:10;"/><line style="stroke:#333333;stroke-width:1;" x1="554.8225" x2="702.6357" y1="325.9844" y2="325.9844"/><line style="stroke:#333333;stroke-width:1;" x1="702.6357" x2="702.6357" y1="325.9844" y2="347.9844"/><polygon fill="#333333" points="698.6357,337.9844,702.6357,347.9844,706.6357,337.9844,702.6357,341.9844" style="stroke:#333333;stroke-width:1;stroke-linejoin:miter;stroke-miterlimit:10;"/><line style="stroke:#333333;stroke-width:1;" x1="488.1223" x2="488.1223" y1="293.9844" y2="313.9844"/><polygon fill="#333333" points="484.1223,303.9844,488.1223,313.9844,492.1223,303.9844,488.1223,307.9844" style="stroke:#333333;stroke-width:1;stroke-linejoin:miter;stroke-miterlimit:10;"/><?plantuml-src bLJ1ZjCm4BtdAqRYqfLOhG29HVI0IhlX0aBQ8YvejPh6qzQgQmTxaX8G_yxOIKdITf78fKhd-RqtyyPXpOPWLh2kDJUmqBZnk8ThM5QhlMRvyJKrS4-XT3PGbeMTjYL6JDYYSWTjDx168wM-OhGbRag2qfaclWngC-_TOUwCy_3iLNe6HJpw-9M1FE-ns6sygwpg3jozoM_pMLjpNf5l_r-WtoqDCdtmsAHgxYmlzK-25o-ptmC1fN7lh7gAFy_psxlN_ysV1KRFsTjlIwuKMNw0poLPm13qnfA2a8OOfeA8acJL0-JQC7ceTT0hIG35LEgUXkWnNri0HOpQZCW-EZogF8Vl5GNMabOY3J57CUBaF4iBqopJQvXqp52WRI7yxWfuAogJXi9LQdAWBsuDU6H9-uRf1mjrE90NaoV0RcqwgxvRcoFih-6lQBGIDqTWj5QrXXMXYZlpz1bdwNhGbg_CFy2jKQZHo5Ya-OXB0-W9weWzR_-4SUufyhKNul5-rDa9T8aIun7nk4XvoImAMQbmyS0dMR08qAMEeM3eCc5IFJww_ZAOFLYItSBGs09AxmgIRkpcSXydUWiTIkHY2-o5J3OxZe4nx7ermUdrm6kVCD5egQeYAlS70xiolP1y561YtSLftXDNlXjzahzPLM9Vc83a2-6dbwJdpikG-W78rOngbxIJ-x63S_MryokjX3ioLHPhoGdZRMotycovvsYjuowR4IW9jw9_0000?></g></svg>