<svg xmlns="http://www.w3.org/2000/svg" xmlns:xlink="http://www.w3.org/1999/xlink" contentStyleType="text/css" data-diagram-type="DESCRIPTION" height="742px" preserveAspectRatio="none" style="width:1641px;height:742px;background:#FFFFFF;" version="1.1" viewBox="0 0 1641 742" width="1641px" zoomAndPan="magnify"><?plantuml 1.2026.4?><defs/><g><g class="title" data-source-line="5"><text fill="#000000" font-family="sans-serif" font-size="14" font-weight="700" lengthAdjust="spacing" textLength="219.4063" x="707.2969" y="24.5332">Backend Hexagonal Architecture</text></g><!--cluster Inbound--><g class="cluster" data-qualified-name="Inbound" data-source-line="23" id="ent0001"><rect fill="#F8FBFD" height="366" rx="2.5" ry="2.5" style="stroke:#708090;stroke-width:1;" width="203" x="257" y="135.6094"/><text fill="#000000" font-family="sans-serif" font-size="12" font-weight="700" lengthAdjust="spacing" textLength="102.6621" x="307.1689" y="150.0664">Inbound Adapters</text><text fill="#000000" font-family="sans-serif" font-size="12" font-weight="700" lengthAdjust="spacing" textLength="57.3457" x="329.8271" y="165.1602">adapter.in</text></g><!--cluster CorePkg--><g class="cluster" data-qualified-name="CorePkg" data-source-line="29" id="ent0005"><rect fill="#F8FBFD" height="255" rx="2.5" ry="2.5" style="stroke:#708090;stroke-width:1;" width="763" x="583" y="245.6094"/><text fill="#000000" font-family="sans-serif" font-size="12" font-weight="700" lengthAdjust="spacing" textLength="96.0059" x="916.4971" y="260.0664">Application Core</text></g><!--cluster Outbound--><g class="cluster" data-qualified-name="Outbound" data-source-line="36" id="ent0010"><rect fill="#F8FBFD" height="622" rx="2.5" ry="2.5" style="stroke:#708090;stroke-width:1;" width="241" x="1386" y="45.6094"/><text fill="#000000" font-family="sans-serif" font-size="12" font-weight="700" lengthAdjust="spacing" textLength="112.6582" x="1450.1709" y="60.0664">Outbound Adapters</text><text fill="#000000" font-family="sans-serif" font-size="12" font-weight="700" lengthAdjust="spacing" textLength="65.3379" x="1473.8311" y="75.1602">adapter.out</text></g><!--cluster Infra--><g class="cluster" data-qualified-name="Infra" data-source-line="45" id="ent0017"><rect fill="#F8FBFD" height="302" rx="2.5" ry="2.5" style="stroke:#708090;stroke-width:1;" width="218" x="7" y="426.6094"/><text fill="#000000" font-family="sans-serif" font-size="12" font-weight="700" lengthAdjust="spacing" textLength="172.002" x="29.999" y="441.0664">Configuration &amp; Infrastructure</text></g><!--entity Web--><g class="entity" data-qualified-name="Inbound.Web" data-source-line="24" id="ent0002"><rect fill="#E8F7FA" height="80.375" rx="2.5" ry="2.5" style="stroke:#2F4F4F;stroke-width:0.5;" width="122.0645" x="297.5" y="378.6094"/><text fill="#000000" font-family="sans-serif" font-size="12" lengthAdjust="spacing" textLength="86.0273" x="307.5" y="401.0664">Web Controllers</text><text fill="#000000" font-family="sans-serif" font-size="12" lengthAdjust="spacing" textLength="54.6797" x="307.5" y="416.1602">REST API</text><text fill="#000000" font-family="sans-serif" font-size="12" lengthAdjust="spacing" textLength="88.0371" x="307.5" y="431.2539">DTO / Validation</text><text fill="#000000" font-family="sans-serif" font-size="12" lengthAdjust="spacing" textLength="102.0645" x="307.5" y="446.3477">Exception mapping</text></g><!--entity SecurityIn--><g class="entity" data-qualified-name="Inbound.SecurityIn" data-source-line="25" id="ent0003"><rect fill="#E8F7FA" height="65.2813" rx="2.5" ry="2.5" style="stroke:#2F4F4F;stroke-width:0.5;" width="154.748" x="281" y="193.1094"/><text fill="#000000" font-family="sans-serif" font-size="12" lengthAdjust="spacing" textLength="74.6895" x="291" y="215.5664">Security Entry</text><text fill="#000000" font-family="sans-serif" font-size="12" lengthAdjust="spacing" textLength="54.6563" x="291" y="230.6602">JWT Filter</text><text fill="#000000" font-family="sans-serif" font-size="12" lengthAdjust="spacing" textLength="134.748" x="291" y="245.7539">Authentication EntryPoint</text></g><!--entity MsgIn--><g class="entity" data-qualified-name="Inbound.MsgIn" data-source-line="26" id="ent0004"><rect fill="#E8F7FA" height="50.1875" rx="2.5" ry="2.5" style="stroke:#2F4F4F;stroke-width:0.5;" width="154.0566" x="281.5" y="293.6094"/><text fill="#000000" font-family="sans-serif" font-size="12" lengthAdjust="spacing" textLength="104.0566" x="291.5" y="316.0664">Messaging Listener</text><text fill="#000000" font-family="sans-serif" font-size="12" lengthAdjust="spacing" textLength="134.0566" x="291.5" y="331.1602">Translation result listener</text></g><!--entity InPorts--><g class="entity" data-qualified-name="CorePkg.InPorts" data-source-line="30" id="ent0006"><rect fill="#E8F7FA" height="65.2813" rx="2.5" ry="2.5" style="stroke:#2F4F4F;stroke-width:0.5;" width="122.041" x="607" y="288.1094"/><text fill="#000000" font-family="sans-serif" font-size="12" lengthAdjust="spacing" textLength="58.0313" x="617" y="310.5664">Input Ports</text><text fill="#000000" font-family="sans-serif" font-size="12" lengthAdjust="spacing" textLength="94.0605" x="617" y="325.6602">application.port.in</text><text fill="#000000" font-family="sans-serif" font-size="12" lengthAdjust="spacing" textLength="102.041" x="617" y="340.7539">Use case contracts</text></g><!--entity Services--><g class="entity" data-qualified-name="CorePkg.Services" data-source-line="31" id="ent0007"><rect fill="#E8F7FA" height="65.2813" rx="2.5" ry="2.5" style="stroke:#2F4F4F;stroke-width:0.5;" width="161.4102" x="900" y="288.1094"/><text fill="#000000" font-family="sans-serif" font-size="12" lengthAdjust="spacing" textLength="102.0352" x="910" y="310.5664">Use Case Services</text><text fill="#000000" font-family="sans-serif" font-size="12" lengthAdjust="spacing" textLength="141.4102" x="910" y="325.6602">application.domain.service</text><text fill="#000000" font-family="sans-serif" font-size="12" lengthAdjust="spacing" textLength="78.0352" x="910" y="340.7539">Business rules</text></g><!--entity Models--><g class="entity" data-qualified-name="CorePkg.Models" data-source-line="32" id="ent0008"><rect fill="#E8F7FA" height="80.375" rx="2.5" ry="2.5" style="stroke:#2F4F4F;stroke-width:0.5;" width="156.084" x="1143.5" y="388.6094"/><text fill="#000000" font-family="sans-serif" font-size="12" lengthAdjust="spacing" textLength="83.3672" x="1153.5" y="411.0664">Domain Models</text><text fill="#000000" font-family="sans-serif" font-size="12" lengthAdjust="spacing" textLength="136.084" x="1153.5" y="426.1602">application.domain.model</text><text fill="#000000" font-family="sans-serif" font-size="12" lengthAdjust="spacing" textLength="132.0527" x="1153.5" y="441.2539">User, Survey, Feedback,</text><text fill="#000000" font-family="sans-serif" font-size="12" lengthAdjust="spacing" textLength="132.041" x="1153.5" y="456.3477">Notification, AI Summary</text></g><!--entity OutPorts--><g class="entity" data-qualified-name="CorePkg.OutPorts" data-source-line="33" id="ent0009"><rect fill="#E8F7FA" height="65.2813" rx="2.5" ry="2.5" style="stroke:#2F4F4F;stroke-width:0.5;" width="201.4238" x="1121" y="288.1094"/><text fill="#000000" font-family="sans-serif" font-size="12" lengthAdjust="spacing" textLength="67.3652" x="1131" y="310.5664">Output Ports</text><text fill="#000000" font-family="sans-serif" font-size="12" lengthAdjust="spacing" textLength="101.4023" x="1131" y="325.6602">application.port.out</text><text fill="#000000" font-family="sans-serif" font-size="12" lengthAdjust="spacing" textLength="181.4238" x="1131" y="340.7539">Persistence / Integration contracts</text></g><!--entity Persistence--><g class="entity" data-qualified-name="Outbound.Persistence" data-source-line="37" id="ent0011"><rect fill="#E8F7FA" height="65.2813" rx="2.5" ry="2.5" style="stroke:#2F4F4F;stroke-width:0.5;" width="193.4023" x="1410" y="288.1094"/><text fill="#000000" font-family="sans-serif" font-size="12" lengthAdjust="spacing" textLength="108.0586" x="1420" y="310.5664">Persistence Adapter</text><text fill="#000000" font-family="sans-serif" font-size="12" lengthAdjust="spacing" textLength="173.4023" x="1420" y="325.6602">JPA Entity / Repository / Mapper</text><text fill="#000000" font-family="sans-serif" font-size="12" lengthAdjust="spacing" textLength="62.6895" x="1420" y="340.7539">SQL Server</text></g><!--entity SecurityOut--><g class="entity" data-qualified-name="Outbound.SecurityOut" data-source-line="38" id="ent0012"><rect fill="#E8F7FA" height="50.1875" rx="2.5" ry="2.5" style="stroke:#2F4F4F;stroke-width:0.5;" width="111.3652" x="1451" y="388.6094"/><text fill="#000000" font-family="sans-serif" font-size="12" lengthAdjust="spacing" textLength="88.7109" x="1461" y="411.0664">Security Adapter</text><text fill="#000000" font-family="sans-serif" font-size="12" lengthAdjust="spacing" textLength="91.3652" x="1461" y="426.1602">JwtTokenService</text></g><!--entity MsgOut--><g class="entity" data-qualified-name="Outbound.MsgOut" data-source-line="39" id="ent0013"><rect fill="#E8F7FA" height="50.1875" rx="2.5" ry="2.5" style="stroke:#2F4F4F;stroke-width:0.5;" width="149.0527" x="1432" y="574.6094"/><text fill="#000000" font-family="sans-serif" font-size="12" lengthAdjust="spacing" textLength="103.3945" x="1442" y="597.0664">Messaging Adapter</text><text fill="#000000" font-family="sans-serif" font-size="12" lengthAdjust="spacing" textLength="129.0527" x="1442" y="612.1602">RabbitMQ + WebSocket</text></g><!--entity AiOut--><g class="entity" data-qualified-name="Outbound.AiOut" data-source-line="40" id="ent0014"><rect fill="#E8F7FA" height="65.2813" rx="2.5" ry="2.5" style="stroke:#2F4F4F;stroke-width:0.5;" width="152.7441" x="1430" y="474.1094"/><text fill="#000000" font-family="sans-serif" font-size="12" lengthAdjust="spacing" textLength="127.4121" x="1440" y="496.5664">AI / Embedding Adapter</text><text fill="#000000" font-family="sans-serif" font-size="12" lengthAdjust="spacing" textLength="86.7129" x="1440" y="511.6602">Chat completion</text><text fill="#000000" font-family="sans-serif" font-size="12" lengthAdjust="spacing" textLength="132.7441" x="1440" y="526.7539">Local embedding service</text></g><!--entity StorageEmail--><g class="entity" data-qualified-name="Outbound.StorageEmail" data-source-line="41" id="ent0015"><rect fill="#E8F7FA" height="50.1875" rx="2.5" ry="2.5" style="stroke:#2F4F4F;stroke-width:0.5;" width="147.4004" x="1433" y="102.6094"/><text fill="#000000" font-family="sans-serif" font-size="12" lengthAdjust="spacing" textLength="127.4004" x="1443" y="125.0664">Storage / Email Adapter</text><text fill="#000000" font-family="sans-serif" font-size="12" lengthAdjust="spacing" textLength="87.041" x="1443" y="140.1602">MinIO + Resend</text></g><!--entity ExportOut--><g class="entity" data-qualified-name="Outbound.ExportOut" data-source-line="42" id="ent0016"><rect fill="#E8F7FA" height="65.2813" rx="2.5" ry="2.5" style="stroke:#2F4F4F;stroke-width:0.5;" width="100.0449" x="1456.5" y="188.1094"/><text fill="#000000" font-family="sans-serif" font-size="12" lengthAdjust="spacing" textLength="80.0449" x="1466.5" y="210.5664">Export Adapter</text><text fill="#000000" font-family="sans-serif" font-size="12" lengthAdjust="spacing" textLength="69.3516" x="1466.5" y="225.6602">Eclipse BIRT</text><text fill="#000000" font-family="sans-serif" font-size="12" lengthAdjust="spacing" textLength="64.6875" x="1466.5" y="240.7539">PDF / XLSX</text></g><!--entity Config--><g class="entity" data-qualified-name="Infra.Config" data-source-line="46" id="ent0018"><rect fill="#E8F7FA" height="65.2813" rx="2.5" ry="2.5" style="stroke:#2F4F4F;stroke-width:0.5;" width="186.0781" x="23" y="461.1094"/><text fill="#000000" font-family="sans-serif" font-size="12" lengthAdjust="spacing" textLength="32.0215" x="33" y="483.5664">config</text><text fill="#000000" font-family="sans-serif" font-size="12" lengthAdjust="spacing" textLength="146.0391" x="33" y="498.6602">Security, RabbitMQ, MinIO,</text><text fill="#000000" font-family="sans-serif" font-size="12" lengthAdjust="spacing" textLength="166.0781" x="33" y="513.7539">AI, Jackson, PasswordEncoder</text></g><!--entity InfraComp--><g class="entity" data-qualified-name="Infra.InfraComp" data-source-line="47" id="ent0019"><rect fill="#E8F7FA" height="65.2813" rx="2.5" ry="2.5" style="stroke:#2F4F4F;stroke-width:0.5;" width="127.3613" x="52.5" y="647.1094"/><text fill="#000000" font-family="sans-serif" font-size="12" lengthAdjust="spacing" textLength="70.0254" x="62.5" y="669.5664">infrastructure</text><text fill="#000000" font-family="sans-serif" font-size="12" lengthAdjust="spacing" textLength="107.3613" x="62.5" y="684.6602">WebSocket/STOMP</text><text fill="#000000" font-family="sans-serif" font-size="12" lengthAdjust="spacing" textLength="59.3789" x="62.5" y="699.7539">Scheduling</text></g><!--entity Common--><g class="entity" data-qualified-name="Infra.Common" data-source-line="48" id="ent0020"><rect fill="#E8F7FA" height="50.1875" rx="2.5" ry="2.5" style="stroke:#2F4F4F;stroke-width:0.5;" width="124.0801" x="54" y="561.6094"/><text fill="#000000" font-family="sans-serif" font-size="12" lengthAdjust="spacing" textLength="46.0137" x="64" y="584.0664">common</text><text fill="#000000" font-family="sans-serif" font-size="12" lengthAdjust="spacing" textLength="104.0801" x="64" y="599.1602">Shared annotations</text></g><g class="entity" data-qualified-name="GMN38" data-source-line="71" id="ent0039"><path d="M496,178.1094 L496,220.8125 L839.9878,220.8125 L839.9878,188.1094 L829.9878,178.1094 L496,178.1094" fill="#FEFFDD" style="stroke:#181818;stroke-width:0.5;"/><path d="M829.9878,178.1094 L829.9878,188.1094 L839.9878,188.1094 L829.9878,178.1094" fill="#FEFFDD" style="stroke:#181818;stroke-width:1;"/><text fill="#000000" font-family="sans-serif" font-size="13" lengthAdjust="spacing" textLength="268.144" x="502" y="196.6045">Application core kh&#244;ng ph&#7909; thu&#7897;c tr&#7921;c ti&#7871;p v&#224;o</text><text fill="#000000" font-family="sans-serif" font-size="13" lengthAdjust="spacing" textLength="322.9878" x="502" y="212.9561">REST controller, JPA repository hay provider b&#234;n ngo&#224;i.</text></g><!--link Web to InPorts--><g class="link" data-entity-1="ent0002" data-entity-2="ent0006" data-link-type="dependency" data-source-line="51" id="lnk21"><path d="M419.77,391.2394 C456.33,374.6294 496,356.6094 496,356.6094 C496,356.6094 552.5874,344.7 601.8174,334.33" fill="none" id="Web-to-InPorts" style="stroke:#333333;stroke-width:1;"/><polygon fill="#333333" points="606.71,333.2994,597.0788,331.2404,601.8174,334.33,598.7277,339.0686,606.71,333.2994" style="stroke:#333333;stroke-width:1;stroke-linejoin:miter;stroke-miterlimit:10;"/></g><!--link SecurityIn to InPorts--><g class="link" data-entity-1="ent0003" data-entity-2="ent0006" data-link-type="dependency" data-source-line="52" id="lnk22"><path d="M436.3,249.3394 C488.96,265.5994 553.0628,285.4033 601.8028,300.4633" fill="none" id="SecurityIn-to-InPorts" style="stroke:#333333;stroke-width:1;"/><polygon fill="#333333" points="606.58,301.9394,599.162,295.4607,601.8028,300.4633,596.8003,303.1042,606.58,301.9394" style="stroke:#333333;stroke-width:1;stroke-linejoin:miter;stroke-miterlimit:10;"/></g><!--link MsgIn to InPorts--><g class="link" data-entity-1="ent0004" data-entity-2="ent0006" data-link-type="dependency" data-source-line="53" id="lnk23"><path d="M435.51,319.0994 C488.33,319.4494 552.7701,319.8667 601.7701,320.1867" fill="none" id="MsgIn-to-InPorts" style="stroke:#333333;stroke-width:1;"/><polygon fill="#333333" points="606.77,320.2194,597.7963,316.1607,601.7701,320.1867,597.7441,324.1605,606.77,320.2194" style="stroke:#333333;stroke-width:1;stroke-linejoin:miter;stroke-miterlimit:10;"/></g><!--link InPorts to Services--><g class="link" data-entity-1="ent0006" data-entity-2="ent0007" data-link-type="dependency" data-source-line="54" id="lnk24"><path d="M729.24,320.6094 C777.82,320.6094 841.58,320.6094 894.74,320.6094" fill="none" id="InPorts-to-Services" style="stroke:#333333;stroke-width:1;"/><polygon fill="#333333" points="899.74,320.6094,890.74,316.6094,894.74,320.6094,890.74,324.6094,899.74,320.6094" style="stroke:#333333;stroke-width:1;stroke-linejoin:miter;stroke-miterlimit:10;"/></g><!--link Services to Models--><g class="link" data-entity-1="ent0007" data-entity-2="ent0008" data-link-type="dependency" data-source-line="55" id="lnk25"><path d="M1053.53,353.1594 C1081.85,365.9494 1109.8431,378.6116 1138.6531,391.6216" fill="none" id="Services-to-Models" style="stroke:#333333;stroke-width:1;"/><polygon fill="#333333" points="1143.21,393.6794,1136.6538,386.3298,1138.6531,391.6216,1133.3613,393.6209,1143.21,393.6794" style="stroke:#333333;stroke-width:1;stroke-linejoin:miter;stroke-miterlimit:10;"/></g><!--link Services to OutPorts--><g class="link" data-entity-1="ent0007" data-entity-2="ent0009" data-link-type="dependency" data-source-line="56" id="lnk26"><path d="M1061.08,320.6094 C1080.23,320.6094 1095.92,320.6094 1115.85,320.6094" fill="none" id="Services-to-OutPorts" style="stroke:#333333;stroke-width:1;"/><polygon fill="#333333" points="1120.85,320.6094,1111.85,316.6094,1115.85,320.6094,1111.85,324.6094,1120.85,320.6094" style="stroke:#333333;stroke-width:1;stroke-linejoin:miter;stroke-miterlimit:10;"/></g><!--link OutPorts to Persistence--><g class="link" data-entity-1="ent0009" data-entity-2="ent0011" data-link-type="dependency" data-source-line="57" id="lnk27"><path d="M1322.28,320.6094 C1350.76,320.6094 1376.72,320.6094 1404.95,320.6094" fill="none" id="OutPorts-to-Persistence" style="stroke:#333333;stroke-width:1;"/><polygon fill="#333333" points="1409.95,320.6094,1400.95,316.6094,1404.95,320.6094,1400.95,324.6094,1409.95,320.6094" style="stroke:#333333;stroke-width:1;stroke-linejoin:miter;stroke-miterlimit:10;"/></g><!--link OutPorts to SecurityOut--><g class="link" data-entity-1="ent0009" data-entity-2="ent0012" data-link-type="dependency" data-source-line="58" id="lnk28"><path d="M1318.41,353.1194 C1346.58,362.6694 1370,370.6094 1370,370.6094 C1370,370.6094 1408.404,382.7976 1446.014,394.7276" fill="none" id="OutPorts-to-SecurityOut" style="stroke:#333333;stroke-width:1;"/><polygon fill="#333333" points="1450.78,396.2394,1443.4107,389.7054,1446.014,394.7276,1440.9918,397.3309,1450.78,396.2394" style="stroke:#333333;stroke-width:1;stroke-linejoin:miter;stroke-miterlimit:10;"/></g><!--link OutPorts to MsgOut--><g class="link" data-entity-1="ent0009" data-entity-2="ent0013" data-link-type="dependency" data-source-line="59" id="lnk29"><path d="M1313.21,353.1194 C1339.85,362.6694 1362,370.6094 1362,370.6094 C1362,370.6094 1370,556.6094 1370,556.6094 C1370,556.6094 1395.254,564.6277 1427.034,574.7077" fill="none" id="OutPorts-to-MsgOut" style="stroke:#333333;stroke-width:1;"/><polygon fill="#333333" points="1431.8,576.2194,1424.4305,569.6855,1427.034,574.7077,1422.0118,577.3111,1431.8,576.2194" style="stroke:#333333;stroke-width:1;stroke-linejoin:miter;stroke-miterlimit:10;"/></g><!--link OutPorts to AiOut--><g class="link" data-entity-1="ent0009" data-entity-2="ent0014" data-link-type="dependency" data-source-line="60" id="lnk30"><path d="M1313.21,353.1194 C1339.85,362.6694 1362,370.6094 1362,370.6094 C1362,370.6094 1370,455.6094 1370,455.6094 C1370,455.6094 1394.1103,464.6885 1425.1503,476.3685" fill="none" id="OutPorts-to-AiOut" style="stroke:#333333;stroke-width:1;"/><polygon fill="#333333" points="1429.83,478.1294,1422.8153,471.216,1425.1503,476.3685,1419.9979,478.7035,1429.83,478.1294" style="stroke:#333333;stroke-width:1;stroke-linejoin:miter;stroke-miterlimit:10;"/></g><!--link OutPorts to StorageEmail--><g class="link" data-entity-1="ent0009" data-entity-2="ent0015" data-link-type="dependency" data-source-line="61" id="lnk31"><path d="M1254.51,288.0594 C1297.89,243.9494 1370,170.6094 1370,170.6094 C1370,170.6094 1396.004,162.3511 1428.224,152.1311" fill="none" id="OutPorts-to-StorageEmail" style="stroke:#333333;stroke-width:1;"/><polygon fill="#333333" points="1432.99,150.6194,1423.2018,149.5277,1428.224,152.1311,1425.6206,157.1533,1432.99,150.6194" style="stroke:#333333;stroke-width:1;stroke-linejoin:miter;stroke-miterlimit:10;"/></g><!--link OutPorts to ExportOut--><g class="link" data-entity-1="ent0009" data-entity-2="ent0016" data-link-type="dependency" data-source-line="62" id="lnk32"><path d="M1314.77,287.9994 C1361.87,271.3594 1412.5654,253.4446 1451.4954,239.6946" fill="none" id="OutPorts-to-ExportOut" style="stroke:#333333;stroke-width:1;"/><polygon fill="#333333" points="1456.21,238.0294,1446.3916,237.255,1451.4954,239.6946,1449.0559,244.7984,1456.21,238.0294" style="stroke:#333333;stroke-width:1;stroke-linejoin:miter;stroke-miterlimit:10;"/></g><!--link Config to Inbound--><g class="link" data-entity-1="ent0018" data-entity-2="ent0001" data-link-type="dependency" data-source-line="64" id="lnk33"><path d="M209.3,493.6094 C217.645,493.6094 226.1802,493.6094 234.7323,493.6094 C239.0084,493.6094 243.2887,493.6094 247.5517,493.6094 C249.6832,493.6094 251.8103,493.6094 253.9304,493.6094 C254.4604,493.6094 254.99,493.6094 255.5191,493.6094 C255.7836,493.6094 251.048,493.6094 251.3123,493.6094" fill="none" id="Config-to-Inbound" style="stroke:#333333;stroke-width:1;stroke-dasharray:7,7;"/><polygon fill="#333333" points="256.3123,493.6094,247.3123,489.6094,251.3123,493.6094,247.3123,497.6094,256.3123,493.6094" style="stroke:#333333;stroke-width:1;stroke-linejoin:miter;stroke-miterlimit:10;"/></g><!--link Config to Outbound--><g class="link" data-entity-1="ent0018" data-entity-2="ent0010" data-link-type="dependency" data-source-line="65" id="lnk34"><path d="M209.07,505.4894 C227.33,507.8494 241,509.6094 241,509.6094 C241,509.6094 667,546.6094 667,546.6094 C667,546.6094 667,546.6094 981.5,546.6094 C981.5,546.6094 1370,640.6094 1370,640.6094 C1370,640.6094 1372.0516,640.897 1375.6498,641.4016 C1377.4489,641.6538 1379.6347,641.9603 1382.1441,642.3122 C1382.7714,642.4001 1383.419,642.4909 1384.0858,642.5844 C1384.4192,642.6312 1384.7574,642.6786 1385.1003,642.7267 C1385.2717,642.7507 1380.4928,642.0806 1380.6665,642.105" fill="none" id="Config-to-Outbound" style="stroke:#333333;stroke-width:1;stroke-dasharray:7,7;"/><polygon fill="#333333" points="1385.6181,642.7993,1377.2607,637.5883,1380.6665,642.105,1376.1499,645.5108,1385.6181,642.7993" style="stroke:#333333;stroke-width:1;stroke-linejoin:miter;stroke-miterlimit:10;"/></g><!--link InfraComp to MsgOut--><g class="link" data-entity-1="ent0019" data-entity-2="ent0013" data-link-type="dependency" data-source-line="66" id="lnk35"><path d="M179.56,672.5594 C323.71,656.3094 667,617.6094 667,617.6094 C667,617.6094 667,617.6094 981.5,617.6094 C981.5,617.6094 1282.4829,607.2711 1426.8129,602.3111" fill="none" id="InfraComp-to-MsgOut" style="stroke:#333333;stroke-width:1;stroke-dasharray:7,7;"/><polygon fill="#333333" points="1431.81,602.1394,1422.6779,598.4508,1426.8129,602.3111,1422.9527,606.4461,1431.81,602.1394" style="stroke:#333333;stroke-width:1;stroke-linejoin:miter;stroke-miterlimit:10;"/></g><!--link Common to Inbound--><g class="link" data-entity-1="ent0020" data-entity-2="ent0001" data-link-type="dependency" data-source-line="67" id="lnk36"><path d="M178.06,563.9794 C206,553.6194 233,543.6094 233,543.6094 C233,543.6094 263.16,531.4969 293.7913,519.1956 C309.1069,513.045 324.5403,506.8472 336.3805,502.0927 C336.7505,501.9441 332.4771,503.6601 332.84,503.5144" fill="none" id="Common-to-Inbound" style="stroke:#333333;stroke-width:1;stroke-dasharray:7,7;"/><polygon fill="#333333" points="337.4798,501.6512,327.6375,501.293,332.84,503.5144,330.6186,508.7168,337.4798,501.6512" style="stroke:#333333;stroke-width:1;stroke-linejoin:miter;stroke-miterlimit:10;"/></g><!--link Common to Outbound--><g class="link" data-entity-1="ent0020" data-entity-2="ent0010" data-link-type="dependency" data-source-line="68" id="lnk37"><path d="M178.23,597.9594 C321.59,624.5494 667,688.6094 667,688.6094 C667,688.6094 667,688.6094 981.5,688.6094 C981.5,688.6094 1110.46,681.4719 1240.4275,674.2794 C1272.9194,672.4813 1305.4742,670.6797 1336.0928,668.9854 C1351.4021,668.1382 1366.2273,667.3178 1380.3185,666.5381 C1382.0799,666.4406 1378.8375,666.62 1380.5754,666.5239" fill="none" id="Common-to-Outbound" style="stroke:#333333;stroke-width:1;stroke-dasharray:7,7;"/><polygon fill="#333333" points="1385.5678,666.2476,1376.3605,662.751,1380.5754,666.5239,1376.8025,670.7388,1385.5678,666.2476" style="stroke:#333333;stroke-width:1;stroke-linejoin:miter;stroke-miterlimit:10;"/></g><!--link CorePkg to GMN38--><g class="link" data-entity-1="ent0005" data-entity-2="ent0039" data-link-type="association" data-source-line="71" id="lnk40"><path d="M582.8516,488.6502 C582.5262,488.635 582.2007,488.6199 581.8753,488.6048 C580.5735,488.5442 579.2718,488.4836 577.9713,488.4231 C536.355,486.4869 496,484.6094 496,484.6094 C496,484.6094 486,467.1094 486,467.1094 C486,467.1094 486,289.1094 486,289.1094 C486,289.1094 496,271.6094 496,271.6094 C496,271.6094 565.73,242.4194 616.39,221.2094" fill="none" id="CorePkg-GMN38" style="stroke:#333333;stroke-width:1;stroke-dasharray:7,7;"/></g><?plantuml-src VLQzSjj64Exn53lAJ9hGr2Gfuiep47yIUiI89fZO1PeZi0HkTBZ3t1qaqHa_I3etQT9vnbLKfD2Jw4soT_WXG8fX8OBxy-tYs-_sPBaL25SikKMPmY_um38bcO1G9pctcDXAOn08t5cm2ZJFSWifr-JWIWRcbikIQLQ0oLcgxhdCOCU4mPv7S8bsNoAKIkpTZvwlfBeimyZkgGa7ocGc-W6T3Vu8W3wkqKohIgOJ9PI6RsQlvp_DmzgdT8gwja-Pleq4i_YpPdlldIjf8_uHuViVWa-dBPp3dx-UNysd9_WlOFjts2gH3k13hTLzW_MZ_mH1M_9Y8RUk58GfAorg4qjMFusvl01ce0secpkGSV4Ujp2Xgbe9uHFNisW3uMeHo-dc1YxXToPuojoGOZbxIB1qZr2migGPUMo2E4QDCAaqjtkO4V8-bc_VRs3E1JKKox2oEKhB4mzQHwmKbzQ3jPaBUOovH6DOveHnpOr5wR0scaaZQY2DfXAML58xFThIP0JqgSTKM9QYBJrH6dsOUrZTPgViB6HPMLWfRHsbXzHnIIRYDfQ_6OI4kJ-EH9POq_3jauxnNFJ4HKUextY2HwYfAXYNOrCxOtbL6PAvCQ0hWQRXfquyHfxwL5Yg5CNBg8Lp-ORr2A9At-5-17F4T4lSZ6Bvgx9yr-IC85nGJ54mlQ-9zBZ7HMyg-t_ygCh6SaMgyYD9aDIqa1OpNTC_P8omQihwqoBZEM4JU9jtHjhzoaq-AN4LEiavRLx26ajbk5NQ_LXI_ouYUdVjMMuar4Cvg_83-htTA5g0pPG6YgP6pqkwGrYpxPRRvJlupfshID4wjQsKNq2WCLt2hDXYcWvW9ZcpH71H2goFxhLAQ1bZ5sbw7ORy1UI8Q74pSF2CYmFqail53RMtHaERldx5EjO77kFC7fmM3kcpHF2IJi3LOhqXTKpdLE73TVJ10zN1hfk-2cW_xNXMDRBvbaIqqynONVbBfJblP3gLGE8pQQRD34RGyZi2_nwa-t0nWhTKoZZPhvWnzxIUPp8XnUjcEpYGOsW-Q2AMtRGkeytDSaKranpJIhHRqdSueOcSzbWKRa9HpZIcmAHKrh-fQQexj-F3hUfNhzvqk-MmAWTcl_C6bkRRsxhzqJvuQtEy1xRkGBOFtje_3WD7N-O3HoFSWQrMt32_hw61vo2Ae1u5ZCTlsXkjRsfNGT1nxSrD0pMHHxcTgSiDY7vt_Lgh2b2xzcu8-XT7GZQupP--qa4gy-V7ly3crVFZdmbO_VpuXRxuyp__bd3tz5a5_a9DkYkMn4OhI1ysJyxsK6frnqbli7twMuBCrDDdFWxSFrAkc-0_?></g></svg>