<svg xmlns="http://www.w3.org/2000/svg" xmlns:xlink="http://www.w3.org/1999/xlink" contentStyleType="text/css" data-diagram-type="ACTIVITY" height="1630px" preserveAspectRatio="none" style="width:619px;height:1630px;background:#FFFFFF;" version="1.1" viewBox="0 0 619 1630" width="619px" zoomAndPan="magnify"><?plantuml 1.2026.4?><defs/><g><g class="title" data-source-line="6"><text fill="#000000" font-family="sans-serif" font-size="14" font-weight="700" lengthAdjust="spacing" textLength="269.917" x="173.8354" y="34.5332">CI/CD Pipeline Diagram - GitHub Actions</text></g><ellipse cx="346.7158" cy="63.6094" fill="#222222" rx="10" ry="10" style="stroke:#222222;stroke-width:1;"/><rect fill="#E8F7FA" height="65.2813" rx="12.5" ry="12.5" style="stroke:#2F4F4F;stroke-width:0.5;" width="121.4023" x="286.0146" y="93.6094"/><text fill="#000000" font-family="sans-serif" font-size="12" lengthAdjust="spacing" textLength="44.6777" x="296.0146" y="116.0664">[Trigger]</text><text fill="#000000" font-family="sans-serif" font-size="12" lengthAdjust="spacing" textLength="101.4023" x="296.0146" y="131.1602">push / pull_request</text><text fill="#000000" font-family="sans-serif" font-size="12" lengthAdjust="spacing" textLength="74.7129" x="296.0146" y="146.2539">main, develop</text><rect fill="none" height="520.9219" style="stroke:#000000;stroke-width:1.5;" width="208.7266" x="242.3525" y="168.8906"/><path d="M352.7383,168.8906 L352.7383,179.5 L342.7383,189.5 L242.3525,189.5" fill="none" style="stroke:#000000;stroke-width:1.5;"/><text fill="#000000" font-family="sans-serif" font-size="14" lengthAdjust="spacing" textLength="100.3857" x="245.3525" y="184.4238">Quality Gate job</text><rect fill="#E8F7FA" height="35.0938" rx="12.5" ry="12.5" style="stroke:#2F4F4F;stroke-width:0.5;" width="110.0469" x="291.6924" y="206.5"/><text fill="#000000" font-family="sans-serif" font-size="12" lengthAdjust="spacing" textLength="90.0469" x="301.6924" y="228.957">Checkout source</text><rect fill="#E8F7FA" height="50.1875" rx="12.5" ry="12.5" style="stroke:#2F4F4F;stroke-width:0.5;" width="112.0625" x="290.6846" y="261.5938"/><text fill="#000000" font-family="sans-serif" font-size="12" lengthAdjust="spacing" textLength="76.7227" x="300.6846" y="284.0508">Setup Java 21</text><text fill="#000000" font-family="sans-serif" font-size="12" lengthAdjust="spacing" textLength="92.0625" x="300.6846" y="299.1445">Setup Node.js 22</text><rect fill="#E8F7FA" height="50.1875" rx="12.5" ry="12.5" style="stroke:#2F4F4F;stroke-width:0.5;" width="129.3828" x="282.0244" y="331.7813"/><text fill="#000000" font-family="sans-serif" font-size="12" lengthAdjust="spacing" textLength="75.375" x="292.0244" y="354.2383">Backend tests</text><text fill="#000000" font-family="sans-serif" font-size="12" lengthAdjust="spacing" textLength="109.3828" x="292.0244" y="369.332">backend ./mvnw test</text><rect fill="#E8F7FA" height="50.1875" rx="12.5" ry="12.5" style="stroke:#2F4F4F;stroke-width:0.5;" width="102.043" x="295.6943" y="401.9688"/><text fill="#000000" font-family="sans-serif" font-size="12" lengthAdjust="spacing" textLength="82.043" x="305.6943" y="424.4258">Frontend install</text><text fill="#000000" font-family="sans-serif" font-size="12" lengthAdjust="spacing" textLength="35.3438" x="305.6943" y="439.5195">npm ci</text><rect fill="#E8F7FA" height="50.1875" rx="12.5" ry="12.5" style="stroke:#2F4F4F;stroke-width:0.5;" width="86.7031" x="303.3643" y="472.1563"/><text fill="#000000" font-family="sans-serif" font-size="12" lengthAdjust="spacing" textLength="66.7031" x="313.3643" y="494.6133">Frontend lint</text><text fill="#000000" font-family="sans-serif" font-size="12" lengthAdjust="spacing" textLength="62.6953" x="313.3643" y="509.707">npm run lint</text><rect fill="#E8F7FA" height="50.1875" rx="12.5" ry="12.5" style="stroke:#2F4F4F;stroke-width:0.5;" width="96.7168" x="298.3574" y="542.3438"/><text fill="#000000" font-family="sans-serif" font-size="12" lengthAdjust="spacing" textLength="76.7168" x="308.3574" y="564.8008">Frontend build</text><text fill="#000000" font-family="sans-serif" font-size="12" lengthAdjust="spacing" textLength="72.709" x="308.3574" y="579.8945">npm run build</text><rect fill="#E8F7FA" height="65.2813" rx="12.5" ry="12.5" style="stroke:#2F4F4F;stroke-width:0.5;" width="188.7266" x="252.3525" y="612.5313"/><text fill="#000000" font-family="sans-serif" font-size="12" lengthAdjust="spacing" textLength="111.3516" x="262.3525" y="634.9883">Trivy filesystem scan</text><text fill="#000000" font-family="sans-serif" font-size="12" lengthAdjust="spacing" textLength="118.7109" x="262.3525" y="650.082">vuln, secret, misconfig</text><text fill="#000000" font-family="sans-serif" font-size="12" lengthAdjust="spacing" textLength="168.7266" x="262.3525" y="665.1758">severity CRITICAL fails pipeline</text><polygon fill="#E8F7FA" points="303.6904,709.8125,389.7412,709.8125,401.7412,721.8125,389.7412,733.8125,303.6904,733.8125,291.6904,721.8125,303.6904,709.8125" style="stroke:#2F4F4F;stroke-width:0.5;stroke-linejoin:miter;stroke-miterlimit:10;"/><text fill="#000000" font-family="sans-serif" font-size="12" lengthAdjust="spacing" textLength="86.0508" x="303.6904" y="726.7227">Quality passed?</text><text fill="#000000" font-family="sans-serif" font-size="11" lengthAdjust="spacing" textLength="17.1177" x="274.5728" y="719.3955">yes</text><text fill="#000000" font-family="sans-serif" font-size="11" lengthAdjust="spacing" textLength="12.2354" x="401.7412" y="719.3955">no</text><rect fill="none" height="699.4063" style="stroke:#000000;stroke-width:1.5;" width="344.7969" x="16" y="743.8125"/><path d="M112.3926,743.8125 L112.3926,772.0313 L102.3926,782.0313 L16,782.0313" fill="none" style="stroke:#000000;stroke-width:1.5;"/><text fill="#000000" font-family="sans-serif" font-size="14" lengthAdjust="spacing" textLength="66.917" x="19" y="759.3457">Docker job</text><text fill="#000000" font-family="sans-serif" font-size="14" lengthAdjust="spacing" textLength="86.3926" x="19" y="776.9551">needs: quality</text><rect fill="#E8F7FA" height="35.0938" rx="12.5" ry="12.5" style="stroke:#2F4F4F;stroke-width:0.5;" width="110.0469" x="148.2158" y="799.0313"/><text fill="#000000" font-family="sans-serif" font-size="12" lengthAdjust="spacing" textLength="90.0469" x="158.2158" y="821.4883">Checkout source</text><rect fill="#E8F7FA" height="50.1875" rx="12.5" ry="12.5" style="stroke:#2F4F4F;stroke-width:0.5;" width="113.3457" x="146.5664" y="855.9063"/><text fill="#000000" font-family="sans-serif" font-size="12" lengthAdjust="spacing" textLength="68.0273" x="156.5664" y="878.3633">Login GHCR</text><text fill="#000000" font-family="sans-serif" font-size="12" lengthAdjust="spacing" textLength="93.3457" x="156.5664" y="893.457">GITHUB_TOKEN</text><rect fill="#E8F7FA" height="50.1875" rx="12.5" ry="12.5" style="stroke:#2F4F4F;stroke-width:0.5;" width="149.7383" x="128.3701" y="926.0938"/><text fill="#000000" font-family="sans-serif" font-size="12" lengthAdjust="spacing" textLength="80.0449" x="138.3701" y="948.5508">Set image tags</text><text fill="#000000" font-family="sans-serif" font-size="12" lengthAdjust="spacing" textLength="129.7383" x="138.3701" y="963.6445">latest/dev/branch + SHA</text><rect fill="#E8F7FA" height="50.1875" rx="12.5" ry="12.5" style="stroke:#2F4F4F;stroke-width:0.5;" width="131.4043" x="137.5371" y="996.2813"/><text fill="#000000" font-family="sans-serif" font-size="12" lengthAdjust="spacing" textLength="111.4043" x="147.5371" y="1018.7383">Build backend image</text><text fill="#000000" font-family="sans-serif" font-size="12" lengthAdjust="spacing" textLength="108.7207" x="147.5371" y="1033.832">./backend Dockerfile</text><rect fill="#E8F7FA" height="50.1875" rx="12.5" ry="12.5" style="stroke:#2F4F4F;stroke-width:0.5;" width="130.0684" x="138.2051" y="1066.4688"/><text fill="#000000" font-family="sans-serif" font-size="12" lengthAdjust="spacing" textLength="110.0684" x="148.2051" y="1088.9258">Build frontend image</text><text fill="#000000" font-family="sans-serif" font-size="12" lengthAdjust="spacing" textLength="107.3848" x="148.2051" y="1104.0195">./frontend Dockerfile</text><rect fill="#E8F7FA" height="50.1875" rx="12.5" ry="12.5" style="stroke:#2F4F4F;stroke-width:0.5;" width="188.7266" x="108.876" y="1136.6563"/><text fill="#000000" font-family="sans-serif" font-size="12" lengthAdjust="spacing" textLength="139.3945" x="118.876" y="1159.1133">Trivy backend image scan</text><text fill="#000000" font-family="sans-serif" font-size="12" lengthAdjust="spacing" textLength="168.7266" x="118.876" y="1174.207">severity CRITICAL fails pipeline</text><rect fill="#E8F7FA" height="50.1875" rx="12.5" ry="12.5" style="stroke:#2F4F4F;stroke-width:0.5;" width="188.7266" x="108.876" y="1206.8438"/><text fill="#000000" font-family="sans-serif" font-size="12" lengthAdjust="spacing" textLength="138.0586" x="118.876" y="1229.3008">Trivy frontend image scan</text><text fill="#000000" font-family="sans-serif" font-size="12" lengthAdjust="spacing" textLength="168.7266" x="118.876" y="1244.3945">severity CRITICAL fails pipeline</text><polygon fill="#E8F7FA" points="163.8818,1277.0313,242.5967,1277.0313,254.5967,1289.0313,242.5967,1301.0313,163.8818,1301.0313,151.8818,1289.0313,163.8818,1277.0313" style="stroke:#2F4F4F;stroke-width:0.5;stroke-linejoin:miter;stroke-miterlimit:10;"/><text fill="#000000" font-family="sans-serif" font-size="12" lengthAdjust="spacing" textLength="78.7148" x="163.8818" y="1293.9414">Event is push?</text><text fill="#000000" font-family="sans-serif" font-size="11" lengthAdjust="spacing" textLength="17.1177" x="134.7642" y="1286.6143">yes</text><text fill="#000000" font-family="sans-serif" font-size="11" lengthAdjust="spacing" textLength="59.9307" x="254.5967" y="1286.6143">pull_request</text><rect fill="#E8F7FA" height="35.0938" rx="12.5" ry="12.5" style="stroke:#2F4F4F;stroke-width:0.5;" width="184.0801" x="28" y="1311.0313"/><text fill="#000000" font-family="sans-serif" font-size="12" lengthAdjust="spacing" textLength="164.0801" x="38" y="1333.4883">Push backend image to GHCR</text><rect fill="#E8F7FA" height="35.0938" rx="12.5" ry="12.5" style="stroke:#2F4F4F;stroke-width:0.5;" width="182.7441" x="28.668" y="1366.125"/><text fill="#000000" font-family="sans-serif" font-size="12" lengthAdjust="spacing" textLength="162.7441" x="38.668" y="1388.582">Push frontend image to GHCR</text><rect fill="#E8F7FA" height="35.0938" rx="12.5" ry="12.5" style="stroke:#2F4F4F;stroke-width:0.5;" width="108.7168" x="232.0801" y="1311.0313"/><text fill="#000000" font-family="sans-serif" font-size="12" lengthAdjust="spacing" textLength="88.7168" x="242.0801" y="1333.4883">Skip image push</text><polygon fill="#E8F7FA" points="203.2393,1407.2188,215.2393,1419.2188,203.2393,1431.2188,191.2393,1419.2188,203.2393,1407.2188" style="stroke:#2F4F4F;stroke-width:0.5;stroke-linejoin:miter;stroke-miterlimit:10;"/><rect fill="#E8F7FA" height="35.0938" rx="12.5" ry="12.5" style="stroke:#2F4F4F;stroke-width:0.5;" width="261.4648" x="72.5068" y="1463.2188"/><text fill="#000000" font-family="sans-serif" font-size="12" lengthAdjust="spacing" textLength="241.4648" x="82.5068" y="1485.6758">GHCR contains backend/frontend image tags</text><rect fill="#E8F7FA" height="50.1875" rx="12.5" ry="12.5" style="stroke:#2F4F4F;stroke-width:0.5;" width="218.7617" x="93.8584" y="1518.3125"/><text fill="#000000" font-family="sans-serif" font-size="12" lengthAdjust="spacing" textLength="198.7617" x="103.8584" y="1540.7695">No automatic server deployment step</text><text fill="#000000" font-family="sans-serif" font-size="12" lengthAdjust="spacing" textLength="136.0605" x="103.8584" y="1555.8633">is defined in this workflow</text><ellipse cx="203.2393" cy="1599.5" fill="none" rx="11" ry="11" style="stroke:#222222;stroke-width:1;"/><ellipse cx="203.2393" cy="1599.5" fill="#222222" rx="6" ry="6" style="stroke:#222222;stroke-width:1;"/><rect fill="#E8F7FA" height="35.0938" rx="12.5" ry="12.5" style="stroke:#2F4F4F;stroke-width:0.5;" width="218.791" x="380.7969" y="743.8125"/><text fill="#000000" font-family="sans-serif" font-size="12" lengthAdjust="spacing" textLength="198.791" x="390.7969" y="766.2695">Pipeline fails before image build/push</text><ellipse cx="490.1924" cy="824.9063" fill="none" rx="11" ry="11" style="stroke:#222222;stroke-width:1;"/><ellipse cx="490.1924" cy="824.9063" fill="#222222" rx="6" ry="6" style="stroke:#222222;stroke-width:1;"/><line style="stroke:#333333;stroke-width:1;" x1="346.7158" x2="346.7158" y1="73.6094" y2="93.6094"/><polygon fill="#333333" points="342.7158,83.6094,346.7158,93.6094,350.7158,83.6094,346.7158,87.6094" style="stroke:#333333;stroke-width:1;stroke-linejoin:miter;stroke-miterlimit:10;"/><line style="stroke:#333333;stroke-width:1;" x1="346.7158" x2="346.7158" y1="241.5938" y2="261.5938"/><polygon fill="#333333" points="342.7158,251.5938,346.7158,261.5938,350.7158,251.5938,346.7158,255.5938" style="stroke:#333333;stroke-width:1;stroke-linejoin:miter;stroke-miterlimit:10;"/><line style="stroke:#333333;stroke-width:1;" x1="346.7158" x2="346.7158" y1="311.7813" y2="331.7813"/><polygon fill="#333333" points="342.7158,321.7813,346.7158,331.7813,350.7158,321.7813,346.7158,325.7813" style="stroke:#333333;stroke-width:1;stroke-linejoin:miter;stroke-miterlimit:10;"/><line style="stroke:#333333;stroke-width:1;" x1="346.7158" x2="346.7158" y1="381.9688" y2="401.9688"/><polygon fill="#333333" points="342.7158,391.9688,346.7158,401.9688,350.7158,391.9688,346.7158,395.9688" style="stroke:#333333;stroke-width:1;stroke-linejoin:miter;stroke-miterlimit:10;"/><line style="stroke:#333333;stroke-width:1;" x1="346.7158" x2="346.7158" y1="452.1563" y2="472.1563"/><polygon fill="#333333" points="342.7158,462.1563,346.7158,472.1563,350.7158,462.1563,346.7158,466.1563" style="stroke:#333333;stroke-width:1;stroke-linejoin:miter;stroke-miterlimit:10;"/><line style="stroke:#333333;stroke-width:1;" x1="346.7158" x2="346.7158" y1="522.3438" y2="542.3438"/><polygon fill="#333333" points="342.7158,532.3438,346.7158,542.3438,350.7158,532.3438,346.7158,536.3438" style="stroke:#333333;stroke-width:1;stroke-linejoin:miter;stroke-miterlimit:10;"/><line style="stroke:#333333;stroke-width:1;" x1="346.7158" x2="346.7158" y1="592.5313" y2="612.5313"/><polygon fill="#333333" points="342.7158,602.5313,346.7158,612.5313,350.7158,602.5313,346.7158,606.5313" style="stroke:#333333;stroke-width:1;stroke-linejoin:miter;stroke-miterlimit:10;"/><line style="stroke:#333333;stroke-width:1;" x1="346.7158" x2="346.7158" y1="158.8906" y2="206.5"/><polygon fill="#333333" points="342.7158,196.5,346.7158,206.5,350.7158,196.5,346.7158,200.5" style="stroke:#333333;stroke-width:1;stroke-linejoin:miter;stroke-miterlimit:10;"/><line style="stroke:#333333;stroke-width:1;" x1="203.2393" x2="203.2393" y1="834.125" y2="855.9063"/><polygon fill="#333333" points="199.2393,845.9063,203.2393,855.9063,207.2393,845.9063,203.2393,849.9063" style="stroke:#333333;stroke-width:1;stroke-linejoin:miter;stroke-miterlimit:10;"/><line style="stroke:#333333;stroke-width:1;" x1="203.2393" x2="203.2393" y1="906.0938" y2="926.0938"/><polygon fill="#333333" points="199.2393,916.0938,203.2393,926.0938,207.2393,916.0938,203.2393,920.0938" style="stroke:#333333;stroke-width:1;stroke-linejoin:miter;stroke-miterlimit:10;"/><line style="stroke:#333333;stroke-width:1;" x1="203.2393" x2="203.2393" y1="976.2813" y2="996.2813"/><polygon fill="#333333" points="199.2393,986.2813,203.2393,996.2813,207.2393,986.2813,203.2393,990.2813" style="stroke:#333333;stroke-width:1;stroke-linejoin:miter;stroke-miterlimit:10;"/><line style="stroke:#333333;stroke-width:1;" x1="203.2393" x2="203.2393" y1="1046.4688" y2="1066.4688"/><polygon fill="#333333" points="199.2393,1056.4688,203.2393,1066.4688,207.2393,1056.4688,203.2393,1060.4688" style="stroke:#333333;stroke-width:1;stroke-linejoin:miter;stroke-miterlimit:10;"/><line style="stroke:#333333;stroke-width:1;" x1="203.2393" x2="203.2393" y1="1116.6563" y2="1136.6563"/><polygon fill="#333333" points="199.2393,1126.6563,203.2393,1136.6563,207.2393,1126.6563,203.2393,1130.6563" style="stroke:#333333;stroke-width:1;stroke-linejoin:miter;stroke-miterlimit:10;"/><line style="stroke:#333333;stroke-width:1;" x1="203.2393" x2="203.2393" y1="1186.8438" y2="1206.8438"/><polygon fill="#333333" points="199.2393,1196.8438,203.2393,1206.8438,207.2393,1196.8438,203.2393,1200.8438" style="stroke:#333333;stroke-width:1;stroke-linejoin:miter;stroke-miterlimit:10;"/><line style="stroke:#333333;stroke-width:1;" x1="120.04" x2="120.04" y1="1346.125" y2="1366.125"/><polygon fill="#333333" points="116.04,1356.125,120.04,1366.125,124.04,1356.125,120.04,1360.125" style="stroke:#333333;stroke-width:1;stroke-linejoin:miter;stroke-miterlimit:10;"/><line style="stroke:#333333;stroke-width:1;" x1="151.8818" x2="120.04" y1="1289.0313" y2="1289.0313"/><line style="stroke:#333333;stroke-width:1;" x1="120.04" x2="120.04" y1="1289.0313" y2="1311.0313"/><polygon fill="#333333" points="116.04,1301.0313,120.04,1311.0313,124.04,1301.0313,120.04,1305.0313" style="stroke:#333333;stroke-width:1;stroke-linejoin:miter;stroke-miterlimit:10;"/><line style="stroke:#333333;stroke-width:1;" x1="254.5967" x2="286.4385" y1="1289.0313" y2="1289.0313"/><line style="stroke:#333333;stroke-width:1;" x1="286.4385" x2="286.4385" y1="1289.0313" y2="1311.0313"/><polygon fill="#333333" points="282.4385,1301.0313,286.4385,1311.0313,290.4385,1301.0313,286.4385,1305.0313" style="stroke:#333333;stroke-width:1;stroke-linejoin:miter;stroke-miterlimit:10;"/><line style="stroke:#333333;stroke-width:1;" x1="120.04" x2="120.04" y1="1401.2188" y2="1419.2188"/><line style="stroke:#333333;stroke-width:1;" x1="120.04" x2="191.2393" y1="1419.2188" y2="1419.2188"/><polygon fill="#333333" points="181.2393,1415.2188,191.2393,1419.2188,181.2393,1423.2188,185.2393,1419.2188" style="stroke:#333333;stroke-width:1;stroke-linejoin:miter;stroke-miterlimit:10;"/><line style="stroke:#333333;stroke-width:1;" x1="286.4385" x2="286.4385" y1="1346.125" y2="1419.2188"/><line style="stroke:#333333;stroke-width:1;" x1="286.4385" x2="215.2393" y1="1419.2188" y2="1419.2188"/><polygon fill="#333333" points="225.2393,1415.2188,215.2393,1419.2188,225.2393,1423.2188,221.2393,1419.2188" style="stroke:#333333;stroke-width:1;stroke-linejoin:miter;stroke-miterlimit:10;"/><line style="stroke:#333333;stroke-width:1;" x1="203.2393" x2="203.2393" y1="1257.0313" y2="1277.0313"/><polygon fill="#333333" points="199.2393,1267.0313,203.2393,1277.0313,207.2393,1267.0313,203.2393,1271.0313" style="stroke:#333333;stroke-width:1;stroke-linejoin:miter;stroke-miterlimit:10;"/><line style="stroke:#333333;stroke-width:1;" x1="203.2393" x2="203.2393" y1="1431.2188" y2="1463.2188"/><polygon fill="#333333" points="199.2393,1453.2188,203.2393,1463.2188,207.2393,1453.2188,203.2393,1457.2188" style="stroke:#333333;stroke-width:1;stroke-linejoin:miter;stroke-miterlimit:10;"/><line style="stroke:#333333;stroke-width:1;" x1="203.2393" x2="203.2393" y1="1498.3125" y2="1518.3125"/><polygon fill="#333333" points="199.2393,1508.3125,203.2393,1518.3125,207.2393,1508.3125,203.2393,1512.3125" style="stroke:#333333;stroke-width:1;stroke-linejoin:miter;stroke-miterlimit:10;"/><line style="stroke:#333333;stroke-width:1;" x1="203.2393" x2="203.2393" y1="1568.5" y2="1588.5"/><polygon fill="#333333" points="199.2393,1578.5,203.2393,1588.5,207.2393,1578.5,203.2393,1582.5" style="stroke:#333333;stroke-width:1;stroke-linejoin:miter;stroke-miterlimit:10;"/><line style="stroke:#333333;stroke-width:1;" x1="490.1924" x2="490.1924" y1="778.9063" y2="813.9063"/><polygon fill="#333333" points="486.1924,803.9063,490.1924,813.9063,494.1924,803.9063,490.1924,807.9063" style="stroke:#333333;stroke-width:1;stroke-linejoin:miter;stroke-miterlimit:10;"/><line style="stroke:#333333;stroke-width:1;" x1="291.6904" x2="203.2393" y1="721.8125" y2="721.8125"/><line style="stroke:#333333;stroke-width:1;" x1="203.2393" x2="203.2393" y1="721.8125" y2="799.0313"/><polygon fill="#333333" points="199.2393,789.0313,203.2393,799.0313,207.2393,789.0313,203.2393,793.0313" style="stroke:#333333;stroke-width:1;stroke-linejoin:miter;stroke-miterlimit:10;"/><line style="stroke:#333333;stroke-width:1;" x1="401.7412" x2="490.1924" y1="721.8125" y2="721.8125"/><line style="stroke:#333333;stroke-width:1;" x1="490.1924" x2="490.1924" y1="721.8125" y2="743.8125"/><polygon fill="#333333" points="486.1924,733.8125,490.1924,743.8125,494.1924,733.8125,490.1924,737.8125" style="stroke:#333333;stroke-width:1;stroke-linejoin:miter;stroke-miterlimit:10;"/><line style="stroke:#333333;stroke-width:1;" x1="346.7158" x2="346.7158" y1="677.8125" y2="709.8125"/><polygon fill="#333333" points="342.7158,699.8125,346.7158,709.8125,350.7158,699.8125,346.7158,703.8125" style="stroke:#333333;stroke-width:1;stroke-linejoin:miter;stroke-miterlimit:10;"/><?plantuml-src ZPJTJzim4C3VyrUSs0jeZ8XE6bFxC9L-iY76QFUqJCXDBgcfOnlRQPLD_Eyx9sa91SJoThxltzt5SISG1XVXO0ZNNAFW4c78MMPO3XzWmjsqM40_Tbn96mHsnQLcNcUNB54RBZD8cR3OqlWGhjG8MedI2orTtnYr6IYX3BpxM7qj9QCiQ-vA-1i0VUSiNcL65J9f74QVnsVZVgrJ9a5Jlm-PMSq4SpWnhAoqOoNTZFz1EEq43wq42MUvaibhySVZyTdeqnln7mY2OyO5tLzpmxCCpUz8wi8k8GHT275hyBv0woAPCowF8S4r2gLxGK0rEEuvmi6FWWdVw8IYmfrQ73GbTGTBZ5UgS61LOMBirQypT8M6hspDe7CQoLgyKWcUt5deT1ehtmzITuwosqWk6l4apDToKxqsXcD3VBoAIsf5Y4XAdKFCzzKqErVhJ24hQTzYKN2HF9fKOcD3SDObf5oWBQr3MfYOoKYk2q5GBCO6tJ7atCPAfZoBf2LEnZCPt5pCBmRzIzehBYpePYbxdZnFuN3BJZDhCVbo16w94WvBj4TLvXRceI84nWEc6X4JsuNxsdiB_7NebUPIPLp2P3guYUJaOZxzUNux__vjTDKoeM40prc6u5X6sFsYM1VIsCE5OJ9UmdkOJVijZtDF2RRZgNmZUH9k7-gYFRXdFkbkS5kdtSkBNlKCdcHgnl0sxRqWJrF_TvHT63-vqHebmI8zdSlpmUqoNljhUbgrKzKKUYyOxbNsp1BfxmI7xTFSIpTRSTqu-y9QdZBXQIKzr3lj0mCjhAFBjjiAm_q2Q0sQ6xXIm0gdSkPuJ3jlY1Rz3xHGPUv9q5deI1AF15EYvU-Hc92yKMQL2hMfmrYdT51t8LLTUtVtgww1Bp1L1fi2gYiC7rkf_QjU_W40?></g></svg>