<svg xmlns="http://www.w3.org/2000/svg" xmlns:xlink="http://www.w3.org/1999/xlink" contentStyleType="text/css" data-diagram-type="DESCRIPTION" height="907px" preserveAspectRatio="none" style="width:557px;height:907px;background:#FFFFFF;" version="1.1" viewBox="0 0 557 907" width="557px" zoomAndPan="magnify"><?plantuml 1.2026.4?><defs/><g><g class="title" data-source-line="6"><text fill="#000000" font-family="sans-serif" font-size="14" font-weight="700" lengthAdjust="spacing" textLength="169.5791" x="190.4209" y="24.5332">Containerization Diagram</text></g><!--cluster Compose--><g class="cluster" data-qualified-name="Compose" data-source-line="30" id="ent0003"><rect fill="#E8F7FA" height="397" rx="2.5" ry="2.5" style="stroke:#2F4F4F;stroke-width:1;" width="254" x="92.1357" y="203.2014"/><text fill="#000000" font-family="sans-serif" font-size="12" font-weight="700" lengthAdjust="spacing" textLength="120.041" x="159.1152" y="217.6584">docker-compose.yml</text><text fill="#000000" font-family="sans-serif" font-size="12" font-weight="700" lengthAdjust="spacing" textLength="115.3359" x="161.4677" y="232.7522">app-network: bridge</text></g><!--entity Frontend--><g class="entity" data-qualified-name="Compose.Frontend" data-source-line="31" id="ent0004"><rect fill="#E8F7FA" height="118.5625" rx="2.5" ry="2.5" style="stroke:#2F4F4F;stroke-width:0.5;" width="165.0957" x="145.6357" y="260.2014"/><text fill="#000000" font-family="sans-serif" font-size="12" lengthAdjust="spacing" textLength="96.7324" x="155.6357" y="282.6584">frontend container</text><text fill="#000000" font-family="sans-serif" font-size="12" lengthAdjust="spacing" textLength="94.0605" x="155.6357" y="297.7522">Nginx 1.27 Alpine</text><text fill="#000000" font-family="sans-serif" font-size="12" lengthAdjust="spacing" textLength="60.041" x="155.6357" y="312.8459">ports 80:80</text><line style="stroke:#2F4F4F;stroke-width:1;" x1="146.6357" x2="309.7314" y1="315.4826" y2="315.4826"/><text fill="#000000" font-family="sans-serif" font-size="12" lengthAdjust="spacing" textLength="119.3789" x="155.6357" y="331.9397">serves React SPA dist</text><text fill="#000000" font-family="sans-serif" font-size="12" lengthAdjust="spacing" textLength="113.707" x="155.6357" y="347.0334">try_files -&gt; index.html</text><text fill="#000000" font-family="sans-serif" font-size="12" lengthAdjust="spacing" textLength="145.0957" x="155.6357" y="362.1272">proxy /api -&gt; backend:8080</text></g><!--entity Backend--><g class="entity" data-qualified-name="Compose.Backend" data-source-line="33" id="ent0005"><rect fill="#E8F7FA" height="103.4688" rx="2.5" ry="2.5" style="stroke:#2F4F4F;stroke-width:0.5;" width="152.7266" x="124.6357" y="473.2014"/><text fill="#000000" font-family="sans-serif" font-size="12" lengthAdjust="spacing" textLength="98.0684" x="134.6357" y="495.6584">backend container</text><text fill="#000000" font-family="sans-serif" font-size="12" lengthAdjust="spacing" textLength="128.7129" x="134.6357" y="510.7522">Eclipse Temurin 21 JRE</text><text fill="#000000" font-family="sans-serif" font-size="12" lengthAdjust="spacing" textLength="86.7363" x="134.6357" y="525.8459">ports 8080:8080</text><line style="stroke:#2F4F4F;stroke-width:1;" x1="125.6357" x2="276.3623" y1="528.4826" y2="528.4826"/><text fill="#000000" font-family="sans-serif" font-size="12" lengthAdjust="spacing" textLength="102.7324" x="134.6357" y="544.9397">Spring Boot app.jar</text><text fill="#000000" font-family="sans-serif" font-size="12" lengthAdjust="spacing" textLength="132.7266" x="134.6357" y="560.0334">runtime config: stack.env</text></g><!--entity GHCR--><g class="entity" data-qualified-name="GHCR" data-source-line="27" id="ent0001"><path d="M14.4227,56.8877 C16.8171,49.3314 22.625,49.5444 27.2879,54.5678 C31.335,48.5605 36.0337,48.309 40.7175,53.8259 C43.9345,47.2291 49.3259,46.5574 54.223,51.9302 C58.3775,44.8225 64.0534,44.6094 69.148,50.8815 C73.6417,45.5339 77.321,45.3805 80.9611,51.7427 C85.9691,45.9198 92.2456,46.0098 95.6496,53.511 C101.0619,47.4825 105.4071,48.6451 108.7226,55.6192 C113.7228,48.9459 120.4285,50.3029 122.894,58.1014 C128.3545,59.8908 130.6539,64.2685 125.6559,68.7664 C130.8945,71.3837 131.7065,74.7698 128.2996,79.5138 C134.9201,81.2733 135.9913,85.4938 132.6464,91.0185 C136.3909,96.299 134.5015,100.277 128.5707,101.9503 C133.9981,107.514 132.2282,112.5605 124.731,114.0085 C128.9888,118.3006 128.5577,123.2165 122.0691,124.8764 C119.4569,131.6414 113.1863,132.0784 109.1348,126.3686 C105.0209,134.1722 99.2425,133.5112 94.8916,126.5979 C91.2735,134.067 86.4283,134.2342 81.6347,127.7117 C77.9048,134.0733 74.0395,135.5819 68.694,129.3751 C62.9924,136.1072 57.9507,133.9687 54.2456,127.2332 C49.7655,132.4031 45.3626,131.9532 41.6065,126.3811 C37.0415,132.3 32.816,133.3899 28.3386,126.2919 C22.912,132.12 18.1225,131.7115 14.3956,124.4775 C9.2505,122.6357 6.6327,117.3666 11.9725,113.2599 C6.9239,109.7117 6.3143,103.4953 13.0055,100.9308 C7.5128,99.0529 6.4267,93.9377 10.8172,90.0687 C6.3395,86.0628 6.611,82.3611 12.1872,79.6812 C6,75.6318 7.6177,71.9967 12.4068,68.1564 C7.1861,63.9541 7.8261,58.9759 14.4227,56.8877" fill="#F8FBFD" style="stroke:#708090;stroke-width:0.5;"/><text fill="#000000" font-family="sans-serif" font-size="14" lengthAdjust="spacing" textLength="41.2207" x="19.6357" y="77.7346">GHCR</text><text fill="#000000" font-family="sans-serif" font-size="14" lengthAdjust="spacing" textLength="94.9512" x="19.6357" y="95.344">backend image</text><text fill="#000000" font-family="sans-serif" font-size="14" lengthAdjust="spacing" textLength="93.3926" x="19.6357" y="112.9533">frontend image</text></g><!--entity Browser--><g class="entity" data-qualified-name="Browser" data-source-line="28" id="ent0002"><ellipse cx="262.0322" cy="59.2014" fill="#F1F1F1" rx="8" ry="8" style="stroke:#181818;stroke-width:0.5;"/><path d="M262.0322,67.2014 L262.0322,94.2014 M249.0322,75.2014 L275.0322,75.2014 M262.0322,94.2014 L249.0322,109.2014 M262.0322,94.2014 L275.0322,109.2014" fill="none" style="stroke:#181818;stroke-width:0.5;"/><text fill="#000000" font-family="sans-serif" font-size="14" lengthAdjust="spacing" textLength="84.793" x="219.6357" y="125.2346">User Browser</text></g><!--entity SQL--><g class="entity" data-qualified-name="SQL" data-source-line="36" id="ent0006"><path d="M21.6357,700.2014 C21.6357,690.2014 119.9731,690.2014 119.9731,690.2014 C119.9731,690.2014 218.3105,690.2014 218.3105,700.2014 L218.3105,744.4201 C218.3105,754.4201 119.9731,754.4201 119.9731,754.4201 C119.9731,754.4201 21.6357,754.4201 21.6357,744.4201 L21.6357,700.2014" fill="#F2F7FF" style="stroke:#2F4F4F;stroke-width:0.5;"/><path d="M21.6357,700.2014 C21.6357,710.2014 119.9731,710.2014 119.9731,710.2014 C119.9731,710.2014 218.3105,710.2014 218.3105,700.2014" fill="none" style="stroke:#2F4F4F;stroke-width:0.5;"/><text fill="#000000" font-family="sans-serif" font-size="14" lengthAdjust="spacing" textLength="128.3857" x="31.6357" y="728.7346">External SQL Server</text><text fill="#000000" font-family="sans-serif" font-size="14" lengthAdjust="spacing" textLength="176.6748" x="31.6357" y="746.344">not defined in repo compose</text></g><!--entity External--><g class="entity" data-qualified-name="External" data-source-line="37" id="ent0007"><path d="M271.7629,680.8155 C275.1358,674.94 281.8023,673.6458 285.8634,680.0236 C290.7989,671.4385 295.7286,671.2253 302.13,678.5222 C307.8231,669.6514 313.8906,669.7185 319.204,678.8816 C323.128,670.9847 331.0615,669.1244 336.1701,677.6584 C340.8026,667.8863 346.8222,667.0451 353.8392,675.3245 C358.4034,667.042 364.243,666.4969 369.9003,674.228 C375.4701,667.3716 382.4859,666.0034 387.2515,675.1026 C394.001,669.4846 398.9503,669.9359 402.9951,678.1754 C406.9007,671.0245 413.8121,670.5741 417.8819,678.0078 C423.8548,668.7868 429.1807,671.17 434.9758,678.1948 C440.9932,671.2371 447.3817,671.5246 452.2957,679.4765 C462.4171,670.6232 471.3634,674.6321 473.7832,687.2014 C474.4702,686.3212 475.268,686.4678 475.8096,687.367 C485.3808,690.5221 487.49,697.6106 480.3241,705.0408 C491.7675,706.5784 494.6278,714.3882 488.3509,723.5928 C493.0892,732.7532 491.5224,739.5837 480.2561,741.5158 C489.1769,754.8903 479.965,764.1428 466.7832,764.6389 C467.4139,764.1306 467.8169,764.263 468.1232,764.9906 C464.0409,773.0084 458.5493,773.4892 452.3619,767.331 C447.3126,774.3923 438.4039,775.4872 434.4325,766.1523 C429.9764,775.4397 424.2646,775.8207 417.7308,768.2053 C412.5227,776.1585 407.0887,776.5875 401.1405,768.995 C397.1311,777.1774 390.1284,778.3571 384.8742,770.2371 C381.1959,778.2531 375.3351,778.8909 370.0391,771.8287 C364.3591,778.7121 355.3274,778.0365 351.7169,769.3875 C348.2966,777.4869 341.4104,775.9941 337.2898,770.11 C332.7458,777.5348 325.4209,777.0084 321.2691,769.684 C315.2622,779.0245 306.8893,777.0888 302.5921,767.9556 C296.7934,774.3213 290.8549,774.4051 286.5615,766.2892 C276.8394,774.0184 263.8279,772.5838 262.1357,757.6389 C263.0704,757.0663 263.6559,757.5357 263.8039,758.4953 C255.6451,755.4553 252.5955,750.3046 258.4847,742.5718 C248.6096,738.9658 244.3614,732.8921 252.291,723.5029 C247.0592,715.9531 247.3648,709.0364 258.036,707.0342 C246.7221,694.1916 252.3613,681.425 269.1357,680.2014 C270.2699,679.0634 271.2136,679.4512 271.7629,680.8155" fill="#F8FBFD" style="stroke:#708090;stroke-width:0.5;"/><text fill="#000000" font-family="sans-serif" font-size="14" lengthAdjust="spacing" textLength="106.5928" x="269.1357" y="701.7346">External services</text><text fill="#000000" font-family="sans-serif" font-size="14" lengthAdjust="spacing" textLength="171.9512" x="269.1357" y="719.344">RabbitMQ / MinIO / Resend</text><text fill="#000000" font-family="sans-serif" font-size="14" lengthAdjust="spacing" textLength="197.6475" x="269.1357" y="736.9533">AI provider / embedding-service</text><text fill="#000000" font-family="sans-serif" font-size="14" lengthAdjust="spacing" textLength="176.6748" x="269.1357" y="754.5627">not defined in repo compose</text></g><g class="entity" data-qualified-name="GMN13" data-source-line="46" id="ent0014"><path d="M194.1357,833.2014 L194.1357,892.2561 A0,0 0 0 0 194.1357,892.2561 L542.4209,892.2561 A0,0 0 0 0 542.4209,892.2561 L542.4209,843.2014 L532.4209,833.2014 L372.1357,833.2014 L368.1357,772.4214 L364.1357,833.2014 L194.1357,833.2014 A0,0 0 0 0 194.1357,833.2014" fill="#FEFFDD" style="stroke:#181818;stroke-width:0.5;"/><path d="M532.4209,833.2014 L532.4209,843.2014 L542.4209,843.2014 L532.4209,833.2014" fill="#FEFFDD" style="stroke:#181818;stroke-width:0.5;"/><text fill="#000000" font-family="sans-serif" font-size="13" lengthAdjust="spacing" textLength="310.7495" x="200.1357" y="851.6965">Compose trong repository &#273;&#243;ng g&#243;i frontend/backend.</text><text fill="#000000" font-family="sans-serif" font-size="13" lengthAdjust="spacing" textLength="327.2852" x="200.1357" y="868.0481">SQL Server, RabbitMQ, MinIO, AI provider v&#224; monitoring</text><text fill="#000000" font-family="sans-serif" font-size="13" lengthAdjust="spacing" textLength="325.9268" x="200.1357" y="884.3996">n&#7857;m ngo&#224;i compose n&#224;y ho&#7863;c thu&#7897;c stack/h&#7841; t&#7847;ng ri&#234;ng.</text></g><!--link GHCR to Compose--><g class="link" data-entity-1="ent0001" data-entity-2="ent0003" data-link-type="dependency" data-source-line="39" id="lnk8"><path d="M65.4057,131.3014 C64.7457,146.9714 64.1357,161.2014 64.1357,161.2014 C64.1357,161.2014 64.1357,179.2014 64.1357,179.2014 C64.1357,179.2014 72.8557,212.9939 81.712,247.3151 C83.926,255.8954 86.1486,264.5088 88.2456,272.6355 C89.2941,276.6988 90.3111,280.6404 91.2801,284.3955 C91.5223,285.3342 90.5123,281.4199 90.7482,282.3343" fill="none" id="GHCR-to-Compose" style="stroke:#333333;stroke-width:1;"/><polygon fill="#333333" points="91.9975,287.1757,93.622,277.4617,90.7482,282.3343,85.8757,279.4605,91.9975,287.1757" style="stroke:#333333;stroke-width:1;stroke-linejoin:miter;stroke-miterlimit:10;"/><text fill="#000000" font-family="sans-serif" font-size="13" lengthAdjust="spacing" textLength="153.918" x="65.1357" y="175.6965">images pulled by compose</text></g><!--link Browser to Frontend--><g class="link" data-entity-1="ent0002" data-entity-2="ent0004" data-link-type="dependency" data-source-line="40" id="lnk9"><path d="M256.4457,128.8614 C251.1157,164.6114 243.8028,213.626 237.6528,254.886" fill="none" id="Browser-to-Frontend" style="stroke:#333333;stroke-width:1;"/><polygon fill="#333333" points="236.9157,259.8314,242.1988,251.5194,237.6528,254.886,234.2863,250.34,236.9157,259.8314" style="stroke:#333333;stroke-width:1;stroke-linejoin:miter;stroke-miterlimit:10;"/><text fill="#000000" font-family="sans-serif" font-size="13" lengthAdjust="spacing" textLength="55.6245" x="252.1357" y="175.6965">HTTP :80</text></g><!--link Frontend to Backend--><g class="link" data-entity-1="ent0004" data-entity-2="ent0005" data-link-type="dependency" data-source-line="41" id="lnk10"><path d="M220.3257,379.4214 C216.3857,409.0414 212.3152,439.6651 208.5352,468.0751" fill="none" id="Frontend-to-Backend" style="stroke:#333333;stroke-width:1;"/><polygon fill="#333333" points="207.8757,473.0314,213.0278,464.6376,208.5352,468.0751,205.0977,463.5824,207.8757,473.0314" style="stroke:#333333;stroke-width:1;stroke-linejoin:miter;stroke-miterlimit:10;"/><text fill="#000000" font-family="sans-serif" font-size="13" lengthAdjust="spacing" textLength="56.3608" x="270.5261" y="423.6965">/api proxy</text><text fill="#000000" font-family="sans-serif" font-size="13" lengthAdjust="spacing" textLength="161.1416" x="218.1357" y="440.0481">Docker DNS: backend:8080</text></g><!--link Backend to SQL--><g class="link" data-entity-1="ent0005" data-entity-2="ent0006" data-link-type="dependency" data-source-line="42" id="lnk11"><path d="M180.1757,576.3014 C165.2657,612.2814 147.629,654.8419 134.959,685.4319" fill="none" id="Backend-to-SQL" style="stroke:#333333;stroke-width:1;"/><polygon fill="#333333" points="133.0457,690.0514,140.1852,683.267,134.959,685.4319,132.7941,680.2057,133.0457,690.0514" style="stroke:#333333;stroke-width:1;stroke-linejoin:miter;stroke-miterlimit:10;"/><text fill="#000000" font-family="sans-serif" font-size="13" lengthAdjust="spacing" textLength="33.9473" x="160.1357" y="638.6965">JDBC</text></g><!--link Backend to External--><g class="link" data-entity-1="ent0005" data-entity-2="ent0007" data-link-type="dependency" data-source-line="43" id="lnk12"><path d="M244.3557,576.3014 C269.5857,605.8314 298.0079,639.1099 322.9979,668.3599" fill="none" id="Backend-to-External" style="stroke:#333333;stroke-width:1;"/><polygon fill="#333333" points="326.2457,672.1614,323.4408,662.7204,322.9979,668.3599,317.3584,667.9169,326.2457,672.1614" style="stroke:#333333;stroke-width:1;stroke-linejoin:miter;stroke-miterlimit:10;"/><text fill="#000000" font-family="sans-serif" font-size="13" lengthAdjust="spacing" textLength="50.5908" x="300.1357" y="638.6965">adapters</text></g><?plantuml-src XLIvRjj04EttAmPAQqcsKrXG4K27wGEnOqjEHo1OaYjgOt9siLpPfeDyHCfqJXKWNU0YW58gFw8_oImFYKvWc8t4ETwyUVCaAsqYOAJGSed2o7jkfK8OInuRdZ9cbGQh853MgXGYQKJe2bXsBL5pAe5ipYDrAp666KyoqSWaX6XpBK2h97SlZPpcuJMFnTJcDDw1SeoJPi4c1fyOq3EaXjYe1KOZbIW3hmvxte4tA7FAHCAKyJ4trzE4Mt5aU5vaFLfkAky5xEsppuq9OQ8MqNFeNiyRUkF_qBV8JQI8Mnxmx5cgtZvHzLwWsWGS6ADkg-RNnSDOIRTrT3oQ-1ZG284Ho9H4z75cQCVDUmju1gwEyT0IHEjz9WmC2P8-YsJrdR6jogr84QHfXohLAXETF4ryv5gtwOQtobpt8J0ogi17PL6rRmDaGoIi7UNZUIpn3lOw-mSmI3J5VDJAs0nwk_tUhezjUdmaEZSYWuaWpZ2z693NCkkZDVc7cKmeqtu34YDnrvbRHqqRTPT3bslfCfKUXDVRBHXw5H7sByDQkGR1mp2HchQv4kd2I8JzFJYT76vP5ZotJAVQEBSFbR900dK-Si8m2xGo5Gvs9kC-P9RcT0JUb7gNG-d6REELrk6T5GPv0jFBjp1rwnCE4cWaPaICZeb4N2keJb8WKMtjX4s_aqw68lDnmeD0shDBwCAPn9Dtz3aH6KtsSN029DcD9FTHLAI1Y29Qerqrlpov7iUOinQqIVNQ1ltITndeHP9GUv3NdQnoMb5UtuJgZw-kBe1KPPkOAwXaednnr-B4FeuBOyBuVDf_ScTMbxjMfs4VJiV3qPFmHgC-y8XhUiaOeqr5zO_6wXKiyOYBfJD9lvaS_dnPFL8aNZrAg5tThSPtsFPaEr2BlbDglWDDgMzM3v0gT9YaDiFrycSA6AlLWwmr0bmzv31Nw-Ml4EnyiVxzDIpzqvslbz_0hfVV7JUv-e5nXxdLt0RiBm00?></g></svg>