<svg xmlns="http://www.w3.org/2000/svg" xmlns:xlink="http://www.w3.org/1999/xlink" contentStyleType="text/css" data-diagram-type="DESCRIPTION" height="429px" preserveAspectRatio="none" style="width:1877px;height:429px;background:#FFFFFF;" version="1.1" viewBox="0 0 1877 429" width="1877px" zoomAndPan="magnify"><?plantuml 1.2026.4?><defs/><g><g class="title" data-source-line="5"><text fill="#000000" font-family="sans-serif" font-size="14" font-weight="700" lengthAdjust="spacing" textLength="206.9238" x="831.7874" y="24.5332">Frontend Architecture Diagram</text></g><!--cluster React SPA--><g class="cluster" data-qualified-name="React SPA" data-source-line="31" id="ent0003"><rect fill="#F8FBFD" height="370" rx="2.5" ry="2.5" style="stroke:#708090;stroke-width:1;" width="1116" x="252" y="45.6094"/><text fill="#000000" font-family="sans-serif" font-size="12" font-weight="700" lengthAdjust="spacing" textLength="60.6914" x="779.6543" y="60.0664">React SPA</text></g><!--entity App--><g class="entity" data-qualified-name="React SPA.App" data-source-line="32" id="ent0004"><rect fill="#E8F7FA" height="65.2813" rx="2.5" ry="2.5" style="stroke:#2F4F4F;stroke-width:0.5;" width="185.416" x="268" y="207.1094"/><text fill="#000000" font-family="sans-serif" font-size="12" lengthAdjust="spacing" textLength="40.0195" x="278" y="229.5664">App.tsx</text><text fill="#000000" font-family="sans-serif" font-size="12" lengthAdjust="spacing" textLength="102.0293" x="278" y="244.6602">React Router DOM</text><text fill="#000000" font-family="sans-serif" font-size="12" lengthAdjust="spacing" textLength="165.416" x="278" y="259.7539">Public / Protected / Role routes</text></g><!--entity Providers--><g class="entity" data-qualified-name="React SPA.Providers" data-source-line="34" id="ent0005"><rect fill="#E8F7FA" height="73.2813" rx="2.5" ry="2.5" style="stroke:#2F4F4F;stroke-width:0.5;" width="124.0449" x="607" y="326.1094"/><text fill="#000000" font-family="sans-serif" font-size="12" lengthAdjust="spacing" textLength="50.6836" x="617" y="348.5664">Providers</text><line style="stroke:#2F4F4F;stroke-width:1;" x1="608" x2="730.0449" y1="351.2031" y2="351.2031"/><text fill="#000000" font-family="sans-serif" font-size="12" lengthAdjust="spacing" textLength="69.3691" x="617" y="367.6602">AuthProvider</text><text fill="#000000" font-family="sans-serif" font-size="12" lengthAdjust="spacing" textLength="104.0449" x="617" y="382.7539">NotificationProvider</text></g><!--entity Guards--><g class="entity" data-qualified-name="React SPA.Guards" data-source-line="36" id="ent0006"><rect fill="#E8F7FA" height="103.4688" rx="2.5" ry="2.5" style="stroke:#2F4F4F;stroke-width:0.5;" width="109.3789" x="614.5" y="188.1094"/><text fill="#000000" font-family="sans-serif" font-size="12" lengthAdjust="spacing" textLength="74.707" x="624.5" y="210.5664">Route Guards</text><line style="stroke:#2F4F4F;stroke-width:1;" x1="615.5" x2="722.8789" y1="213.2031" y2="213.2031"/><text fill="#000000" font-family="sans-serif" font-size="12" lengthAdjust="spacing" textLength="89.3789" x="624.5" y="229.6602">PublicOnlyRoute</text><text fill="#000000" font-family="sans-serif" font-size="12" lengthAdjust="spacing" textLength="83.3848" x="624.5" y="244.7539">ProtectedRoute</text><text fill="#000000" font-family="sans-serif" font-size="12" lengthAdjust="spacing" textLength="66.0352" x="624.5" y="259.8477">AdminRoute</text><text fill="#000000" font-family="sans-serif" font-size="12" lengthAdjust="spacing" textLength="56.7012" x="624.5" y="274.9414">RoleRoute</text></g><!--entity Features--><g class="entity" data-qualified-name="React SPA.Features" data-source-line="38" id="ent0007"><rect fill="#E8F7FA" height="103.4688" rx="2.5" ry="2.5" style="stroke:#2F4F4F;stroke-width:0.5;" width="182.0469" x="883" y="194.1094"/><text fill="#000000" font-family="sans-serif" font-size="12" lengthAdjust="spacing" textLength="90.0469" x="893" y="216.5664">Feature Modules</text><text fill="#000000" font-family="sans-serif" font-size="12" lengthAdjust="spacing" textLength="110.0566" x="893" y="231.6602">frontend/src/features</text><line style="stroke:#2F4F4F;stroke-width:1;" x1="884" x2="1064.0469" y1="234.2969" y2="234.2969"/><text fill="#000000" font-family="sans-serif" font-size="12" lengthAdjust="spacing" textLength="135.4336" x="893" y="250.7539">auth, dashboard, account</text><text fill="#000000" font-family="sans-serif" font-size="12" lengthAdjust="spacing" textLength="162.0469" x="893" y="265.8477">admin, surveys, survey-results</text><text fill="#000000" font-family="sans-serif" font-size="12" lengthAdjust="spacing" textLength="118.7402" x="893" y="280.9414">feedback, notifications</text></g><!--entity Api--><g class="entity" data-qualified-name="React SPA.Api" data-source-line="40" id="ent0008"><rect fill="#E8F7FA" height="118.5625" rx="2.5" ry="2.5" style="stroke:#2F4F4F;stroke-width:0.5;" width="121.373" x="1231" y="190.1094"/><text fill="#000000" font-family="sans-serif" font-size="12" lengthAdjust="spacing" textLength="52.6934" x="1241" y="212.5664">API Layer</text><text fill="#000000" font-family="sans-serif" font-size="12" lengthAdjust="spacing" textLength="82.7109" x="1241" y="227.6602">frontend/src/api</text><line style="stroke:#2F4F4F;stroke-width:1;" x1="1232" x2="1351.373" y1="230.2969" y2="230.2969"/><text fill="#000000" font-family="sans-serif" font-size="12" lengthAdjust="spacing" textLength="101.373" x="1241" y="246.7539">Domain API clients</text><text fill="#000000" font-family="sans-serif" font-size="12" lengthAdjust="spacing" textLength="89.373" x="1241" y="261.8477">Axios interceptor</text><text fill="#000000" font-family="sans-serif" font-size="12" lengthAdjust="spacing" textLength="68.707" x="1241" y="276.9414">Bearer token</text><text fill="#000000" font-family="sans-serif" font-size="12" lengthAdjust="spacing" textLength="93.3867" x="1241" y="292.0352">401 session clear</text></g><!--entity Ui--><g class="entity" data-qualified-name="React SPA.Ui" data-source-line="42" id="ent0009"><rect fill="#E8F7FA" height="73.2813" rx="2.5" ry="2.5" style="stroke:#2F4F4F;stroke-width:0.5;" width="138.0664" x="600" y="80.1094"/><text fill="#000000" font-family="sans-serif" font-size="12" lengthAdjust="spacing" textLength="75.3809" x="610" y="102.5664">UI Foundation</text><line style="stroke:#2F4F4F;stroke-width:1;" x1="601" x2="737.0664" y1="105.2031" y2="105.2031"/><text fill="#000000" font-family="sans-serif" font-size="12" lengthAdjust="spacing" textLength="82.0313" x="610" y="121.6602">Tailwind CSS 4</text><text fill="#000000" font-family="sans-serif" font-size="12" lengthAdjust="spacing" textLength="118.0664" x="610" y="136.7539">i18next / react-i18next</text></g><!--entity User--><g class="entity" data-qualified-name="User" data-source-line="27" id="ent0001"><ellipse cx="60.2793" cy="160.1094" fill="#F1F1F1" rx="8" ry="8" style="stroke:#181818;stroke-width:0.5;"/><path d="M60.2793,168.1094 L60.2793,195.1094 M47.2793,176.1094 L73.2793,176.1094 M60.2793,195.1094 L47.2793,210.1094 M60.2793,195.1094 L73.2793,210.1094" fill="none" style="stroke:#181818;stroke-width:0.5;"/><text fill="#000000" font-family="sans-serif" font-size="14" lengthAdjust="spacing" textLength="29.5586" x="45.5" y="226.1426">User</text></g><!--entity Main--><g class="entity" data-qualified-name="Main" data-source-line="29" id="ent0002"><rect fill="#E8F7FA" height="50.1875" rx="2.5" ry="2.5" style="stroke:#2F4F4F;stroke-width:0.5;" width="107.3809" x="7" y="264.6094"/><text fill="#000000" font-family="sans-serif" font-size="12" lengthAdjust="spacing" textLength="44.6777" x="17" y="287.0664">main.tsx</text><text fill="#000000" font-family="sans-serif" font-size="12" lengthAdjust="spacing" textLength="87.3809" x="17" y="302.1602">React entrypoint</text></g><!--entity LocalStorage--><g class="entity" data-qualified-name="LocalStorage" data-source-line="45" id="ent0010"><path d="M1584,126.6094 C1584,116.6094 1689.3374,116.6094 1689.3374,116.6094 C1689.3374,116.6094 1794.6748,116.6094 1794.6748,126.6094 L1794.6748,170.8281 C1794.6748,180.8281 1689.3374,180.8281 1689.3374,180.8281 C1689.3374,180.8281 1584,180.8281 1584,170.8281 L1584,126.6094" fill="#FFF7E6" style="stroke:#2F4F4F;stroke-width:0.5;"/><path d="M1584,126.6094 C1584,136.6094 1689.3374,136.6094 1689.3374,136.6094 C1689.3374,136.6094 1794.6748,136.6094 1794.6748,126.6094" fill="none" style="stroke:#2F4F4F;stroke-width:0.5;"/><text fill="#000000" font-family="sans-serif" font-size="14" lengthAdjust="spacing" textLength="77.8271" x="1594" y="155.1426">localStorage</text><text fill="#000000" font-family="sans-serif" font-size="14" lengthAdjust="spacing" textLength="190.6748" x="1594" y="172.752">student-feedback.auth-session</text></g><!--entity Backend--><g class="entity" data-qualified-name="Backend" data-source-line="46" id="ent0011"><path d="M1580.8041,326.9784 C1585.6039,319.3044 1591.4712,317.7809 1597.5935,325.5395 C1600.6104,317.609 1608.3038,316.6736 1613.8156,322.6238 C1617.4606,314.0548 1624.3638,314.7504 1629.2413,321.3721 C1633.7354,314.2994 1638.8384,315.8963 1642.9912,321.7354 C1647.4623,313.0625 1654.5579,311.2215 1660.8945,319.7994 C1664.4985,311.7332 1669.5652,310.7088 1675.1656,317.9363 C1678.6197,307.4496 1684.8158,308.3872 1692.0394,313.9809 C1697.4581,308.8798 1703.7245,309.5873 1706.3199,317.1616 C1712.0648,310.0936 1716.4497,311.3236 1720.8563,318.5249 C1727.9254,310.175 1733.2303,311.4124 1737.7608,320.927 C1743.3742,312.9572 1750.1766,315.0234 1754.6499,322.1984 C1759.7055,316.6899 1767.4913,317.2306 1770.0876,325.0475 C1775.7702,319.3443 1781.472,318.4147 1785.6325,326.7348 C1790.1991,320.7176 1795.7671,321.0592 1799.2757,327.8609 C1813.8599,329.9429 1819.1956,342.1892 1807.926,353.1238 C1816.6432,364.4239 1813.8624,373.8663 1799.6397,377.3057 C1795.6657,384.4527 1789.6819,383.722 1785.8602,377.1527 C1781.8402,385.9925 1774.307,386.4488 1769.3032,378.1004 C1765.611,387.225 1758.0058,387.7762 1753.1351,379.1752 C1749.6908,385.6152 1742.7736,387.5359 1738.3773,380.1947 C1733.0917,388.6386 1727.1397,388.1497 1720.9189,381.2596 C1716.886,388.5773 1710.4298,389.1415 1705.6527,382.048 C1700.0635,388.672 1694.2736,388.6643 1690.0391,380.6074 C1687.3689,388.0105 1680.8402,388.9082 1676.5067,382.2028 C1670.6943,390.684 1664.3514,389.5488 1659.4376,381.2867 C1654.1995,388.4748 1648.7977,387.7639 1644.0232,380.7823 C1638.4477,387.8607 1631.987,385.5887 1628.5864,378.425 C1622.6639,385.0887 1616.161,387.0292 1611.3549,377.2548 C1606.7412,384.8631 1602.2178,385.5121 1596.7295,378.1067 C1590.9869,384.7864 1584.4245,384.9505 1580.0729,376.5684 C1568.111,371.2269 1564.1116,362.8131 1573.8526,351.9811 C1563.114,340.6325 1567.2816,331.5816 1580.8041,326.9784" fill="#F1F1F1" style="stroke:#181818;stroke-width:0.5;"/><text fill="#000000" font-family="sans-serif" font-size="14" lengthAdjust="spacing" textLength="131.5303" x="1587" y="347.6426">Spring Boot Backend</text><text fill="#000000" font-family="sans-serif" font-size="14" lengthAdjust="spacing" textLength="205.0029" x="1587" y="365.252">REST API + WebSocket/STOMP</text></g><g class="entity" data-qualified-name="GMN23" data-source-line="61" id="ent0024"><path d="M1517,216.1094 L1517,258.8125 L1862.4985,258.8125 L1862.4985,226.1094 L1852.4985,216.1094 L1517,216.1094" fill="#FEFFDD" style="stroke:#181818;stroke-width:0.5;"/><path d="M1852.4985,216.1094 L1852.4985,226.1094 L1862.4985,226.1094 L1852.4985,216.1094" fill="#FEFFDD" style="stroke:#181818;stroke-width:1;"/><text fill="#000000" font-family="sans-serif" font-size="13" lengthAdjust="spacing" textLength="209.606" x="1523" y="234.6045">Session hi&#7879;n l&#432;u trong localStorage.</text><text fill="#000000" font-family="sans-serif" font-size="13" lengthAdjust="spacing" textLength="324.4985" x="1523" y="250.9561">&#272;i&#7875;m n&#224;y ti&#7879;n cho SPA nh&#432;ng c&#7847;n hardening XSS/CSP.</text></g><!--link User to App--><g class="link" data-entity-1="ent0001" data-entity-2="ent0004" data-link-type="dependency" data-source-line="48" id="lnk12"><path d="M75.87,192.9694 C110.11,198.5994 193.8662,212.3784 263.0362,223.7484" fill="none" id="User-to-App" style="stroke:#333333;stroke-width:1;"/><polygon fill="#333333" points="267.97,224.5594,259.738,219.1525,263.0362,223.7484,258.4404,227.0466,267.97,224.5594" style="stroke:#333333;stroke-width:1;stroke-linejoin:miter;stroke-miterlimit:10;"/><text fill="#000000" font-family="sans-serif" font-size="13" lengthAdjust="spacing" textLength="90.3335" x="145" y="202.1045">navigate/use UI</text></g><!--link Main to App--><g class="link" data-entity-1="ent0002" data-entity-2="ent0004" data-link-type="dependency" data-source-line="49" id="lnk13"><path d="M114.09,280.7894 C156.61,273.6494 212.5691,264.2677 263.0491,255.7877" fill="none" id="Main-to-App" style="stroke:#333333;stroke-width:1;"/><polygon fill="#333333" points="267.98,254.9594,258.4417,252.5056,263.0491,255.7877,259.767,260.3951,267.98,254.9594" style="stroke:#333333;stroke-width:1;stroke-linejoin:miter;stroke-miterlimit:10;"/><text fill="#000000" font-family="sans-serif" font-size="13" lengthAdjust="spacing" textLength="37.5781" x="171.5" y="259.1045">render</text></g><!--link App to Providers--><g class="link" data-entity-1="ent0004" data-entity-2="ent0005" data-link-type="dependency" data-source-line="50" id="lnk14"><path d="M442.83,272.2494 C494.26,292.8894 555.0297,317.2773 602.0797,336.1573" fill="none" id="App-to-Providers" style="stroke:#333333;stroke-width:1;"/><polygon fill="#333333" points="606.72,338.0194,599.857,330.9554,602.0797,336.1573,596.8777,338.38,606.72,338.0194" style="stroke:#333333;stroke-width:1;stroke-linejoin:miter;stroke-miterlimit:10;"/><text fill="#000000" font-family="sans-serif" font-size="13" lengthAdjust="spacing" textLength="85.2744" x="484" y="287.1045">wrap app state</text></g><!--link App to Guards--><g class="link" data-entity-1="ent0004" data-entity-2="ent0006" data-link-type="dependency" data-source-line="51" id="lnk15"><path d="M453.04,239.6094 C505.61,239.6094 564.81,239.6094 609.28,239.6094" fill="none" id="App-to-Guards" style="stroke:#333333;stroke-width:1;"/><polygon fill="#333333" points="614.28,239.6094,605.28,235.6094,609.28,239.6094,605.28,243.6094,614.28,239.6094" style="stroke:#333333;stroke-width:1;stroke-linejoin:miter;stroke-miterlimit:10;"/><text fill="#000000" font-family="sans-serif" font-size="13" lengthAdjust="spacing" textLength="79.4854" x="487" y="236.1045">protect routes</text></g><!--link Guards to Features--><g class="link" data-entity-1="ent0006" data-entity-2="ent0007" data-link-type="dependency" data-source-line="52" id="lnk16"><path d="M723.82,240.6794 C767.87,241.5494 826.111,242.6999 877.861,243.7299" fill="none" id="Guards-to-Features" style="stroke:#333333;stroke-width:1;"/><polygon fill="#333333" points="882.86,243.8294,873.9414,239.6511,877.861,243.7299,873.7822,247.6495,882.86,243.8294" style="stroke:#333333;stroke-width:1;stroke-linejoin:miter;stroke-miterlimit:10;"/><text fill="#000000" font-family="sans-serif" font-size="13" lengthAdjust="spacing" textLength="83.1162" x="769" y="238.1045">route to pages</text></g><!--link Features to Api--><g class="link" data-entity-1="ent0007" data-entity-2="ent0008" data-link-type="dependency" data-source-line="53" id="lnk17"><path d="M1065.41,246.7594 C1118.58,247.4294 1179.3104,248.1951 1225.9904,248.7951" fill="none" id="Features-to-Api" style="stroke:#333333;stroke-width:1;"/><polygon fill="#333333" points="1230.99,248.8594,1222.0422,244.744,1225.9904,248.7951,1221.9393,252.7434,1230.99,248.8594" style="stroke:#333333;stroke-width:1;stroke-linejoin:miter;stroke-miterlimit:10;"/><text fill="#000000" font-family="sans-serif" font-size="13" lengthAdjust="spacing" textLength="103.3335" x="1096.5" y="244.1045">call backend APIs</text></g><!--link Api to Backend--><g class="link" data-entity-1="ent0008" data-entity-2="ent0011" data-link-type="dependency" data-source-line="54" id="lnk18"><path d="M1352.21,264.8394 C1410.12,279.6094 1494.695,301.1839 1566.775,319.5639" fill="none" id="Api-to-Backend" style="stroke:#333333;stroke-width:1;"/><polygon fill="#333333" points="1571.62,320.7994,1563.8874,314.6996,1566.775,319.5639,1561.9107,322.4516,1571.62,320.7994" style="stroke:#333333;stroke-width:1;stroke-linejoin:miter;stroke-miterlimit:10;"/><text fill="#000000" font-family="sans-serif" font-size="13" lengthAdjust="spacing" textLength="59.2427" x="1406" y="271.1045">REST /api</text></g><!--link Providers to Backend--><g class="link" data-entity-1="ent0005" data-entity-2="ent0011" data-link-type="dependency" data-source-line="55" id="lnk19"><path d="M736.0397,361.8304 C901.3797,359.8804 1349.9803,354.5984 1566.9203,352.0384" fill="none" id="Providers-Backend" style="stroke:#333333;stroke-width:1;"/><polygon fill="#333333" points="731.04,361.8894,740.0865,365.783,736.0397,361.8304,739.9922,357.7835,731.04,361.8894" style="stroke:#333333;stroke-width:1;stroke-linejoin:miter;stroke-miterlimit:10;"/><polygon fill="#333333" points="1571.92,351.9794,1562.8734,348.0859,1566.9203,352.0384,1562.9678,356.0853,1571.92,351.9794" style="stroke:#333333;stroke-width:1;stroke-linejoin:miter;stroke-miterlimit:10;"/><text fill="#000000" font-family="sans-serif" font-size="13" lengthAdjust="spacing" textLength="93.9072" x="1101.5" y="337.1045">STOMP/SockJS</text><text fill="#000000" font-family="sans-serif" font-size="13" lengthAdjust="spacing" textLength="68.6499" x="1114.1287" y="353.4561">notifications</text></g><!--link Providers to LocalStorage--><g class="link" data-entity-1="ent0005" data-entity-2="ent0010" data-link-type="dependency" data-source-line="56" id="lnk20"><path d="M716.11,325.9894 C728.24,316.3594 738,308.6094 738,308.6094 C738,308.6094 768,215.6094 768,215.6094 C768,215.6094 883,176.6094 883,176.6094 C883,176.6094 1360.463,160.013 1578.613,152.433" fill="none" id="Providers-to-LocalStorage" style="stroke:#333333;stroke-width:1;"/><polygon fill="#333333" points="1583.61,152.2594,1574.4765,148.5743,1578.613,152.433,1574.7543,156.5695,1583.61,152.2594" style="stroke:#333333;stroke-width:1;stroke-linejoin:miter;stroke-miterlimit:10;"/><text fill="#000000" font-family="sans-serif" font-size="13" lengthAdjust="spacing" textLength="104.7681" x="1096" y="163.1045">read/write session</text></g><!--link Api to LocalStorage--><g class="link" data-entity-1="ent0008" data-entity-2="ent0010" data-link-type="dependency" data-source-line="57" id="lnk21"><path d="M1352.21,234.3794 C1413.47,218.7594 1505.145,195.3749 1579.105,176.5149" fill="none" id="Api-to-LocalStorage" style="stroke:#333333;stroke-width:1;"/><polygon fill="#333333" points="1583.95,175.2794,1574.2407,173.6273,1579.105,176.5149,1576.2175,181.3792,1583.95,175.2794" style="stroke:#333333;stroke-width:1;stroke-linejoin:miter;stroke-miterlimit:10;"/><text fill="#000000" font-family="sans-serif" font-size="13" lengthAdjust="spacing" textLength="101.1499" x="1385" y="199.1045">attach JWT token</text></g><!--link App to Ui--><g class="link" data-entity-1="ent0004" data-entity-2="ent0009" data-link-type="dependency" data-source-line="58" id="lnk22"><path d="M442.83,206.9694 C491.78,187.3294 548.7495,164.461 595.1395,145.851" fill="none" id="App-to-Ui" style="stroke:#333333;stroke-width:1;stroke-dasharray:7,7;"/><polygon fill="#333333" points="599.78,143.9894,589.9378,143.6279,595.1395,145.851,592.9164,151.0527,599.78,143.9894" style="stroke:#333333;stroke-width:1;stroke-linejoin:miter;stroke-miterlimit:10;"/><text fill="#000000" font-family="sans-serif" font-size="13" lengthAdjust="spacing" textLength="62.1436" x="495.5" y="153.1045">style / i18n</text></g><!--link LocalStorage to GMN23--><g class="link" data-entity-1="ent0010" data-entity-2="ent0024" data-link-type="association" data-source-line="61" id="lnk25"><path d="M1689.5,181.0094 C1689.5,188.3594 1689.5,207.9394 1689.5,207.9394 C1689.5,207.9394 1689.5,211.4494 1689.5,216.0494" fill="none" id="LocalStorage-GMN23" style="stroke:#333333;stroke-width:1;stroke-dasharray:7,7;"/></g><?plantuml-src XLLDRzGm4BtxLuoM8zqD1GGLGaZfHr0HfQkc5HnoyIRUZLMl7TbEsu0uSU3AJ-36bJCSGVmF_WappWTP5aHEjkVDy_FuZUEbLm8IQxGNke3OvgNq8lUr5N0e-ShoDMDAB3ru0rQkIW-5j0YGHZDtANN54GAkv8Mvbde5IwwS64MKrC8tbO3Ag8OcerZ5yqk-4gblK0EHShrIOy2m1cyOuBUF2IjhQbqS66Kit3hQInucSHipjX2sNJ_azZ9Lt8kdbZSXck01K_bQmEvTzdPRmh_uaxraFpdSulyBTpZ3mgXYWxxWdY-u-pT_aZmyUl0V_MF2s5fptINV2nzZFFSudLmuOIV07T20iT-rcwovr3FlRZ9z9X0CGdlRL4Pg7_0d66QihyIanQJpUDAf7Z75LJKcEZEr5oZtz2JJytgXP0uHpAqX1ua2nsU6RfPGBco5-UnFJiHVIJowo_GKlqp7jI_xnKo_C5ukPSx9SVrgu1hojXY3B7XQSriCfAsyKwsQ4Ctq8BERnyLQwcvCiiCmRDGIRUsI21xQvCGKjHAuqRBheiZPF5gsqM5_ZeVQGJ-uSc6GRWTudgCHF4PeunrmjRqIZUi7KyojbITQ8Oe5NiuEw54fsdfs6hR5nVDZUCuRAk26B5x9Nj6X8Ly08NCbqHEuLtmZZGCqXh2vgD1McTuNtE8TUtCfTARltza59vn31PY5eUvQvPQ2YsDi37HwKDllUSwbmcUYW8CqXVkPbhjxMjnuT8ebGqsxUMjZYSvdGmTDbCcvIb4JkZJJpjS5QfxsrPbHWQUTj93_V8HdkJ9r0PEqilH8xHlZGpDYMV2sZzBpK8RRy58iKeFBFahFJq_cWQV3CKPz1TFf4t8nF0BDh-GAUpIgKTt5CQCs6eKjvc0VqeGM1xTYwDho2ZW6dCVy0TBw3EDLQyskSLYtJf3-lea_c1nVvGhFvzWGQHL8HE3n5InQzNG-nsYTujsH41FEJgvWlmK-teI4IaHKbcTffZSyE4gYd775GmLu4LrR_9_qbXa4_87atlEyX6SlprkVXPBCPa_G0nXruMsDWCp160gWXzPximQptBpbj7DcANz-VQz1_VXSWqVxhs1idXdx_W41xzQWltrimBVWl3Jqw84kVtp6XFpdbqz8X9KNcYppAasZWtG-OrGKqi1-0G00?></g></svg>