<svg xmlns="http://www.w3.org/2000/svg" xmlns:xlink="http://www.w3.org/1999/xlink" contentStyleType="text/css" data-diagram-type="DESCRIPTION" height="1199px" preserveAspectRatio="none" style="width:1414px;height:1199px;background:#FFFFFF;" version="1.1" viewBox="0 0 1414 1199" width="1414px" zoomAndPan="magnify"><?plantuml 1.2026.4?><defs/><g><g class="title" data-source-line="6"><text fill="#000000" font-family="sans-serif" font-size="14" font-weight="700" lengthAdjust="spacing" textLength="164.1924" x="621.4038" y="24.5332">Security Layers Diagram</text></g><!--cluster Frontend Access Control--><g class="cluster" data-qualified-name="Frontend Access Control" data-source-line="25" id="ent0002"><path d="M87.5,303.6094 L255.7412,303.6094 A3.75,3.75 0 0 1 258.2412,306.1094 L265.2412,327.2188 L466.5,327.2188 A2.5,2.5 0 0 1 469,329.7188 L469,614.6094 A2.5,2.5 0 0 1 466.5,617.1094 L87.5,617.1094 A2.5,2.5 0 0 1 85,614.6094 L85,306.1094 A2.5,2.5 0 0 1 87.5,303.6094" fill="#F8FBFD" style="stroke:#708090;stroke-width:1.5;"/><line style="stroke:#708090;stroke-width:1.5;" x1="85" x2="265.2412" y1="327.2188" y2="327.2188"/><text fill="#000000" font-family="sans-serif" font-size="14" font-weight="700" lengthAdjust="spacing" textLength="167.2412" x="89" y="320.1426">Frontend Access Control</text></g><!--cluster Application Security--><g class="cluster" data-qualified-name="Application Security" data-source-line="31" id="ent0006"><path d="M514.5,674.6094 L650.8584,674.6094 A3.75,3.75 0 0 1 653.3584,677.1094 L660.3584,698.2188 L753.5,698.2188 A2.5,2.5 0 0 1 756,700.7188 L756,1182.1094 A2.5,2.5 0 0 1 753.5,1184.6094 L514.5,1184.6094 A2.5,2.5 0 0 1 512,1182.1094 L512,677.1094 A2.5,2.5 0 0 1 514.5,674.6094" fill="#F8FBFD" style="stroke:#708090;stroke-width:1.5;"/><line style="stroke:#708090;stroke-width:1.5;" x1="512" x2="660.3584" y1="698.2188" y2="698.2188"/><text fill="#000000" font-family="sans-serif" font-size="14" font-weight="700" lengthAdjust="spacing" textLength="135.3584" x="516" y="691.1426">Application Security</text></g><!--cluster CI/CD Security Gate--><g class="cluster" data-qualified-name="CI.CD Security Gate" data-source-line="38" id="ent0011"><path d="M884.5,44.6094 L1017.7617,44.6094 A3.75,3.75 0 0 1 1020.2617,47.1094 L1027.2617,68.2188 L1055.5,68.2188 A2.5,2.5 0 0 1 1058,70.7188 L1058,433.1094 A2.5,2.5 0 0 1 1055.5,435.6094 L884.5,435.6094 A2.5,2.5 0 0 1 882,433.1094 L882,47.1094 A2.5,2.5 0 0 1 884.5,44.6094" fill="#F8FBFD" style="stroke:#708090;stroke-width:1.5;"/><line style="stroke:#708090;stroke-width:1.5;" x1="882" x2="1027.2617" y1="68.2188" y2="68.2188"/><text fill="#000000" font-family="sans-serif" font-size="14" font-weight="700" lengthAdjust="spacing" textLength="132.2617" x="886" y="61.1426">CI/CD Security Gate</text></g><!--cluster Infrastructure Hardening--><g class="cluster" data-qualified-name="Infrastructure Hardening" data-source-line="44" id="ent0015"><path d="M495.5,318.6094 L660.6377,318.6094 A3.75,3.75 0 0 1 663.1377,321.1094 L670.1377,342.2188 L855.5,342.2188 A2.5,2.5 0 0 1 858,344.7188 L858,622.1094 A2.5,2.5 0 0 1 855.5,624.6094 L495.5,624.6094 A2.5,2.5 0 0 1 493,622.1094 L493,321.1094 A2.5,2.5 0 0 1 495.5,318.6094" fill="#F8FBFD" style="stroke:#708090;stroke-width:1.5;"/><line style="stroke:#708090;stroke-width:1.5;" x1="493" x2="670.1377" y1="342.2188" y2="342.2188"/><text fill="#000000" font-family="sans-serif" font-size="14" font-weight="700" lengthAdjust="spacing" textLength="164.1377" x="497" y="335.1426">Infrastructure Hardening</text></g><!--cluster Monitoring / Security Response--><g class="cluster" data-qualified-name="Monitoring . Security Response" data-source-line="51" id="ent0020"><path d="M1084.5,326.1094 L1295.5273,326.1094 A3.75,3.75 0 0 1 1298.0273,328.6094 L1305.0273,349.7188 L1396.5,349.7188 A2.5,2.5 0 0 1 1399,352.2188 L1399,607.1094 A2.5,2.5 0 0 1 1396.5,609.6094 L1084.5,609.6094 A2.5,2.5 0 0 1 1082,607.1094 L1082,328.6094 A2.5,2.5 0 0 1 1084.5,326.1094" fill="#F8FBFD" style="stroke:#708090;stroke-width:1.5;"/><line style="stroke:#708090;stroke-width:1.5;" x1="1082" x2="1305.0273" y1="349.7188" y2="349.7188"/><text fill="#000000" font-family="sans-serif" font-size="14" font-weight="700" lengthAdjust="spacing" textLength="210.0273" x="1086" y="342.6426">Monitoring / Security Response</text></g><!--entity RouteGuards--><g class="entity" data-qualified-name="Frontend Access Control.RouteGuards" data-source-line="26" id="ent0003"><rect fill="#E8F7FA" height="95.4688" rx="2.5" ry="2.5" style="stroke:#2F4F4F;stroke-width:0.5;" width="129.3887" x="224.5" y="339.6094"/><text fill="#000000" font-family="sans-serif" font-size="12" lengthAdjust="spacing" textLength="109.3887" x="234.5" y="362.0664">React Route Guards</text><text fill="#000000" font-family="sans-serif" font-size="12" lengthAdjust="spacing" textLength="83.3848" x="234.5" y="377.1602">ProtectedRoute</text><text fill="#000000" font-family="sans-serif" font-size="12" lengthAdjust="spacing" textLength="66.0352" x="234.5" y="392.2539">AdminRoute</text><text fill="#000000" font-family="sans-serif" font-size="12" lengthAdjust="spacing" textLength="56.7012" x="234.5" y="407.3477">RoleRoute</text><text fill="#000000" font-family="sans-serif" font-size="12" lengthAdjust="spacing" textLength="89.3789" x="234.5" y="422.4414">PublicOnlyRoute</text></g><!--entity AuthStorage--><g class="entity" data-qualified-name="Frontend Access Control.AuthStorage" data-source-line="27" id="ent0004"><rect fill="#E8F7FA" height="65.2813" rx="2.5" ry="2.5" style="stroke:#2F4F4F;stroke-width:0.5;" width="183.4355" x="101.5" y="536.1094"/><text fill="#000000" font-family="sans-serif" font-size="12" lengthAdjust="spacing" textLength="70.0488" x="111.5" y="558.5664">Auth Storage</text><text fill="#000000" font-family="sans-serif" font-size="12" lengthAdjust="spacing" textLength="66.709" x="111.5" y="573.6602">localStorage</text><text fill="#000000" font-family="sans-serif" font-size="12" lengthAdjust="spacing" textLength="163.4355" x="111.5" y="588.7539">student-feedback.auth-session</text></g><!--entity Axios--><g class="entity" data-qualified-name="Frontend Access Control.Axios" data-source-line="28" id="ent0005"><rect fill="#E8F7FA" height="65.2813" rx="2.5" ry="2.5" style="stroke:#2F4F4F;stroke-width:0.5;" width="132.7285" x="319.5" y="536.1094"/><text fill="#000000" font-family="sans-serif" font-size="12" lengthAdjust="spacing" textLength="90.041" x="329.5" y="558.5664">Axios Interceptor</text><text fill="#000000" font-family="sans-serif" font-size="12" lengthAdjust="spacing" textLength="112.7285" x="329.5" y="573.6602">Authorization: Bearer</text><text fill="#000000" font-family="sans-serif" font-size="12" lengthAdjust="spacing" textLength="93.3867" x="329.5" y="588.7539">401 clear session</text></g><!--entity SpringSec--><g class="entity" data-qualified-name="Application Security.SpringSec" data-source-line="32" id="ent0007"><rect fill="#E8F7FA" height="65.2813" rx="2.5" ry="2.5" style="stroke:#2F4F4F;stroke-width:0.5;" width="120.6934" x="573.5" y="710.6094"/><text fill="#000000" font-family="sans-serif" font-size="12" lengthAdjust="spacing" textLength="81.3691" x="583.5" y="733.0664">Spring Security</text><text fill="#000000" font-family="sans-serif" font-size="12" lengthAdjust="spacing" textLength="91.377" x="583.5" y="748.1602">stateless session</text><text fill="#000000" font-family="sans-serif" font-size="12" lengthAdjust="spacing" textLength="100.6934" x="583.5" y="763.2539">JWT Bearer Token</text></g><!--entity JwtFilter--><g class="entity" data-qualified-name="Application Security.JwtFilter" data-source-line="33" id="ent0008"><rect fill="#E8F7FA" height="65.2813" rx="2.5" ry="2.5" style="stroke:#2F4F4F;stroke-width:0.5;" width="140.7207" x="563.5" y="836.6094"/><text fill="#000000" font-family="sans-serif" font-size="12" lengthAdjust="spacing" textLength="120.7207" x="573.5" y="859.0664">JwtAuthenticationFilter</text><text fill="#000000" font-family="sans-serif" font-size="12" lengthAdjust="spacing" textLength="114.0703" x="573.5" y="874.1602">parse / validate token</text><text fill="#000000" font-family="sans-serif" font-size="12" lengthAdjust="spacing" textLength="104.0449" x="573.5" y="889.2539">set SecurityContext</text></g><!--entity RBAC--><g class="entity" data-qualified-name="Application Security.RBAC" data-source-line="34" id="ent0009"><rect fill="#E8F7FA" height="65.2813" rx="2.5" ry="2.5" style="stroke:#2F4F4F;stroke-width:0.5;" width="211.4316" x="528.5" y="962.6094"/><text fill="#000000" font-family="sans-serif" font-size="12" lengthAdjust="spacing" textLength="33.3398" x="538.5" y="985.0664">RBAC</text><text fill="#000000" font-family="sans-serif" font-size="12" lengthAdjust="spacing" textLength="180.0117" x="538.5" y="1000.1602">ADMIN / LECTURER / STUDENT</text><text fill="#000000" font-family="sans-serif" font-size="12" lengthAdjust="spacing" textLength="191.4316" x="538.5" y="1015.2539">/api/admin/**, results, feedback staff</text></g><!--entity ServiceChecks--><g class="entity" data-qualified-name="Application Security.ServiceChecks" data-source-line="35" id="ent0010"><rect fill="#E8F7FA" height="80.375" rx="2.5" ry="2.5" style="stroke:#2F4F4F;stroke-width:0.5;" width="187.4375" x="540.5" y="1088.6094"/><text fill="#000000" font-family="sans-serif" font-size="12" lengthAdjust="spacing" textLength="109.3711" x="550.5" y="1111.0664">Service-level checks</text><text fill="#000000" font-family="sans-serif" font-size="12" lengthAdjust="spacing" textLength="138.3984" x="550.5" y="1126.1602">student ACTIVE + verified</text><text fill="#000000" font-family="sans-serif" font-size="12" lengthAdjust="spacing" textLength="108.0469" x="550.5" y="1141.2539">lecturer result scope</text><text fill="#000000" font-family="sans-serif" font-size="12" lengthAdjust="spacing" textLength="167.4375" x="550.5" y="1156.3477">feedback/notification ownership</text></g><!--entity Quality--><g class="entity" data-qualified-name="CI.CD Security Gate.Quality" data-source-line="39" id="ent0012"><rect fill="#E8F7FA" height="65.2813" rx="2.5" ry="2.5" style="stroke:#2F4F4F;stroke-width:0.5;" width="111.3945" x="914.5" y="80.6094"/><text fill="#000000" font-family="sans-serif" font-size="12" lengthAdjust="spacing" textLength="80.0332" x="924.5" y="103.0664">GitHub Actions</text><text fill="#000000" font-family="sans-serif" font-size="12" lengthAdjust="spacing" textLength="68.0449" x="924.5" y="118.1602">backend test</text><text fill="#000000" font-family="sans-serif" font-size="12" lengthAdjust="spacing" textLength="91.3945" x="924.5" y="133.2539">frontend lint/build</text></g><!--entity FsScan--><g class="entity" data-qualified-name="CI.CD Security Gate.FsScan" data-source-line="40" id="ent0013"><rect fill="#E8F7FA" height="50.1875" rx="2.5" ry="2.5" style="stroke:#2F4F4F;stroke-width:0.5;" width="144.0488" x="898" y="206.6094"/><text fill="#000000" font-family="sans-serif" font-size="12" lengthAdjust="spacing" textLength="111.3516" x="908" y="229.0664">Trivy filesystem scan</text><text fill="#000000" font-family="sans-serif" font-size="12" lengthAdjust="spacing" textLength="124.0488" x="908" y="244.1602">CRITICAL fails pipeline</text></g><!--entity ImageScan--><g class="entity" data-qualified-name="CI.CD Security Gate.ImageScan" data-source-line="41" id="ent0014"><rect fill="#E8F7FA" height="65.2813" rx="2.5" ry="2.5" style="stroke:#2F4F4F;stroke-width:0.5;" width="144.0488" x="898" y="354.6094"/><text fill="#000000" font-family="sans-serif" font-size="12" lengthAdjust="spacing" textLength="102.709" x="908" y="377.0664">Docker image scan</text><text fill="#000000" font-family="sans-serif" font-size="12" lengthAdjust="spacing" textLength="92.7363" x="908" y="392.1602">backend/frontend</text><text fill="#000000" font-family="sans-serif" font-size="12" lengthAdjust="spacing" textLength="124.0488" x="908" y="407.2539">CRITICAL fails pipeline</text></g><!--entity Nginx--><g class="entity" data-qualified-name="Infrastructure Hardening.Nginx" data-source-line="45" id="ent0016"><rect fill="#E8F7FA" height="80.375" rx="2.5" ry="2.5" style="stroke:#2F4F4F;stroke-width:0.5;" width="126.7051" x="687.5" y="528.6094"/><text fill="#000000" font-family="sans-serif" font-size="12" lengthAdjust="spacing" textLength="106.7051" x="697.5" y="551.0664">Nginx reverse proxy</text><text fill="#000000" font-family="sans-serif" font-size="12" lengthAdjust="spacing" textLength="96.7383" x="697.5" y="566.1602">public 80/443 only</text><text fill="#000000" font-family="sans-serif" font-size="12" lengthAdjust="spacing" textLength="88.3359" x="697.5" y="581.2539">HTTP -&gt; HTTPS</text><text fill="#000000" font-family="sans-serif" font-size="12" lengthAdjust="spacing" textLength="22.0078" x="697.5" y="596.3477">TLS</text></g><!--entity Tailnet--><g class="entity" data-qualified-name="Infrastructure Hardening.Tailnet" data-source-line="46" id="ent0017"><rect fill="#E8F7FA" height="65.2813" rx="2.5" ry="2.5" style="stroke:#2F4F4F;stroke-width:0.5;" width="127.3848" x="509.5" y="354.6094"/><text fill="#000000" font-family="sans-serif" font-size="12" lengthAdjust="spacing" textLength="107.3848" x="519.5" y="377.0664">Headscale/Tailscale</text><text fill="#000000" font-family="sans-serif" font-size="12" lengthAdjust="spacing" textLength="57.3516" x="519.5" y="392.1602">VPN Mesh</text><text fill="#000000" font-family="sans-serif" font-size="12" lengthAdjust="spacing" textLength="82.6992" x="519.5" y="407.2539">SSH via Tailnet</text></g><!--entity PrivateServices--><g class="entity" data-qualified-name="Infrastructure Hardening.PrivateServices" data-source-line="47" id="ent0018"><rect fill="#E8F7FA" height="50.1875" rx="2.5" ry="2.5" style="stroke:#2F4F4F;stroke-width:0.5;" width="142.6953" x="509.5" y="543.6094"/><text fill="#000000" font-family="sans-serif" font-size="12" lengthAdjust="spacing" textLength="122.6953" x="519.5" y="566.0664">DB / RabbitMQ / MinIO</text><text fill="#000000" font-family="sans-serif" font-size="12" lengthAdjust="spacing" textLength="51.3691" x="519.5" y="581.1602">not public</text></g><!--entity CrowdSec--><g class="entity" data-qualified-name="Infrastructure Hardening.CrowdSec" data-source-line="48" id="ent0019"><rect fill="#E8F7FA" height="50.1875" rx="2.5" ry="2.5" style="stroke:#2F4F4F;stroke-width:0.5;" width="170.0938" x="672" y="362.1094"/><text fill="#000000" font-family="sans-serif" font-size="12" lengthAdjust="spacing" textLength="111.0645" x="682" y="384.5664">fail2ban + CrowdSec</text><text fill="#000000" font-family="sans-serif" font-size="12" lengthAdjust="spacing" textLength="150.0938" x="682" y="399.6602">probing/bruteforce response</text></g><!--entity Metrics--><g class="entity" data-qualified-name="Monitoring . Security Response.Metrics" data-source-line="52" id="ent0021"><rect fill="#E8F7FA" height="50.1875" rx="2.5" ry="2.5" style="stroke:#2F4F4F;stroke-width:0.5;" width="148.0684" x="1235" y="362.1094"/><text fill="#000000" font-family="sans-serif" font-size="12" lengthAdjust="spacing" textLength="121.7344" x="1245" y="384.5664">Prometheus + Grafana</text><text fill="#000000" font-family="sans-serif" font-size="12" lengthAdjust="spacing" textLength="128.0684" x="1245" y="399.6602">metrics and dashboards</text></g><!--entity Logs--><g class="entity" data-qualified-name="Monitoring . Security Response.Logs" data-source-line="53" id="ent0022"><rect fill="#E8F7FA" height="50.1875" rx="2.5" ry="2.5" style="stroke:#2F4F4F;stroke-width:0.5;" width="101.3867" x="1098.5" y="362.1094"/><text fill="#000000" font-family="sans-serif" font-size="12" lengthAdjust="spacing" textLength="22.0137" x="1108.5" y="384.5664">Loki</text><text fill="#000000" font-family="sans-serif" font-size="12" lengthAdjust="spacing" textLength="81.3867" x="1108.5" y="399.6602">log observation</text></g><!--entity Alerts--><g class="entity" data-qualified-name="Monitoring . Security Response.Alerts" data-source-line="54" id="ent0023"><rect fill="#E8F7FA" height="50.1875" rx="2.5" ry="2.5" style="stroke:#2F4F4F;stroke-width:0.5;" width="163.3906" x="1098.5" y="543.6094"/><text fill="#000000" font-family="sans-serif" font-size="12" lengthAdjust="spacing" textLength="143.3906" x="1108.5" y="566.0664">Telegram alerts / decisions</text><text fill="#000000" font-family="sans-serif" font-size="12" lengthAdjust="spacing" textLength="105.3984" x="1108.5" y="581.1602">operator notification</text></g><!--entity User--><g class="entity" data-qualified-name="User" data-source-line="23" id="ent0001"><rect fill="#E8F7FA" height="35.0938" rx="2.5" ry="2.5" style="stroke:#2F4F4F;stroke-width:0.5;" width="99.3477" x="239.5" y="214.1094"/><text fill="#000000" font-family="sans-serif" font-size="12" lengthAdjust="spacing" textLength="79.3477" x="249.5" y="236.5664">User / Browser</text></g><g class="entity" data-qualified-name="GMN41" data-source-line="79" id="ent0042"><path d="M6,721.6094 L6,764.3125 A0,0 0 0 0 6,764.3125 L379.6123,764.3125 A0,0 0 0 0 379.6123,764.3125 L379.6123,731.6094 L369.6123,721.6094 L197,721.6094 L193,601.2494 L189,721.6094 L6,721.6094 A0,0 0 0 0 6,721.6094" fill="#FEFFDD" style="stroke:#181818;stroke-width:0.5;"/><path d="M369.6123,721.6094 L369.6123,731.6094 L379.6123,731.6094 L369.6123,721.6094" fill="#FEFFDD" style="stroke:#181818;stroke-width:0.5;"/><text fill="#000000" font-family="sans-serif" font-size="13" lengthAdjust="spacing" textLength="168.9619" x="12" y="740.1045">JWT hi&#7879;n l&#432;u &#7903; localStorage.</text><text fill="#000000" font-family="sans-serif" font-size="13" lengthAdjust="spacing" textLength="352.6123" x="12" y="756.4561">C&#7847;n gi&#7843;m r&#7911;i ro XSS b&#7857;ng CSP, sanitize v&#224; security headers.</text></g><!--link User to RouteGuards--><g class="link" data-entity-1="ent0001" data-entity-2="ent0003" data-link-type="dependency" data-source-line="57" id="lnk24"><path d="M289,249.3294 C289,270.7794 289,303.8494 289,334.3894" fill="none" id="User-to-RouteGuards" style="stroke:#333333;stroke-width:1;"/><polygon fill="#333333" points="289,339.3894,293,330.3894,289,334.3894,285,330.3894,289,339.3894" style="stroke:#333333;stroke-width:1;stroke-linejoin:miter;stroke-miterlimit:10;"/></g><!--link RouteGuards to AuthStorage--><g class="link" data-entity-1="ent0003" data-entity-2="ent0004" data-link-type="dependency" data-source-line="58" id="lnk25"><path d="M264.03,434.7994 C247.03,466.5894 227.3379,503.4103 212.3479,531.4403" fill="none" id="RouteGuards-to-AuthStorage" style="stroke:#333333;stroke-width:1;"/><polygon fill="#333333" points="209.99,535.8494,217.7615,529.7993,212.3479,531.4403,210.707,526.0266,209.99,535.8494" style="stroke:#333333;stroke-width:1;stroke-linejoin:miter;stroke-miterlimit:10;"/></g><!--link RouteGuards to Axios--><g class="link" data-entity-1="ent0003" data-entity-2="ent0005" data-link-type="dependency" data-source-line="59" id="lnk26"><path d="M314.23,434.7994 C331.41,466.5894 351.3126,503.4208 366.4626,531.4508" fill="none" id="RouteGuards-to-Axios" style="stroke:#333333;stroke-width:1;"/><polygon fill="#333333" points="368.84,535.8494,368.0795,526.0299,366.4626,531.4508,361.0417,529.8338,368.84,535.8494" style="stroke:#333333;stroke-width:1;stroke-linejoin:miter;stroke-miterlimit:10;"/></g><!--link Axios to SpringSec--><g class="link" data-entity-1="ent0005" data-entity-2="ent0007" data-link-type="dependency" data-source-line="60" id="lnk27"><path d="M431.49,601.2494 C476.09,632.2794 539.6254,676.4641 584.2754,707.5241" fill="none" id="Axios-to-SpringSec" style="stroke:#333333;stroke-width:1;"/><polygon fill="#333333" points="588.38,710.3794,583.276,701.9562,584.2754,707.5241,578.7076,708.5235,588.38,710.3794" style="stroke:#333333;stroke-width:1;stroke-linejoin:miter;stroke-miterlimit:10;"/></g><!--link SpringSec to JwtFilter--><g class="link" data-entity-1="ent0007" data-entity-2="ent0008" data-link-type="dependency" data-source-line="61" id="lnk28"><path d="M634,775.7194 C634,794.3794 634,812.9094 634,831.5594" fill="none" id="SpringSec-to-JwtFilter" style="stroke:#333333;stroke-width:1;"/><polygon fill="#333333" points="634,836.5594,638,827.5594,634,831.5594,630,827.5594,634,836.5594" style="stroke:#333333;stroke-width:1;stroke-linejoin:miter;stroke-miterlimit:10;"/></g><!--link JwtFilter to RBAC--><g class="link" data-entity-1="ent0008" data-entity-2="ent0009" data-link-type="dependency" data-source-line="62" id="lnk29"><path d="M634,901.7194 C634,920.3794 634,938.9094 634,957.5594" fill="none" id="JwtFilter-to-RBAC" style="stroke:#333333;stroke-width:1;"/><polygon fill="#333333" points="634,962.5594,638,953.5594,634,957.5594,630,953.5594,634,962.5594" style="stroke:#333333;stroke-width:1;stroke-linejoin:miter;stroke-miterlimit:10;"/></g><!--link RBAC to ServiceChecks--><g class="link" data-entity-1="ent0009" data-entity-2="ent0010" data-link-type="dependency" data-source-line="63" id="lnk30"><path d="M634,1027.9394 C634,1046.1894 634,1064.2194 634,1083.5594" fill="none" id="RBAC-to-ServiceChecks" style="stroke:#333333;stroke-width:1;"/><polygon fill="#333333" points="634,1088.5594,638,1079.5594,634,1083.5594,630,1079.5594,634,1088.5594" style="stroke:#333333;stroke-width:1;stroke-linejoin:miter;stroke-miterlimit:10;"/></g><!--link Quality to FsScan--><g class="link" data-entity-1="ent0012" data-entity-2="ent0013" data-link-type="dependency" data-source-line="65" id="lnk31"><path d="M970,145.6394 C970,164.7694 970,183.8294 970,201.4494" fill="none" id="Quality-to-FsScan" style="stroke:#333333;stroke-width:1;"/><polygon fill="#333333" points="970,206.4494,974,197.4494,970,201.4494,966,197.4494,970,206.4494" style="stroke:#333333;stroke-width:1;stroke-linejoin:miter;stroke-miterlimit:10;"/></g><!--link FsScan to ImageScan--><g class="link" data-entity-1="ent0013" data-entity-2="ent0014" data-link-type="dependency" data-source-line="66" id="lnk32"><path d="M970,256.9294 C970,283.3094 970,320.5094 970,349.4494" fill="none" id="FsScan-to-ImageScan" style="stroke:#333333;stroke-width:1;"/><polygon fill="#333333" points="970,354.4494,974,345.4494,970,349.4494,966,345.4494,970,354.4494" style="stroke:#333333;stroke-width:1;stroke-linejoin:miter;stroke-miterlimit:10;"/></g><!--link ImageScan to Nginx--><g class="link" data-entity-1="ent0014" data-entity-2="ent0016" data-link-type="dependency" data-source-line="67" id="lnk33"><path d="M935.33,419.7694 C899.57,452.4294 849,498.6094 849,498.6094 C849,498.6094 832.7881,510.0205 810.6781,525.5905" fill="none" id="ImageScan-to-Nginx" style="stroke:#333333;stroke-width:1;"/><polygon fill="#333333" points="806.59,528.4694,816.2516,526.5579,810.6781,525.5905,811.6454,520.017,806.59,528.4694" style="stroke:#333333;stroke-width:1;stroke-linejoin:miter;stroke-miterlimit:10;"/><text fill="#000000" font-family="sans-serif" font-size="13" lengthAdjust="spacing" textLength="101.9053" x="902.7004" y="479.1045">deployable image</text><text fill="#000000" font-family="sans-serif" font-size="13" lengthAdjust="spacing" textLength="137.3062" x="885" y="495.4561">only after passing gates</text></g><!--link Nginx to SpringSec--><g class="link" data-entity-1="ent0016" data-entity-2="ent0007" data-link-type="dependency" data-source-line="69" id="lnk34"><path d="M724.45,608.7494 C703.55,639.5694 677.6064,677.8213 658.1764,706.4713" fill="none" id="Nginx-to-SpringSec" style="stroke:#333333;stroke-width:1;"/><polygon fill="#333333" points="655.37,710.6094,663.732,705.4059,658.1764,706.4713,657.111,700.9156,655.37,710.6094" style="stroke:#333333;stroke-width:1;stroke-linejoin:miter;stroke-miterlimit:10;"/><text fill="#000000" font-family="sans-serif" font-size="13" lengthAdjust="spacing" textLength="145.9644" x="700" y="655.1045">reverse proxy to backend</text></g><!--link Tailnet to Nginx--><g class="link" data-entity-1="ent0017" data-entity-2="ent0016" data-link-type="dependency" data-source-line="70" id="lnk35"><path d="M580.45,419.7694 C588.13,452.4294 599,498.6094 599,498.6094 C599,498.6094 670,528.6094 670,528.6094 C670,528.6094 672.6343,529.8818 682.6743,534.7118" fill="none" id="Tailnet-to-Nginx" style="stroke:#333333;stroke-width:1;"/><polygon fill="#333333" points="687.18,536.8794,680.8038,529.3731,682.6743,534.7118,677.3356,536.5823,687.18,536.8794" style="stroke:#333333;stroke-width:1;stroke-linejoin:miter;stroke-miterlimit:10;"/><text fill="#000000" font-family="sans-serif" font-size="13" lengthAdjust="spacing" textLength="108.3926" x="600" y="487.1045">admin access path</text></g><!--link Tailnet to PrivateServices--><g class="link" data-entity-1="ent0017" data-entity-2="ent0018" data-link-type="dependency" data-source-line="71" id="lnk36"><path d="M556.09,419.6694 C544.79,440.7394 532,464.6094 532,464.6094 C532,464.6094 532,498.6094 532,498.6094 C532,498.6094 546.8353,519.5026 560.9653,539.4026" fill="none" id="Tailnet-to-PrivateServices" style="stroke:#333333;stroke-width:1;"/><polygon fill="#333333" points="563.86,543.4794,561.9109,533.8253,560.9653,539.4026,555.388,538.4569,563.86,543.4794" style="stroke:#333333;stroke-width:1;stroke-linejoin:miter;stroke-miterlimit:10;"/></g><!--link CrowdSec to Nginx--><g class="link" data-entity-1="ent0019" data-entity-2="ent0016" data-link-type="dependency" data-source-line="72" id="lnk37"><path d="M744.34,412.3194 C732.62,434.7294 717,464.6094 717,464.6094 C717,464.6094 717,498.6094 717,498.6094 C717,498.6094 721.7683,508.2951 729.4083,523.7851" fill="none" id="CrowdSec-to-Nginx" style="stroke:#333333;stroke-width:1;"/><polygon fill="#333333" points="731.62,528.2694,731.2263,518.4284,729.4083,523.7851,724.0515,521.9671,731.62,528.2694" style="stroke:#333333;stroke-width:1;stroke-linejoin:miter;stroke-miterlimit:10;"/><text fill="#000000" font-family="sans-serif" font-size="13" lengthAdjust="spacing" textLength="122.8398" x="718" y="487.1045">protect public ingress</text></g><!--link Metrics to Alerts--><g class="link" data-entity-1="ent0021" data-entity-2="ent0023" data-link-type="dependency" data-source-line="74" id="lnk38"><path d="M1291.6,412.3194 C1266.91,446.6694 1224.8979,505.1391 1200.2479,539.4391" fill="none" id="Metrics-to-Alerts" style="stroke:#333333;stroke-width:1;"/><polygon fill="#333333" points="1197.33,543.4994,1205.8305,538.5253,1200.2479,539.4391,1199.3341,533.8566,1197.33,543.4994" style="stroke:#333333;stroke-width:1;stroke-linejoin:miter;stroke-miterlimit:10;"/></g><!--link Logs to Alerts--><g class="link" data-entity-1="ent0022" data-entity-2="ent0023" data-link-type="dependency" data-source-line="75" id="lnk39"><path d="M1153.18,412.3194 C1159.11,446.6694 1169.0582,504.2725 1174.9882,538.5725" fill="none" id="Logs-to-Alerts" style="stroke:#333333;stroke-width:1;"/><polygon fill="#333333" points="1175.84,543.4994,1178.2483,533.9495,1174.9882,538.5725,1170.3652,535.3124,1175.84,543.4994" style="stroke:#333333;stroke-width:1;stroke-linejoin:miter;stroke-miterlimit:10;"/></g><!--link CrowdSec to Alerts--><g class="link" data-entity-1="ent0019" data-entity-2="ent0023" data-link-type="dependency" data-source-line="76" id="lnk40"><path d="M785.97,412.3594 C824.82,444.8894 889,498.6094 889,498.6094 C889,498.6094 1007.2349,526.6457 1093.3049,547.0557" fill="none" id="CrowdSec-to-Alerts" style="stroke:#333333;stroke-width:1;"/><polygon fill="#333333" points="1098.17,548.2094,1090.3358,542.2407,1093.3049,547.0557,1088.4899,550.0248,1098.17,548.2094" style="stroke:#333333;stroke-width:1;stroke-linejoin:miter;stroke-miterlimit:10;"/></g><?plantuml-src VLRBRYCt4BpFLpISsyQszc5WZJq4a4UMhONjzMh6cnnquSnG4c6Q790SsTeWvtn60kImr-Hg7mFaF_mdAPAZjnCTRBwwkjbTNHmddEIKyR8nmitfWisviTGJR6BONP8uNPFJL6Zdz1rLml3I2QqIUojKpN24x9HL-bwe2OsPj7njHmh5tRpcL6ivzvErFO_3r0IkVqu8lnDMtawCRbILQgaDVNTwt7_VxyOzRIfkudgFcTjCCiVF39k7tRvMBXDVERrvc_oovg468fly9tx_k7_Ix-tWlu3jveYoqBBQWEyQe-zRh7VXboIhI-tTM6weGoSuXD4UCKj-AKaMOUtr3S2vggXRbjnQIZ4rMkwr0QzX3Jah7GrrupYTDSnKTgIkZNOumQkmF5BTwaweTZpKahV3wwQGeloav3miX3Z2AE9iU-esRagPqmOHZfJK9PFBcNLDnPKx67DU5RZ48SFX0ulGmOS0xAtRupl03q9R6k32fkGrpY1YdDP6V6MUJn_eX3F3iNpq-WsL4XFQWFRsoFygVTswnis2yPAzB-GkgusdvkA4lmOAB7t2M_oH-lXZthgdND_ow34QmcuRyUEzyw4Z5Qtxlf3EHmvUM8wQpvWK5PoWRm06Zzmj_ViYymSNF00eckxK-wIR8Z-zoy4Lu2vEq_ncU3h4CCjlUgTN-KXrM2qwp9Uyy-hLFcnj8vtTfqLj2BSSZsEr0RQJ56vcekG7ai-uf7BAorkxB31rqtpmvPI-fnatOYnu1IR0jl7vYPx8bhe69HRkEaexd6oheUyL96GgwfZ7w2iDJZOgc0uwQM-bF6VCytEdW6V2dJS5ciHZ8qhlptUDuzOXWaKJGLvSfsY4h8BNpmsAuERROBaHipcD1Ue_juv3l4g62gN3GJv8knTGC24jrQBcNgu2KjzcEBCDrDE8mf2uypU986rWdKL8_myxy9O1UJqb0ro8MMUQa6uwHuzo1Hg-a9UhYL0FM42HmBhQw0UGkmxjJiUlEqT7xqYZxKVgFC-lwU07yl-paSeliX10iDy6FUUimcqax-G-P3yQgI_NLtJ9xNIaikoSPeAHtuIq1vnsl9EW4_1ro8f2kClF65uADVWqKY0AnI23yJNgWRAt7DcH8v-tjmLJu68A8Qt05TpHw08fwHG6CZRMq1FFoXhaY9bTdDn8xALM0ghZfQ2pejnmQRUJNkZh7KUNDnREyHwCcM8ZXIKZIaiCZAkOdHRQgsXmUnctjd4kzAtmIZeXNK3_Pw55Wi65dkoSpg5C_jqb9DuuYrWhNWeRcO-MCmoNeFLkY-eOJliBXsVd0DLU5_crSTXRr-cTlI2qKQxzV2M3or5ONudNSXJzUhdnVwBrHlCdRLU6hRQluh-micg9vIYiHwP_G2fggUUiGA92to4Z83YniVTTCuWvgZi1dU0fscnS00WRtH8-QsBF9Ys9Dzm5UIKM7-UQkUd6gMtcBbYt0L77HxfbF24EC1NHjLo92O-rysnOds_WjMi92iyNds9wl557_uPDnVFJhuhaFtyszFpq6ws_tuT9-lpuJT54F3_-WS-lvwTlWeocdxACYkV7lv2wDBlU9ylGAFvhQlRtxtWXsqQPGXUGkSF4IwsF8laN?></g></svg>