<svg xmlns="http://www.w3.org/2000/svg" xmlns:xlink="http://www.w3.org/1999/xlink" contentStyleType="text/css" data-diagram-type="SEQUENCE" height="782px" preserveAspectRatio="none" style="width:1403px;height:782px;background:#FFFFFF;" version="1.1" viewBox="0 0 1403 782" width="1403px" zoomAndPan="magnify"><?plantuml 1.2026.4?><defs/><g><g class="title" data-source-line="5"><text fill="#000000" font-family="sans-serif" font-size="14" font-weight="700" lengthAdjust="spacing" textLength="307.3164" x="544.8208" y="29.5332">Sequence Diagram - Submit Survey Response</text></g><rect fill="none" height="370.0547" style="stroke:#000000;stroke-width:1.5;" width="1377.958" x="10" y="394.0313"/><rect fill="none" height="48.7031" style="stroke:#000000;stroke-width:1.5;" width="862.2676" x="515.6904" y="510.4375"/><g class="participant-lifeline" data-entity-uid="part1" data-qualified-name="Student" data-source-line="16" id="part1-lifeline"><g><title>Student</title><rect fill="#000000" fill-opacity="0.00000" height="659.8672" width="8" x="43.1309" y="121.2188"/><line style="stroke:#708090;stroke-width:0.5;stroke-dasharray:5,5;" x1="47" x2="47" y1="121.2188" y2="781.0859"/></g></g><g class="participant-lifeline" data-entity-uid="part2" data-qualified-name="FE" data-source-line="17" id="part2-lifeline"><g><title>React SPA</title><rect fill="#000000" fill-opacity="0.00000" height="659.8672" width="8" x="202.958" y="121.2188"/><line style="stroke:#708090;stroke-width:0.5;stroke-dasharray:5,5;" x1="206.3306" x2="206.3306" y1="121.2188" y2="781.0859"/></g></g><g class="participant-lifeline" data-entity-uid="part3" data-qualified-name="C" data-source-line="18" id="part3-lifeline"><g><title>SurveyController</title><rect fill="#000000" fill-opacity="0.00000" height="659.8672" width="8" x="366.4097" y="121.2188"/><line style="stroke:#708090;stroke-width:0.5;stroke-dasharray:5,5;" x1="370.2788" x2="370.2788" y1="121.2188" y2="781.0859"/></g></g><g class="participant-lifeline" data-entity-uid="part4" data-qualified-name="S" data-source-line="19" id="part4-lifeline"><g><title>SubmitSurveyService</title><rect fill="#000000" fill-opacity="0.00000" height="659.8672" width="8" x="595.604" y="121.2188"/><line style="stroke:#708090;stroke-width:0.5;stroke-dasharray:5,5;" x1="598.6904" x2="598.6904" y1="121.2188" y2="781.0859"/></g></g><g class="participant-lifeline" data-entity-uid="part5" data-qualified-name="P" data-source-line="20" id="part5-lifeline"><g><title>Survey Persistence</title><rect fill="#000000" fill-opacity="0.00000" height="659.8672" width="8" x="884.9399" y="121.2188"/><line style="stroke:#708090;stroke-width:0.5;stroke-dasharray:5,5;" x1="888.6367" x2="888.6367" y1="121.2188" y2="781.0859"/></g></g><g class="participant-lifeline" data-entity-uid="part6" data-qualified-name="DB" data-source-line="21" id="part6-lifeline"><g><title>SQL Server</title><rect fill="#000000" fill-opacity="0.00000" height="659.8672" width="8" x="1179.2104" y="121.2188"/><line style="stroke:#708090;stroke-width:0.5;stroke-dasharray:5,5;" x1="1182.6416" x2="1182.6416" y1="121.2188" y2="781.0859"/></g></g><g class="participant-lifeline" data-entity-uid="part7" data-qualified-name="MQ" data-source-line="22" id="part7-lifeline"><g><title>RabbitMQ</title><rect fill="#000000" fill-opacity="0.00000" height="659.8672" width="8" x="1296.3687" y="121.2188"/><line style="stroke:#708090;stroke-width:0.5;stroke-dasharray:5,5;" x1="1299.7793" x2="1299.7793" y1="121.2188" y2="781.0859"/></g></g><g class="participant participant-head" data-entity-uid="part1" data-qualified-name="Student" data-source-line="16" id="part1-head"><text fill="#000000" font-family="sans-serif" font-size="14" lengthAdjust="spacing" textLength="48.2617" x="20" y="118.1426">Student</text><ellipse cx="47.1309" cy="52.1094" fill="#E2E2F0" rx="8" ry="8" style="stroke:#181818;stroke-width:0.5;"/><path d="M47.1309,60.1094 L47.1309,87.1094 M34.1309,68.1094 L60.1309,68.1094 M47.1309,87.1094 L34.1309,102.1094 M47.1309,87.1094 L60.1309,102.1094" fill="none" style="stroke:#181818;stroke-width:0.5;"/></g><g class="participant participant-head" data-entity-uid="part2" data-qualified-name="FE" data-source-line="17" id="part2-head"><rect fill="#E8F7FA" height="49.2188" rx="2.5" ry="2.5" style="stroke:#2F4F4F;stroke-width:0.5;" width="97.2549" x="158.3306" y="71"/><text fill="#000000" font-family="sans-serif" font-size="14" lengthAdjust="spacing" textLength="68.4756" x="172.7202" y="92.5332">React SPA</text><text fill="#000000" font-family="sans-serif" font-size="14" lengthAdjust="spacing" textLength="83.2549" x="165.3306" y="110.1426">Survey Detail</text></g><g class="participant participant-head" data-entity-uid="part3" data-qualified-name="C" data-source-line="18" id="part3-head"><rect fill="#E8F7FA" height="31.6094" rx="2.5" ry="2.5" style="stroke:#2F4F4F;stroke-width:0.5;" width="118.2617" x="311.2788" y="88.6094"/><text fill="#000000" font-family="sans-serif" font-size="14" lengthAdjust="spacing" textLength="104.2617" x="318.2788" y="110.1426">SurveyController</text></g><g class="participant participant-head" data-entity-uid="part4" data-qualified-name="S" data-source-line="19" id="part4-head"><rect fill="#E8F7FA" height="31.6094" rx="2.5" ry="2.5" style="stroke:#2F4F4F;stroke-width:0.5;" width="147.8271" x="525.6904" y="88.6094"/><text fill="#000000" font-family="sans-serif" font-size="14" lengthAdjust="spacing" textLength="133.8271" x="532.6904" y="110.1426">SubmitSurveyService</text></g><g class="participant participant-head" data-entity-uid="part5" data-qualified-name="P" data-source-line="20" id="part5-head"><rect fill="#E8F7FA" height="49.2188" rx="2.5" ry="2.5" style="stroke:#2F4F4F;stroke-width:0.5;" width="134.6064" x="821.6367" y="71"/><text fill="#000000" font-family="sans-serif" font-size="14" lengthAdjust="spacing" textLength="120.6064" x="828.6367" y="92.5332">Survey Persistence</text><text fill="#000000" font-family="sans-serif" font-size="14" lengthAdjust="spacing" textLength="49.0342" x="864.4229" y="110.1426">Adapter</text></g><g class="participant participant-head" data-entity-uid="part6" data-qualified-name="DB" data-source-line="21" id="part6-head"><text fill="#000000" font-family="sans-serif" font-size="14" lengthAdjust="spacing" textLength="73.1377" x="1143.6416" y="118.1426">SQL Server</text><path d="M1165.2104,67.6094 C1165.2104,57.6094 1183.2104,57.6094 1183.2104,57.6094 C1183.2104,57.6094 1201.2104,57.6094 1201.2104,67.6094 L1201.2104,93.6094 C1201.2104,103.6094 1183.2104,103.6094 1183.2104,103.6094 C1183.2104,103.6094 1165.2104,103.6094 1165.2104,93.6094 L1165.2104,67.6094" fill="#E2E2F0" style="stroke:#181818;stroke-width:0.5;"/><path d="M1165.2104,67.6094 C1165.2104,77.6094 1183.2104,77.6094 1183.2104,77.6094 C1183.2104,77.6094 1201.2104,77.6094 1201.2104,67.6094" fill="none" style="stroke:#181818;stroke-width:0.5;"/></g><g class="participant participant-head" data-entity-uid="part7" data-qualified-name="MQ" data-source-line="22" id="part7-head"><path d="M1237.7793,76 L1362.958,76 C1367.958,76 1367.958,98.6094 1367.958,98.6094 C1367.958,98.6094 1367.958,121.2188 1362.958,121.2188 L1237.7793,121.2188 C1232.7793,121.2188 1232.7793,98.6094 1232.7793,98.6094 C1232.7793,98.6094 1232.7793,76 1237.7793,76" fill="#E2E2F0" style="stroke:#181818;stroke-width:0.5;"/><path d="M1362.958,76 C1357.958,76 1357.958,98.6094 1357.958,98.6094 C1357.958,121.2188 1362.958,121.2188 1362.958,121.2188" fill="none" style="stroke:#181818;stroke-width:0.5;"/><text fill="#000000" font-family="sans-serif" font-size="14" lengthAdjust="spacing" textLength="63.0205" x="1263.8584" y="95.5332">RabbitMQ</text><text fill="#000000" font-family="sans-serif" font-size="14" lengthAdjust="spacing" textLength="115.1787" x="1237.7793" y="113.1426">Translation Queue</text></g><g class="message" data-entity-1="part1" data-entity-2="part2" data-source-line="24" id="msg1"><polygon fill="#333333" points="194.958,149.5703,204.958,153.5703,194.958,157.5703,198.958,153.5703" style="stroke:#333333;stroke-width:1;stroke-linejoin:miter;stroke-miterlimit:10;"/><line style="stroke:#333333;stroke-width:1;" x1="47.1309" x2="200.958" y1="153.5703" y2="153.5703"/><text fill="#000000" font-family="sans-serif" font-size="13" lengthAdjust="spacing" textLength="135.8271" x="54.1309" y="148.7139">Fill answers and submit</text></g><g class="message" data-entity-1="part2" data-entity-2="part3" data-source-line="25" id="msg2"><polygon fill="#333333" points="358.4097,179.9219,368.4097,183.9219,358.4097,187.9219,362.4097,183.9219" style="stroke:#333333;stroke-width:1;stroke-linejoin:miter;stroke-miterlimit:10;"/><line style="stroke:#333333;stroke-width:1;" x1="206.958" x2="364.4097" y1="183.9219" y2="183.9219"/><text fill="#000000" font-family="sans-serif" font-size="13" lengthAdjust="spacing" textLength="139.4517" x="213.958" y="179.0654">Submit survey response</text></g><g class="message" data-entity-1="part3" data-entity-2="part4" data-source-line="26" id="msg3"><polygon fill="#333333" points="587.604,210.2734,597.604,214.2734,587.604,218.2734,591.604,214.2734" style="stroke:#333333;stroke-width:1;stroke-linejoin:miter;stroke-miterlimit:10;"/><line style="stroke:#333333;stroke-width:1;" x1="370.4097" x2="593.604" y1="214.2734" y2="214.2734"/><text fill="#000000" font-family="sans-serif" font-size="13" lengthAdjust="spacing" textLength="205.1943" x="377.4097" y="209.417">submitSurvey(command, studentId)</text></g><g class="message" data-entity-1="part4" data-entity-2="part5" data-source-line="27" id="msg4"><polygon fill="#333333" points="876.9399,240.625,886.9399,244.625,876.9399,248.625,880.9399,244.625" style="stroke:#333333;stroke-width:1;stroke-linejoin:miter;stroke-miterlimit:10;"/><line style="stroke:#333333;stroke-width:1;" x1="599.604" x2="882.9399" y1="244.625" y2="244.625"/><text fill="#000000" font-family="sans-serif" font-size="13" lengthAdjust="spacing" textLength="211.7451" x="606.604" y="239.7686">Load survey, questions and recipient</text></g><g class="message" data-entity-1="part5" data-entity-2="part6" data-source-line="28" id="msg5"><polygon fill="#333333" points="1171.2104,270.9766,1181.2104,274.9766,1171.2104,278.9766,1175.2104,274.9766" style="stroke:#333333;stroke-width:1;stroke-linejoin:miter;stroke-miterlimit:10;"/><line style="stroke:#333333;stroke-width:1;" x1="888.9399" x2="1177.2104" y1="274.9766" y2="274.9766"/><text fill="#000000" font-family="sans-serif" font-size="13" lengthAdjust="spacing" textLength="247.8379" x="895.9399" y="270.1201">Query Survey, Question, Survey_Recipient</text></g><g class="message" data-entity-1="part6" data-entity-2="part5" data-source-line="29" id="msg6"><polygon fill="#333333" points="899.9399,301.3281,889.9399,305.3281,899.9399,309.3281,895.9399,305.3281" style="stroke:#333333;stroke-width:1;stroke-linejoin:miter;stroke-miterlimit:10;"/><line style="stroke:#333333;stroke-width:1;stroke-dasharray:2,2;" x1="893.9399" x2="1182.2104" y1="305.3281" y2="305.3281"/><text fill="#000000" font-family="sans-serif" font-size="13" lengthAdjust="spacing" textLength="69.3735" x="905.9399" y="300.4717">Survey data</text></g><g class="message" data-entity-1="part5" data-entity-2="part4" data-source-line="30" id="msg7"><polygon fill="#333333" points="610.604,331.6797,600.604,335.6797,610.604,339.6797,606.604,335.6797" style="stroke:#333333;stroke-width:1;stroke-linejoin:miter;stroke-miterlimit:10;"/><line style="stroke:#333333;stroke-width:1;stroke-dasharray:2,2;" x1="604.604" x2="887.9399" y1="335.6797" y2="335.6797"/><text fill="#000000" font-family="sans-serif" font-size="13" lengthAdjust="spacing" textLength="73.709" x="616.604" y="330.8232">Domain data</text></g><g class="message" data-entity-1="part4" data-entity-2="part4" data-source-line="31" id="msg8"><line style="stroke:#333333;stroke-width:1;" x1="599.604" x2="641.604" y1="366.0313" y2="366.0313"/><line style="stroke:#333333;stroke-width:1;" x1="641.604" x2="641.604" y1="366.0313" y2="379.0313"/><line style="stroke:#333333;stroke-width:1;" x1="600.604" x2="641.604" y1="379.0313" y2="379.0313"/><polygon fill="#333333" points="610.604,375.0313,600.604,379.0313,610.604,383.0313,606.604,379.0313" style="stroke:#333333;stroke-width:1;stroke-linejoin:miter;stroke-miterlimit:10;"/><text fill="#000000" font-family="sans-serif" font-size="13" lengthAdjust="spacing" textLength="275.3359" x="606.604" y="361.1748">Validate status, deadline, recipient and answers</text></g><path d="M10,394.0313 L70.1709,394.0313 L70.1709,402.3828 L60.1709,412.3828 L10,412.3828 L10,394.0313" fill="#EEEEEE" style="stroke:#000000;stroke-width:1.5;"/><rect fill="none" height="370.0547" style="stroke:#000000;stroke-width:1.5;" width="1377.958" x="10" y="394.0313"/><text fill="#000000" font-family="sans-serif" font-size="13" font-weight="700" lengthAdjust="spacing" textLength="15.1709" x="25" y="408.5264">alt</text><text fill="#000000" font-family="sans-serif" font-size="11" font-weight="700" lengthAdjust="spacing" textLength="96.5723" x="85.1709" y="407.4502">[valid submission]</text><g class="message" data-entity-1="part4" data-entity-2="part5" data-source-line="34" id="msg9"><polygon fill="#333333" points="876.9399,430.7344,886.9399,434.7344,876.9399,438.7344,880.9399,434.7344" style="stroke:#333333;stroke-width:1;stroke-linejoin:miter;stroke-miterlimit:10;"/><line style="stroke:#333333;stroke-width:1;" x1="599.604" x2="882.9399" y1="434.7344" y2="434.7344"/><text fill="#000000" font-family="sans-serif" font-size="13" lengthAdjust="spacing" textLength="153.2134" x="606.604" y="429.8779">Save response and details</text></g><g class="message" data-entity-1="part5" data-entity-2="part6" data-source-line="35" id="msg10"><polygon fill="#333333" points="1171.2104,461.0859,1181.2104,465.0859,1171.2104,469.0859,1175.2104,465.0859" style="stroke:#333333;stroke-width:1;stroke-linejoin:miter;stroke-miterlimit:10;"/><line style="stroke:#333333;stroke-width:1;" x1="888.9399" x2="1177.2104" y1="465.0859" y2="465.0859"/><text fill="#000000" font-family="sans-serif" font-size="13" lengthAdjust="spacing" textLength="270.2705" x="895.9399" y="460.2295">Insert Survey_Response and Response_Detail</text></g><g class="message" data-entity-1="part5" data-entity-2="part6" data-source-line="36" id="msg11"><polygon fill="#333333" points="1171.2104,491.4375,1181.2104,495.4375,1171.2104,499.4375,1175.2104,495.4375" style="stroke:#333333;stroke-width:1;stroke-linejoin:miter;stroke-miterlimit:10;"/><line style="stroke:#333333;stroke-width:1;" x1="888.9399" x2="1177.2104" y1="495.4375" y2="495.4375"/><text fill="#000000" font-family="sans-serif" font-size="13" lengthAdjust="spacing" textLength="225.4624" x="895.9399" y="490.5811">Update Survey_Recipient submitted_at</text></g><path d="M515.6904,510.4375 L580.9014,510.4375 L580.9014,518.7891 L570.9014,528.7891 L515.6904,528.7891 L515.6904,510.4375" fill="#EEEEEE" style="stroke:#000000;stroke-width:1.5;"/><rect fill="none" height="48.7031" style="stroke:#000000;stroke-width:1.5;" width="862.2676" x="515.6904" y="510.4375"/><text fill="#000000" font-family="sans-serif" font-size="13" font-weight="700" lengthAdjust="spacing" textLength="20.2109" x="530.6904" y="524.9326">opt</text><text fill="#000000" font-family="sans-serif" font-size="11" font-weight="700" lengthAdjust="spacing" textLength="173.6045" x="595.9014" y="523.8564">[text answers require translation]</text><g class="message" data-entity-1="part4" data-entity-2="part7" data-source-line="38" id="msg12"><polygon fill="#333333" points="1288.3687,547.1406,1298.3687,551.1406,1288.3687,555.1406,1292.3687,551.1406" style="stroke:#333333;stroke-width:1;stroke-linejoin:miter;stroke-miterlimit:10;"/><line style="stroke:#333333;stroke-width:1;" x1="599.604" x2="1294.3687" y1="551.1406" y2="551.1406"/><text fill="#000000" font-family="sans-serif" font-size="13" lengthAdjust="spacing" textLength="141.6226" x="606.604" y="546.2842">Dispatch translation task</text></g><g class="message" data-entity-1="part4" data-entity-2="part3" data-source-line="40" id="msg13"><polygon fill="#333333" points="381.4097,584.4922,371.4097,588.4922,381.4097,592.4922,377.4097,588.4922" style="stroke:#333333;stroke-width:1;stroke-linejoin:miter;stroke-miterlimit:10;"/><line style="stroke:#333333;stroke-width:1;stroke-dasharray:2,2;" x1="375.4097" x2="598.604" y1="588.4922" y2="588.4922"/><text fill="#000000" font-family="sans-serif" font-size="13" lengthAdjust="spacing" textLength="123.5698" x="387.4097" y="583.6357">Submission accepted</text></g><g class="message" data-entity-1="part3" data-entity-2="part2" data-source-line="41" id="msg14"><polygon fill="#333333" points="217.958,614.8438,207.958,618.8438,217.958,622.8438,213.958,618.8438" style="stroke:#333333;stroke-width:1;stroke-linejoin:miter;stroke-miterlimit:10;"/><line style="stroke:#333333;stroke-width:1;stroke-dasharray:2,2;" x1="211.958" x2="369.4097" y1="618.8438" y2="618.8438"/><text fill="#000000" font-family="sans-serif" font-size="13" lengthAdjust="spacing" textLength="44.0845" x="223.958" y="613.9873">200 OK</text></g><g class="message" data-entity-1="part2" data-entity-2="part1" data-source-line="42" id="msg15"><polygon fill="#333333" points="58.1309,645.1953,48.1309,649.1953,58.1309,653.1953,54.1309,649.1953" style="stroke:#333333;stroke-width:1;stroke-linejoin:miter;stroke-miterlimit:10;"/><line style="stroke:#333333;stroke-width:1;stroke-dasharray:2,2;" x1="52.1309" x2="205.958" y1="649.1953" y2="649.1953"/><text fill="#000000" font-family="sans-serif" font-size="13" lengthAdjust="spacing" textLength="114.8862" x="64.1309" y="644.3389">Show success state</text></g><line style="stroke:#000000;stroke-width:1;stroke-dasharray:2,2;" x1="10" x2="1387.958" y1="658.1953" y2="658.1953"/><text fill="#000000" font-family="sans-serif" font-size="11" font-weight="700" lengthAdjust="spacing" textLength="106.3477" x="15" y="669.6143">[invalid submission]</text><g class="message" data-entity-1="part4" data-entity-2="part3" data-source-line="44" id="msg16"><polygon fill="#333333" points="381.4097,691.3828,371.4097,695.3828,381.4097,699.3828,377.4097,695.3828" style="stroke:#333333;stroke-width:1;stroke-linejoin:miter;stroke-miterlimit:10;"/><line style="stroke:#333333;stroke-width:1;stroke-dasharray:2,2;" x1="375.4097" x2="598.604" y1="695.3828" y2="695.3828"/><text fill="#000000" font-family="sans-serif" font-size="13" lengthAdjust="spacing" textLength="157.5171" x="387.4097" y="690.5264">Business or validation error</text></g><g class="message" data-entity-1="part3" data-entity-2="part2" data-source-line="45" id="msg17"><polygon fill="#333333" points="217.958,721.7344,207.958,725.7344,217.958,729.7344,213.958,725.7344" style="stroke:#333333;stroke-width:1;stroke-linejoin:miter;stroke-miterlimit:10;"/><line style="stroke:#333333;stroke-width:1;stroke-dasharray:2,2;" x1="211.958" x2="369.4097" y1="725.7344" y2="725.7344"/><text fill="#000000" font-family="sans-serif" font-size="13" lengthAdjust="spacing" textLength="85.979" x="223.958" y="720.8779">Error response</text></g><g class="message" data-entity-1="part2" data-entity-2="part1" data-source-line="46" id="msg18"><polygon fill="#333333" points="58.1309,752.0859,48.1309,756.0859,58.1309,760.0859,54.1309,756.0859" style="stroke:#333333;stroke-width:1;stroke-linejoin:miter;stroke-miterlimit:10;"/><line style="stroke:#333333;stroke-width:1;stroke-dasharray:2,2;" x1="52.1309" x2="205.958" y1="756.0859" y2="756.0859"/><text fill="#000000" font-family="sans-serif" font-size="13" lengthAdjust="spacing" textLength="119.939" x="64.1309" y="751.2295">Show error message</text></g><?plantuml-src TLJ1Rjim3BthAuZjiW4fK6o73JaCIE9aA9PYIRpjLA1WB3OHuaYUH2SjXltxACbEqcBrnJ3vI3u-FOiDrmGb_Mx9LWI5mOt7FLn1sQxtXkNb3_G4AmgDiu7KrcY21-TuxHwL2ZjZ6um5OOlQ7OtTm0FMWhl8zBt_A91dvBqxJbpjFBpzc9uKdfi7cXjBO-Sr-PmlQsJwwl4f8HResLIcGSkNe0BzxdKWLhkDTwtLtSJfvzcdsKZzLGehZYEurMHPDUSQUBCYIKAv6DtPRls264tz1Z30RFeSd14JPzcxkYQVG9ENcAXbHfRa3wQY12l_rmeMv8C973MxioED3NTT5qeZune32NOvXzYgInLZ9IgtabZXUctuTdbdVtYqGPGnpi8o9XFoTgbKjpLSVP5rXZ0pTGs2FSfWUMi8YQ-QJIDYCkoz438_ttjX4jFbi8DdzkygjzzBZm64FEH6lrTb12w6C7Uekou34BuXSiiZFOaA9Xx58eAByJ1oza-T0GVnAy47NUH-TQeend2L1tGAHfbYdqolS7iqDWVBZl8lh8q4I5WYjs40cb3Nuh_1cKdYrSaYVgaP3h4ghnk2S4bswvShyK0dRLAjJgu9sPJzLZUIzNnUuWBVVzndkpsl-zaalY-NxyHdqlV8gS8r34oFV3fHBp-WyGHyzaC2diZVBaKa4nhaQdk90iQmIr2okj_rmX590y2g8h5e1amI89hgm_KrVF-MWj57KVPi22dUkgFmbheGqW6G8hapmDZN1Cv3nssG4v8Q-N4F-G0Z0P8RnR-OFesnirDVPP5gOIzDSICiPCr_?></g></svg>