<svg xmlns="http://www.w3.org/2000/svg" xmlns:xlink="http://www.w3.org/1999/xlink" contentStyleType="text/css" data-diagram-type="DESCRIPTION" height="818px" preserveAspectRatio="none" style="width:1565px;height:818px;background:#FFFFFF;" version="1.1" viewBox="0 0 1565 818" width="1565px" zoomAndPan="magnify"><?plantuml 1.2026.4?><defs/><g><g class="title" data-source-line="6"><text fill="#000000" font-family="sans-serif" font-size="14" font-weight="700" lengthAdjust="spacing" textLength="382.792" x="587.604" y="24.5332">System Architecture Diagram - Student Feedback System</text></g><!--cluster Public Entry--><g class="cluster" data-qualified-name="Public Entry" data-source-line="33" id="ent0002"><rect fill="#E8F7FA" height="116" rx="2.5" ry="2.5" style="stroke:#2F4F4F;stroke-width:1;" width="171" x="259" y="314.6094"/><text fill="#000000" font-family="sans-serif" font-size="12" font-weight="700" lengthAdjust="spacing" textLength="70.0137" x="309.4932" y="329.0664">Public Entry</text></g><!--cluster Presentation Layer--><g class="cluster" data-qualified-name="Presentation Layer" data-source-line="37" id="ent0004"><rect fill="#E8F7FA" height="116" rx="2.5" ry="2.5" style="stroke:#2F4F4F;stroke-width:1;" width="166" x="261.5" y="454.6094"/><text fill="#000000" font-family="sans-serif" font-size="12" font-weight="700" lengthAdjust="spacing" textLength="108.041" x="290.4795" y="469.0664">Presentation Layer</text></g><!--cluster Application Layer--><g class="cluster" data-qualified-name="Application Layer" data-source-line="41" id="ent0006"><rect fill="#E8F7FA" height="130" rx="2.5" ry="2.5" style="stroke:#2F4F4F;stroke-width:1;" width="165" x="684.5" y="369.6094"/><text fill="#000000" font-family="sans-serif" font-size="12" font-weight="700" lengthAdjust="spacing" textLength="100.6875" x="716.6563" y="384.0664">Application Layer</text></g><!--cluster Application Core--><g class="cluster" data-qualified-name="Application Core" data-source-line="45" id="ent0008"><rect fill="#E8F7FA" height="116" rx="2.5" ry="2.5" style="stroke:#2F4F4F;stroke-width:1;" width="156" x="1071" y="376.6094"/><text fill="#000000" font-family="sans-serif" font-size="12" font-weight="700" lengthAdjust="spacing" textLength="96.0059" x="1100.9971" y="391.0664">Application Core</text></g><!--cluster Persistence Layer--><g class="cluster" data-qualified-name="Persistence Layer" data-source-line="49" id="ent0010"><rect fill="#E8F7FA" height="132" rx="2.5" ry="2.5" style="stroke:#2F4F4F;stroke-width:1;" width="186" x="1365" y="45.6094"/><text fill="#000000" font-family="sans-serif" font-size="12" font-weight="700" lengthAdjust="spacing" textLength="102.7324" x="1406.6338" y="60.0664">Persistence Layer</text></g><!--cluster Integration Layer--><g class="cluster" data-qualified-name="Integration Layer" data-source-line="53" id="ent0012"><rect fill="#E8F7FA" height="603" rx="2.5" ry="2.5" style="stroke:#2F4F4F;stroke-width:1;" width="179" x="1368.5" y="201.6094"/><text fill="#000000" font-family="sans-serif" font-size="12" font-weight="700" lengthAdjust="spacing" textLength="97.3535" x="1409.3232" y="216.0664">Integration Layer</text></g><!--entity Nginx--><g class="entity" data-qualified-name="Public Entry.Nginx" data-source-line="34" id="ent0003"><rect fill="#E8F7FA" height="65.2813" rx="2.5" ry="2.5" style="stroke:#2F4F4F;stroke-width:0.5;" width="139.373" x="275" y="349.1094"/><text fill="#000000" font-family="sans-serif" font-size="12" lengthAdjust="spacing" textLength="119.373" x="285" y="371.5664">Nginx / Reverse Proxy</text><text fill="#000000" font-family="sans-serif" font-size="12" lengthAdjust="spacing" textLength="80.0273" x="285" y="386.6602">SPA static files</text><text fill="#000000" font-family="sans-serif" font-size="12" lengthAdjust="spacing" textLength="52.0254" x="285" y="401.7539">/api proxy</text></g><!--entity SPA--><g class="entity" data-qualified-name="Presentation Layer.SPA" data-source-line="38" id="ent0005"><rect fill="#E8F7FA" height="65.2813" rx="2.5" ry="2.5" style="stroke:#2F4F4F;stroke-width:0.5;" width="133.7188" x="277.5" y="489.1094"/><text fill="#000000" font-family="sans-serif" font-size="12" lengthAdjust="spacing" textLength="58.6934" x="287.5" y="511.5664">React SPA</text><text fill="#000000" font-family="sans-serif" font-size="12" lengthAdjust="spacing" textLength="91.7051" x="287.5" y="526.6602">TypeScript + Vite</text><text fill="#000000" font-family="sans-serif" font-size="12" lengthAdjust="spacing" textLength="113.7188" x="287.5" y="541.7539">React Router + Axios</text></g><!--entity Backend--><g class="entity" data-qualified-name="Application Layer.Backend" data-source-line="42" id="ent0007"><rect fill="#E8F7FA" height="80.375" rx="2.5" ry="2.5" style="stroke:#2F4F4F;stroke-width:0.5;" width="132.7402" x="700.5" y="403.6094"/><text fill="#000000" font-family="sans-serif" font-size="12" lengthAdjust="spacing" textLength="112.7402" x="710.5" y="426.0664">Spring Boot Backend</text><text fill="#000000" font-family="sans-serif" font-size="12" lengthAdjust="spacing" textLength="42.0293" x="710.5" y="441.1602">Java 21</text><text fill="#000000" font-family="sans-serif" font-size="12" lengthAdjust="spacing" textLength="108.3633" x="710.5" y="456.2539">WebMVC + Security</text><text fill="#000000" font-family="sans-serif" font-size="12" lengthAdjust="spacing" textLength="107.3613" x="710.5" y="471.3477">WebSocket/STOMP</text></g><!--entity Core--><g class="entity" data-qualified-name="Application Core.Core" data-source-line="46" id="ent0009"><rect fill="#E8F7FA" height="65.2813" rx="2.5" ry="2.5" style="stroke:#2F4F4F;stroke-width:0.5;" width="124.0566" x="1087" y="411.1094"/><text fill="#000000" font-family="sans-serif" font-size="12" lengthAdjust="spacing" textLength="102.0352" x="1097" y="433.5664">Use Case Services</text><text fill="#000000" font-family="sans-serif" font-size="12" lengthAdjust="spacing" textLength="77.3672" x="1097" y="448.6602">Domain Model</text><text fill="#000000" font-family="sans-serif" font-size="12" lengthAdjust="spacing" textLength="104.0566" x="1097" y="463.7539">Input / Output Ports</text></g><!--entity SQL--><g class="entity" data-qualified-name="Persistence Layer.SQL" data-source-line="50" id="ent0011"><path d="M1381,89.6094 C1381,79.6094 1457.9067,79.6094 1457.9067,79.6094 C1457.9067,79.6094 1534.8135,79.6094 1534.8135,89.6094 L1534.8135,151.4375 C1534.8135,161.4375 1457.9067,161.4375 1457.9067,161.4375 C1457.9067,161.4375 1381,161.4375 1381,151.4375 L1381,89.6094" fill="#F2F7FF" style="stroke:#2F4F4F;stroke-width:0.5;"/><path d="M1381,89.6094 C1381,99.6094 1457.9067,99.6094 1457.9067,99.6094 C1457.9067,99.6094 1534.8135,99.6094 1534.8135,89.6094" fill="none" style="stroke:#2F4F4F;stroke-width:0.5;"/><text fill="#000000" font-family="sans-serif" font-size="14" lengthAdjust="spacing" textLength="133.8135" x="1391" y="118.1426">Microsoft SQL Server</text><text fill="#000000" font-family="sans-serif" font-size="14" lengthAdjust="spacing" textLength="90.2686" x="1391" y="135.752">JPA/Hibernate</text><text fill="#000000" font-family="sans-serif" font-size="14" lengthAdjust="spacing" textLength="112.0273" x="1391" y="153.3613">Flyway migrations</text></g><!--entity MQ--><g class="entity" data-qualified-name="Integration Layer.MQ" data-source-line="54" id="ent0013"><path d="M1400,236.1094 L1515.8203,236.1094 C1520.8203,236.1094 1520.8203,258.7188 1520.8203,258.7188 C1520.8203,258.7188 1520.8203,281.3281 1515.8203,281.3281 L1400,281.3281 C1395,281.3281 1395,258.7188 1395,258.7188 C1395,258.7188 1395,236.1094 1400,236.1094" fill="#FFF7E6" style="stroke:#2F4F4F;stroke-width:0.5;"/><path d="M1515.8203,236.1094 C1510.8203,236.1094 1510.8203,258.7188 1510.8203,258.7188 C1510.8203,281.3281 1515.8203,281.3281 1515.8203,281.3281" fill="none" style="stroke:#2F4F4F;stroke-width:0.5;"/><text fill="#000000" font-family="sans-serif" font-size="14" lengthAdjust="spacing" textLength="63.0205" x="1400" y="255.6426">RabbitMQ</text><text fill="#000000" font-family="sans-serif" font-size="14" lengthAdjust="spacing" textLength="105.8203" x="1400" y="273.252">Translation tasks</text></g><!--entity MinIO--><g class="entity" data-qualified-name="Integration Layer.MinIO" data-source-line="55" id="ent0014"><rect fill="#E8F7FA" height="50.1875" rx="2.5" ry="2.5" style="stroke:#2F4F4F;stroke-width:0.5;" width="123.4004" x="1396.5" y="316.6094"/><text fill="#000000" font-family="sans-serif" font-size="12" lengthAdjust="spacing" textLength="32.0039" x="1406.5" y="339.0664">MinIO</text><text fill="#000000" font-family="sans-serif" font-size="12" lengthAdjust="spacing" textLength="103.4004" x="1406.5" y="354.1602">Student documents</text></g><!--entity Resend--><g class="entity" data-qualified-name="Integration Layer.Resend" data-source-line="56" id="ent0015"><path d="M1400.046,411.4666 C1402.2259,406.03 1407.1281,405.8009 1410.3573,410.3871 C1413.7774,402.7011 1418.975,402.2074 1424.0403,408.8118 C1425.7582,403.8648 1430.4529,402.5665 1434.1568,406.5661 C1437.8637,399.659 1443.9313,400.0445 1448.1179,406.0473 C1450.8738,400.1378 1454.9471,400.8132 1458.7612,404.9231 C1463.2917,399.9371 1467.1306,400.0404 1470.7152,405.96 C1474.8116,400.5637 1479.2445,399.7564 1483.2778,406.028 C1488.2948,400.9012 1492.2638,400.2255 1495.7616,407.5512 C1500.3633,402.2063 1504.8609,404.2595 1507.3391,409.808 C1511.232,403.213 1516.3613,404.4381 1519.8673,410.2003 C1526.214,413.8268 1524.4292,419.2346 1519.2897,422.3133 C1525.4638,424.8191 1525.7559,430.0257 1520.3896,433.651 C1526.0565,436.6359 1527.4828,440.8781 1522.1292,445.4833 C1525.9029,448.4003 1525.8703,453.3792 1521.1394,455.4518 C1525.6221,459.3481 1526.7391,462.8821 1520.6483,466.2998 C1524.4054,470.2968 1523.1263,475.0472 1518.1129,476.9579 C1515.0844,482.5919 1510.919,483.2694 1506.1886,479.0089 C1504.1123,484.0171 1499.2085,486.3809 1495.2351,481.0112 C1492.3913,487.8719 1485.8781,487.883 1482.0815,481.994 C1479.9103,488.9352 1475.1574,489.3181 1470.2818,484.7719 C1468.074,490.6677 1462.3614,490.9837 1458.6451,486.4559 C1454.0844,491.0547 1449.149,489.3296 1447.7546,483.2321 C1443.1937,489.7653 1437.849,488.3609 1434.5146,481.9752 C1429.6582,487.3838 1425.4624,487.6794 1422.0895,480.5098 C1418.5408,485.5588 1413.9584,484.8831 1411.715,479.243 C1406.9697,485.0876 1402.9407,485.4742 1398.3458,479.0787 C1392.2064,475.9084 1392.8036,472.2866 1396.9019,467.8051 C1391.0158,465.7155 1389.9749,461.6168 1393.8721,456.8272 C1386.7375,454.3854 1385.1997,448.2508 1391.8209,443.6653 C1386.9875,439.3807 1387.3606,435.4615 1393.3099,432.6322 C1388.8866,427.7606 1390.2731,423.0973 1396.9858,422.1195 C1392.7592,416.9617 1394.1727,413.7231 1400.046,411.4666" fill="#F8FBFD" style="stroke:#708090;stroke-width:0.5;"/><text fill="#000000" font-family="sans-serif" font-size="14" lengthAdjust="spacing" textLength="48.2549" x="1405" y="431.6426">Resend</text><text fill="#000000" font-family="sans-serif" font-size="14" lengthAdjust="spacing" textLength="105.8135" x="1405" y="449.252">Email verification</text><text fill="#000000" font-family="sans-serif" font-size="14" lengthAdjust="spacing" textLength="100.3789" x="1405" y="466.8613">Reset password</text></g><!--entity AI--><g class="entity" data-qualified-name="Integration Layer.AI" data-source-line="57" id="ent0016"><path d="M1392.9849,528.4167 C1397.5596,520.6207 1402.5768,521.7673 1407.3507,528.2158 C1410.3038,521.0177 1415.866,519.78 1420.5758,526.5529 C1422.4147,520.242 1428.1853,519.6979 1432.071,524.4204 C1435.3313,518.0291 1441.5237,515.6744 1446.5823,522.4364 C1450.3369,515.9988 1454.9094,514.9787 1459.591,521.5063 C1463.5156,516.3382 1468.6688,516.3659 1471.2681,522.836 C1476.2216,517.2984 1482.4614,519.8192 1484.6575,525.9894 C1489.4809,520.0886 1494.6435,520.2357 1498.6682,526.8813 C1502.8811,521.9362 1508.0099,522.4616 1510.8283,528.4345 C1513.9028,522.7795 1519.9966,522.4384 1523.3448,528.1327 C1530.4704,530.4101 1531.3356,535.1597 1526.3272,540.3896 C1532.5351,542.1451 1533.534,546.0559 1529.8846,551.0888 C1536.5417,552.24 1537.078,557.1603 1533.5779,561.8104 C1538.5534,567.3226 1536.9478,571.5834 1529.8858,573.1901 C1535.4285,578.7399 1533.7089,582.7496 1527.39,585.9858 C1531.3405,591.5959 1530.6999,595.0017 1523.6066,596.7189 C1520.4952,602.253 1515.5002,602.3478 1511.7523,597.4415 C1507.0415,604.6049 1502.0729,603.5612 1497.1424,597.6878 C1494.5258,603.9877 1489.4611,604.2194 1485.9661,598.5049 C1482.7152,606.4995 1476.9582,606.6094 1471.2132,601.263 C1468.0615,607.2568 1463.0622,606.346 1459.5382,601.6703 C1454.8422,607.1328 1448.039,607.6754 1445.0465,599.817 C1440.678,604.6144 1436.2729,604.0304 1432.8207,598.7099 C1429.2532,604.8509 1423.2685,604.4632 1419.3211,599.1579 C1414.4913,604.4257 1408.2375,602.9208 1406.0858,596.2011 C1401.5068,601.3125 1397.6989,601.6676 1393.5225,595.7429 C1388.2389,593.5894 1386.1693,590.4264 1390.3716,585.3868 C1383.2535,583.0725 1382.3946,578.2575 1387.0968,572.8545 C1381.171,572.2304 1380.2627,567.492 1383.562,563.4139 C1379.57,559.126 1380.047,553.5515 1386.4423,551.8513 C1383.1231,546.834 1383.5521,541.8786 1390.6259,540.7932 C1384.5004,536.1135 1385.7262,530.5454 1392.9849,528.4167" fill="#F8FBFD" style="stroke:#708090;stroke-width:0.5;"/><text fill="#000000" font-family="sans-serif" font-size="14" lengthAdjust="spacing" textLength="69.248" x="1399.5" y="549.6426">AI Provider</text><text fill="#000000" font-family="sans-serif" font-size="14" lengthAdjust="spacing" textLength="116.71" x="1399.5" y="567.252">Gemini-compatible</text><text fill="#000000" font-family="sans-serif" font-size="14" lengthAdjust="spacing" textLength="74.6758" x="1399.5" y="584.8613">AI summary</text></g><!--entity Embed--><g class="entity" data-qualified-name="Integration Layer.Embed" data-source-line="58" id="ent0017"><rect fill="#E8F7FA" height="65.2813" rx="2.5" ry="2.5" style="stroke:#2F4F4F;stroke-width:0.5;" width="129.3711" x="1393.5" y="638.1094"/><text fill="#000000" font-family="sans-serif" font-size="12" lengthAdjust="spacing" textLength="104.0566" x="1403.5" y="660.5664">Embedding Service</text><text fill="#000000" font-family="sans-serif" font-size="12" lengthAdjust="spacing" textLength="42.6797" x="1403.5" y="675.6602">FastAPI</text><text fill="#000000" font-family="sans-serif" font-size="12" lengthAdjust="spacing" textLength="109.3711" x="1403.5" y="690.7539">multilingual-e5-small</text></g><!--entity BIRT--><g class="entity" data-qualified-name="Integration Layer.BIRT" data-source-line="59" id="ent0018"><rect fill="#E8F7FA" height="50.1875" rx="2.5" ry="2.5" style="stroke:#2F4F4F;stroke-width:0.5;" width="114.7051" x="1400.5" y="738.6094"/><text fill="#000000" font-family="sans-serif" font-size="12" lengthAdjust="spacing" textLength="69.3516" x="1410.5" y="761.0664">Eclipse BIRT</text><text fill="#000000" font-family="sans-serif" font-size="12" lengthAdjust="spacing" textLength="94.7051" x="1410.5" y="776.1602">PDF/XLSX export</text></g><!--entity Browser--><g class="entity" data-qualified-name="Browser" data-source-line="31" id="ent0001"><ellipse cx="87.3203" cy="342.6094" fill="#F1F1F1" rx="8" ry="8" style="stroke:#181818;stroke-width:0.5;"/><path d="M87.3203,350.6094 L87.3203,377.6094 M74.3203,358.6094 L100.3203,358.6094 M87.3203,377.6094 L74.3203,392.6094 M87.3203,377.6094 L100.3203,392.6094" fill="none" style="stroke:#181818;stroke-width:0.5;"/><text fill="#000000" font-family="sans-serif" font-size="14" lengthAdjust="spacing" textLength="84.793" x="6" y="408.6426">User Browser</text><text fill="#000000" font-family="sans-serif" font-size="14" lengthAdjust="spacing" textLength="162.6406" x="6" y="426.252">Admin / Lecturer / Student</text></g><g class="entity" data-qualified-name="GMN32" data-source-line="78" id="ent0033"><path d="M594,294.1094 L594,353.1641 L940.0444,353.1641 L940.0444,304.1094 L930.0444,294.1094 L594,294.1094" fill="#FEFFDD" style="stroke:#181818;stroke-width:0.5;"/><path d="M930.0444,294.1094 L930.0444,304.1094 L940.0444,304.1094 L930.0444,294.1094" fill="#FEFFDD" style="stroke:#181818;stroke-width:1;"/><text fill="#000000" font-family="sans-serif" font-size="13" lengthAdjust="spacing" textLength="310.0767" x="600" y="312.6045">Backend ch&#237;nh l&#224; &#7913;ng d&#7909;ng Spring Boot modular theo</text><text fill="#000000" font-family="sans-serif" font-size="13" lengthAdjust="spacing" textLength="317.9414" x="600" y="328.9561">Ports and Adapters. C&#225;c th&#224;nh ph&#7847;n RabbitMQ, MinIO,</text><text fill="#000000" font-family="sans-serif" font-size="13" lengthAdjust="spacing" textLength="325.0444" x="600" y="345.3076">AI provider v&#224; embedding-service l&#224; th&#224;nh ph&#7847;n ph&#7909; tr&#7907;.</text></g><!--link Browser to Nginx--><g class="link" data-entity-1="ent0001" data-entity-2="ent0003" data-link-type="dependency" data-source-line="62" id="lnk19"><path d="M169.18,381.6094 C203.18,381.6094 237.34,381.6094 269.91,381.6094" fill="none" id="Browser-to-Nginx" style="stroke:#333333;stroke-width:1;"/><polygon fill="#333333" points="274.91,381.6094,265.91,377.6094,269.91,381.6094,265.91,385.6094,274.91,381.6094" style="stroke:#333333;stroke-width:1;stroke-linejoin:miter;stroke-miterlimit:10;"/><text fill="#000000" font-family="sans-serif" font-size="13" lengthAdjust="spacing" textLength="42.6118" x="200" y="378.1045">HTTPS</text></g><!--link Nginx to SPA--><g class="link" data-entity-1="ent0003" data-entity-2="ent0005" data-link-type="dependency" data-source-line="63" id="lnk20"><path d="M344.5,414.2294 C344.5,436.6494 344.5,461.3194 344.5,483.7894" fill="none" id="Nginx-to-SPA" style="stroke:#333333;stroke-width:1;"/><polygon fill="#333333" points="344.5,488.7894,348.5,479.7894,344.5,483.7894,340.5,479.7894,344.5,488.7894" style="stroke:#333333;stroke-width:1;stroke-linejoin:miter;stroke-miterlimit:10;"/><text fill="#000000" font-family="sans-serif" font-size="13" lengthAdjust="spacing" textLength="61.4136" x="302" y="457.1045">serve SPA</text></g><!--link SPA to Nginx--><g class="link" data-entity-1="ent0005" data-entity-2="ent0003" data-link-type="dependency" data-source-line="64" id="lnk21"><path d="M344.5,488.7894 C344.5,466.3194 344.5,441.6494 344.5,419.2294" fill="none" id="SPA-to-Nginx" style="stroke:#333333;stroke-width:1;"/><polygon fill="#333333" points="344.5,414.2294,340.5,423.2294,344.5,419.2294,348.5,423.2294,344.5,414.2294" style="stroke:#333333;stroke-width:1;stroke-linejoin:miter;stroke-miterlimit:10;"/><text fill="#000000" font-family="sans-serif" font-size="13" lengthAdjust="spacing" textLength="50.5718" x="307.5" y="457.1045">API calls</text></g><!--link Nginx to Backend--><g class="link" data-entity-1="ent0003" data-entity-2="ent0007" data-link-type="dependency" data-source-line="65" id="lnk22"><path d="M414.47,391.7794 C493.69,403.4594 617.7635,421.7497 695.5135,433.2197" fill="none" id="Nginx-to-Backend" style="stroke:#333333;stroke-width:1;"/><polygon fill="#333333" points="700.46,433.9494,692.1401,428.6787,695.5135,433.2197,690.9726,436.593,700.46,433.9494" style="stroke:#333333;stroke-width:1;stroke-linejoin:miter;stroke-miterlimit:10;"/><text fill="#000000" font-family="sans-serif" font-size="13" lengthAdjust="spacing" textLength="20.96" x="495" y="393.1045">/api</text></g><!--link SPA to Backend--><g class="link" data-entity-1="ent0005" data-entity-2="ent0007" data-link-type="dependency" data-source-line="66" id="lnk23"><path d="M416.5861,508.4273 C495.4461,493.7973 616.6039,471.3214 695.3039,456.7214" fill="none" id="SPA-Backend" style="stroke:#333333;stroke-width:1;"/><polygon fill="#333333" points="411.67,509.3394,421.2486,511.6306,416.5861,508.4273,419.7894,503.7648,411.67,509.3394" style="stroke:#333333;stroke-width:1;stroke-linejoin:miter;stroke-miterlimit:10;"/><polygon fill="#333333" points="700.22,455.8094,690.6414,453.5181,695.3039,456.7214,692.1006,461.3839,700.22,455.8094" style="stroke:#333333;stroke-width:1;stroke-linejoin:miter;stroke-miterlimit:10;"/><text fill="#000000" font-family="sans-serif" font-size="13" lengthAdjust="spacing" textLength="116.3081" x="447" y="462.1045">STOMP/WebSocket</text><text fill="#000000" font-family="sans-serif" font-size="13" lengthAdjust="spacing" textLength="52.749" x="478.7795" y="478.4561">if proxied</text></g><!--link Backend to Core--><g class="link" data-entity-1="ent0007" data-entity-2="ent0009" data-link-type="dependency" data-source-line="68" id="lnk24"><path d="M833.76,443.6094 C904.92,443.6094 1012.49,443.6094 1081.81,443.6094" fill="none" id="Backend-to-Core" style="stroke:#333333;stroke-width:1;"/><polygon fill="#333333" points="1086.81,443.6094,1077.81,439.6094,1081.81,443.6094,1077.81,447.6094,1086.81,443.6094" style="stroke:#333333;stroke-width:1;stroke-linejoin:miter;stroke-miterlimit:10;"/><text fill="#000000" font-family="sans-serif" font-size="13" lengthAdjust="spacing" textLength="83.0845" x="971" y="424.1045">controller calls</text><text fill="#000000" font-family="sans-serif" font-size="13" lengthAdjust="spacing" textLength="60.7026" x="982.1909" y="440.4561">input ports</text></g><!--link Core to SQL--><g class="link" data-entity-1="ent0009" data-entity-2="ent0011" data-link-type="dependency" data-source-line="69" id="lnk25"><path d="M1168.37,410.8094 C1195.48,362.4394 1243,277.6094 1243,277.6094 C1243,277.6094 1333.6188,211.1273 1397.0188,164.6073" fill="none" id="Core-to-SQL" style="stroke:#333333;stroke-width:1;"/><polygon fill="#333333" points="1401.05,161.6494,1391.4275,163.7487,1397.0188,164.6073,1396.1601,170.1986,1401.05,161.6494" style="stroke:#333333;stroke-width:1;stroke-linejoin:miter;stroke-miterlimit:10;"/><text fill="#000000" font-family="sans-serif" font-size="13" lengthAdjust="spacing" textLength="98.9917" x="1247" y="201.1045">persistence ports</text></g><!--link Core to MQ--><g class="link" data-entity-1="ent0009" data-entity-2="ent0013" data-link-type="dependency" data-source-line="70" id="lnk26"><path d="M1183.05,410.9194 C1209.78,384.4694 1243,351.6094 1243,351.6094 C1243,351.6094 1357,298.6094 1357,298.6094 C1357,298.6094 1373.2475,292.106 1395.9275,283.036" fill="none" id="Core-to-MQ" style="stroke:#333333;stroke-width:1;"/><polygon fill="#333333" points="1400.57,281.1794,1390.7282,280.8072,1395.9275,283.036,1393.6987,288.2353,1400.57,281.1794" style="stroke:#333333;stroke-width:1;stroke-linejoin:miter;stroke-miterlimit:10;"/><text fill="#000000" font-family="sans-serif" font-size="13" lengthAdjust="spacing" textLength="97.5508" x="1247.5" y="300.1045">async translation</text></g><!--link Core to MinIO--><g class="link" data-entity-1="ent0009" data-entity-2="ent0014" data-link-type="dependency" data-source-line="71" id="lnk27"><path d="M1211.02,423.3394 C1264.79,405.4694 1337.9551,381.166 1391.6151,363.336" fill="none" id="Core-to-MinIO" style="stroke:#333333;stroke-width:1;"/><polygon fill="#333333" points="1396.36,361.7594,1386.5578,360.8014,1391.6151,363.336,1389.0805,368.3932,1396.36,361.7594" style="stroke:#333333;stroke-width:1;stroke-linejoin:miter;stroke-miterlimit:10;"/><text fill="#000000" font-family="sans-serif" font-size="13" lengthAdjust="spacing" textLength="104.0635" x="1244" y="374.1045">document storage</text></g><!--link Core to Resend--><g class="link" data-entity-1="ent0009" data-entity-2="ent0015" data-link-type="dependency" data-source-line="72" id="lnk28"><path d="M1211.02,443.6094 C1262.69,443.6094 1331.66,443.6094 1384.97,443.6094" fill="none" id="Core-to-Resend" style="stroke:#333333;stroke-width:1;"/><polygon fill="#333333" points="1389.97,443.6094,1380.97,439.6094,1384.97,443.6094,1380.97,447.6094,1389.97,443.6094" style="stroke:#333333;stroke-width:1;stroke-linejoin:miter;stroke-miterlimit:10;"/><text fill="#000000" font-family="sans-serif" font-size="13" lengthAdjust="spacing" textLength="31.0654" x="1280.5" y="440.1045">email</text></g><!--link Core to AI--><g class="link" data-entity-1="ent0009" data-entity-2="ent0016" data-link-type="dependency" data-source-line="73" id="lnk29"><path d="M1211.02,467.0594 C1260.94,486.2494 1327.0129,511.6454 1379.8229,531.9454" fill="none" id="Core-to-AI" style="stroke:#333333;stroke-width:1;"/><polygon fill="#333333" points="1384.49,533.7394,1377.5245,526.7765,1379.8229,531.9454,1374.6541,534.2438,1384.49,533.7394" style="stroke:#333333;stroke-width:1;stroke-linejoin:miter;stroke-miterlimit:10;"/><text fill="#000000" font-family="sans-serif" font-size="13" lengthAdjust="spacing" textLength="78.0127" x="1257" y="477.1045">text summary</text></g><!--link Core to Embed--><g class="link" data-entity-1="ent0009" data-entity-2="ent0017" data-link-type="dependency" data-source-line="74" id="lnk30"><path d="M1179.43,476.1994 C1206.67,506.3794 1243,546.6094 1243,546.6094 C1243,546.6094 1357,620.6094 1357,620.6094 C1357,620.6094 1369.1874,626.7042 1388.9174,636.5642" fill="none" id="Core-to-Embed" style="stroke:#333333;stroke-width:1;"/><polygon fill="#333333" points="1393.39,638.7994,1387.1275,631.198,1388.9174,636.5642,1383.5512,638.3542,1393.39,638.7994" style="stroke:#333333;stroke-width:1;stroke-linejoin:miter;stroke-miterlimit:10;"/><text fill="#000000" font-family="sans-serif" font-size="13" lengthAdjust="spacing" textLength="70.8271" x="1261" y="543.1045">embeddings</text></g><!--link Core to BIRT--><g class="link" data-entity-1="ent0009" data-entity-2="ent0018" data-link-type="dependency" data-source-line="75" id="lnk31"><path d="M1165.36,476.1394 C1191.77,532.0894 1243,640.6094 1243,640.6094 C1243,640.6094 1357,720.6094 1357,720.6094 C1357,720.6094 1373.1163,727.5451 1395.6863,737.2451" fill="none" id="Core-to-BIRT" style="stroke:#333333;stroke-width:1;"/><polygon fill="#333333" points="1400.28,739.2194,1393.5907,731.9907,1395.6863,737.2451,1390.4319,739.3407,1400.28,739.2194" style="stroke:#333333;stroke-width:1;stroke-linejoin:miter;stroke-miterlimit:10;"/><text fill="#000000" font-family="sans-serif" font-size="13" lengthAdjust="spacing" textLength="92.498" x="1250" y="637.1045">report rendering</text></g><!--link Backend to GMN32--><g class="link" data-entity-1="ent0007" data-entity-2="ent0033" data-link-type="association" data-source-line="78" id="lnk34"><path d="M767,403.4994 C767,401.1494 767,363.6094 767,363.6094 C767,363.6094 767,359.2994 767,353.5194" fill="none" id="Backend-GMN32" style="stroke:#333333;stroke-width:1;stroke-dasharray:7,7;"/></g><?plantuml-src bLNDZjis4BxhAGRkCN6CRD4cM1G5v1yb3jPTstBJ77IXfR5DB4Mg9EMrMlHTKXH1qKDVe7lS9zatwP2IRTdPJL5V975-lfdvlg4jjm8Xhep574ATRhZ5r9OQOSZPMhCSkX3RCaDf8KBCbYozQTo3GE3AWbMW-NfZ8UEQGhcIWRdXic0ks6nOfcwvNCEA2OCjY-0IRLKW54fKxgDbAmY4hJ6s5TNcaZAv5cs7mndy6W3z-XImrggKsK09fU6hqUleLHJMDgKprFNvaEcRM32BRpIhl3LIqiRy5uIN5y5lBOICMRPavac0w880ely0Q2VykSJowMnHz6hqxV_8bWfLPazcUntre-5dsHxF56gjRfl0h_ql25XgwRFpeq4DVJBJCv5XbdC9FRYgzQ7fjH561vZP-mN1aPlEj5mAdi98MbrrccfRvX_MNEuepHotg6dKKwrsLIBZQGZ6CakHAoxG9BB72Ww5itee7qTDd41fD5GAS_g3ArQXVWHmZjGPKFv4BaXwSQfvOU4Pl2VH9xAspbLfgRbd4EwuCXwF0ixGmgAWnhuC5XVQwRwlbFKKeSmI-Ovj6LoyJEHFk9oy7n1CZ6cfkQtyKQp8p_RYnVLaMa-r3lm2_41fV0ITk8E1qs-CUijJDyMXoXanE54PYaIEPL5Q6lvrQTtBL6bRT-iIdW-NwE6qyZB5qtOFMzAPy5Ghe-W-Y6TN7jHfvjqqxBtbIzIIkGb7ehfb5UISBXPNV3FUsTKPtbXQR5nEyUebwipPSidjP4OqQYQDg3qjCpTrnidiV1mJBiVN9Atc9ijKMkRqqhWxeu-erufqOZnR8ngO0Eg4hvfnEvKOj7H36NDBk-NZQ_TsWd3inBpbcHl26wJ5uTrKvGNbM0eQ1DbDcUTCru8En-VrZl8bPfdJJyCV3OyP6qx7YSnBOJdTcEkIYIv-qpKv4yBdyL6VfKe5BuYY_dY-IEHq6FK-NCKV07S5KLwBZ2oEWMQ5eTlzljunk8ItYyKq3kelT-wMynACuzVlXVjk-rE5a58zfXNJY9YiRf5zo7UdvrxmlSC299Al_BvpQYVOkxaG9qxoJ-dMrae8AjQ3KO2Nisl91Dx95qjIl8IYfTupXycCxCnKCWLxL5BBxfH1BdkzqBsaDFqp7Jrgxia5dLQEvyJm9LZSsJtHHvDdoKSq7BSASbIGIQChb1wI54GUGI2LHLWgQrKEQdMu5_QpIJVtVyiDYFkFy73t5yacUxZxvDJJkeHobPM2QR0RL87VTs0K6cQie1lFl831_UyqXytzHyfKR1x--LF2VjEUrwDu7b1VHQDis1BQeOckgONgQpXDGe-xJpJWXxi_NWIkMjTCy2y0?></g></svg>