<svg xmlns="http://www.w3.org/2000/svg" xmlns:xlink="http://www.w3.org/1999/xlink" contentStyleType="text/css" data-diagram-type="DESCRIPTION" height="1155px" preserveAspectRatio="none" style="width:440px;height:1155px;background:#FFFFFF;" version="1.1" viewBox="0 0 440 1155" width="440px" zoomAndPan="magnify"><?plantuml 1.2026.4?><defs/><g><!--cluster Student Feedback System--><g class="cluster" data-qualified-name="Student Feedback System" data-source-line="58" id="ent0006"><rect fill="#FFFFFF" height="1134" rx="2.5" ry="2.5" style="stroke:#2F4F4F;stroke-width:1;" width="274" x="81" y="7"/><text fill="#000000" font-family="sans-serif" font-size="14" font-weight="700" lengthAdjust="spacing" textLength="174.2754" x="130.8623" y="23.5332">Student Feedback System</text></g><!--cluster P1--><g class="cluster" data-qualified-name="Student Feedback System.P1" data-source-line="60" id="ent0007"><rect fill="#FFFFFF" height="377" rx="2.5" ry="2.5" style="stroke:#2F4F4F;stroke-width:1;" width="166" x="135" y="51"/><text fill="#000000" font-family="sans-serif" font-size="14" font-weight="700" lengthAdjust="spacing" textLength="125.9932" x="155.0034" y="67.5332">Account &amp; Student</text></g><!--cluster P2--><g class="cluster" data-qualified-name="Student Feedback System.P2" data-source-line="67" id="ent0012"><rect fill="#FFFFFF" height="357" rx="2.5" ry="2.5" style="stroke:#2F4F4F;stroke-width:1;" width="214" x="111" y="452"/><text fill="#000000" font-family="sans-serif" font-size="14" font-weight="700" lengthAdjust="spacing" textLength="98.7793" x="168.6104" y="468.5332">Administration</text></g><!--cluster P3--><g class="cluster" data-qualified-name="Student Feedback System.P3" data-source-line="74" id="ent0017"><rect fill="#FFFFFF" height="284" rx="2.5" ry="2.5" style="stroke:#2F4F4F;stroke-width:1;" width="226" x="105" y="833"/><text fill="#000000" font-family="sans-serif" font-size="14" font-weight="700" lengthAdjust="spacing" textLength="174.2412" x="130.8794" y="849.5332">Results &amp; Communication</text></g><!--entity UC_Auth--><g class="entity" data-qualified-name="Student Feedback System.P1.UC_Auth" data-source-line="61" id="ent0008"><ellipse cx="218.1873" cy="386.8451" fill="#E8F7FA" rx="66.6873" ry="24.3451" style="stroke:#2F4F4F;stroke-width:0.5;"/><text fill="#000000" font-family="sans-serif" font-size="12" lengthAdjust="spacing" textLength="90.0703" x="173.1521" y="383.3461">Authenticate and</text><text fill="#000000" font-family="sans-serif" font-size="12" lengthAdjust="spacing" textLength="90.0586" x="173.158" y="398.4398">Manage Account</text></g><!--entity UC_Onboarding--><g class="entity" data-qualified-name="Student Feedback System.P1.UC_Onboarding" data-source-line="62" id="ent0009"><ellipse cx="218.24" cy="202.8739" fill="#E8F7FA" rx="66.24" ry="22.8739" style="stroke:#2F4F4F;stroke-width:0.5;"/><text fill="#000000" font-family="sans-serif" font-size="12" lengthAdjust="spacing" textLength="96.0586" x="170.2107" y="201.539">Complete Student</text><text fill="#000000" font-family="sans-serif" font-size="12" lengthAdjust="spacing" textLength="62.7129" x="186.8836" y="216.6327">Onboarding</text></g><!--entity UC_ParticipateSurvey--><g class="entity" data-qualified-name="Student Feedback System.P1.UC_ParticipateSurvey" data-source-line="63" id="ent0010"><ellipse cx="217.9834" cy="294.1099" fill="#E8F7FA" rx="66.9834" ry="23.1099" style="stroke:#2F4F4F;stroke-width:0.5;"/><text fill="#000000" font-family="sans-serif" font-size="12" lengthAdjust="spacing" textLength="69.3691" x="183.2988" y="288.8049">Participate in</text><text fill="#000000" font-family="sans-serif" font-size="12" lengthAdjust="spacing" textLength="96.0469" x="169.9599" y="303.8986">Assigned Surveys</text></g><!--entity UC_StudentFeedback--><g class="entity" data-qualified-name="Student Feedback System.P1.UC_StudentFeedback" data-source-line="64" id="ent0011"><ellipse cx="217.9926" cy="111.0027" fill="#E8F7FA" rx="46.4926" ry="23.5027" style="stroke:#2F4F4F;stroke-width:0.5;"/><text fill="#000000" font-family="sans-serif" font-size="12" lengthAdjust="spacing" textLength="64.0371" x="185.9741" y="108.7206">Send / View</text><text fill="#000000" font-family="sans-serif" font-size="12" lengthAdjust="spacing" textLength="52.6992" x="191.643" y="123.8143">Feedback</text></g><!--entity UC_UserApproval--><g class="entity" data-qualified-name="Student Feedback System.P2.UC_UserApproval" data-source-line="68" id="ent0013"><ellipse cx="218.1385" cy="677.8827" fill="#E8F7FA" rx="73.1385" ry="23.8827" style="stroke:#2F4F4F;stroke-width:0.5;"/><text fill="#000000" font-family="sans-serif" font-size="12" lengthAdjust="spacing" textLength="101.3906" x="167.4432" y="675.045">Manage Users and</text><text fill="#000000" font-family="sans-serif" font-size="12" lengthAdjust="spacing" textLength="92.0625" x="172.1073" y="690.1388">Student Approval</text></g><!--entity UC_SurveyLifecycle--><g class="entity" data-qualified-name="Student Feedback System.P2.UC_SurveyLifecycle" data-source-line="69" id="ent0014"><ellipse cx="218.0361" cy="770.088" fill="#E8F7FA" rx="57.5361" ry="22.588" style="stroke:#2F4F4F;stroke-width:0.5;"/><text fill="#000000" font-family="sans-serif" font-size="12" lengthAdjust="spacing" textLength="84.0469" x="176.0127" y="769.197">Manage Survey</text><text fill="#000000" font-family="sans-serif" font-size="12" lengthAdjust="spacing" textLength="46.6875" x="194.6923" y="784.2908">Lifecycle</text></g><!--entity UC_QuestionTemplate--><g class="entity" data-qualified-name="Student Feedback System.P2.UC_QuestionTemplate" data-source-line="70" id="ent0015"><ellipse cx="217.7595" cy="512.124" fill="#E8F7FA" rx="90.7595" ry="24.124" style="stroke:#2F4F4F;stroke-width:0.5;"/><text fill="#000000" font-family="sans-serif" font-size="12" lengthAdjust="spacing" textLength="125.4141" x="155.0525" y="508.9393">Manage Question Bank</text><text fill="#000000" font-family="sans-serif" font-size="12" lengthAdjust="spacing" textLength="120.0586" x="157.7302" y="524.0331">and Survey Templates</text></g><!--entity UC_AuditLog--><g class="entity" data-qualified-name="Student Feedback System.P2.UC_AuditLog" data-source-line="71" id="ent0016"><ellipse cx="218.0083" cy="595.0017" fill="#E8F7FA" rx="58.0083" ry="14.0017" style="stroke:#2F4F4F;stroke-width:0.5;"/><text fill="#000000" font-family="sans-serif" font-size="12" lengthAdjust="spacing" textLength="80.0508" x="177.9829" y="599.0485">View Audit Log</text></g><!--entity UC_ResultsReport--><g class="entity" data-qualified-name="Student Feedback System.P3.UC_ResultsReport" data-source-line="75" id="ent0018"><ellipse cx="218.0056" cy="893.0646" fill="#E8F7FA" rx="97.0056" ry="24.0646" style="stroke:#2F4F4F;stroke-width:0.5;"/><text fill="#000000" font-family="sans-serif" font-size="12" lengthAdjust="spacing" textLength="127.3711" x="154.32" y="889.1642">View Results, Statistics,</text><text fill="#000000" font-family="sans-serif" font-size="12" lengthAdjust="spacing" textLength="134.7188" x="150.6462" y="904.2579">Reports and AI Summary</text></g><!--entity UC_StaffFeedback--><g class="entity" data-qualified-name="Student Feedback System.P3.UC_StaffFeedback" data-source-line="76" id="ent0019"><ellipse cx="218.241" cy="984.8688" fill="#E8F7FA" rx="69.741" ry="22.8688" style="stroke:#2F4F4F;stroke-width:0.5;"/><text fill="#000000" font-family="sans-serif" font-size="12" lengthAdjust="spacing" textLength="101.4023" x="167.5399" y="983.5417">Manage / Respond</text><text fill="#000000" font-family="sans-serif" font-size="12" lengthAdjust="spacing" textLength="66.041" x="185.2205" y="998.6355">to Feedback</text></g><!--entity UC_Notifications--><g class="entity" data-qualified-name="Student Feedback System.P3.UC_Notifications" data-source-line="77" id="ent0020"><ellipse cx="217.7848" cy="1076.7841" fill="#E8F7FA" rx="84.2848" ry="23.7841" style="stroke:#2F4F4F;stroke-width:0.5;"/><text fill="#000000" font-family="sans-serif" font-size="12" lengthAdjust="spacing" textLength="118.0605" x="158.7546" y="1074.0895">View Notifications and</text><text fill="#000000" font-family="sans-serif" font-size="12" lengthAdjust="spacing" textLength="104.707" x="165.4313" y="1089.1832">Receive Reminders</text></g><!--entity Guest--><g class="entity" data-qualified-name="Guest" data-source-line="49" id="ent0001"><ellipse cx="35.5" cy="380" fill="#FFFFFF" rx="16" ry="16" style="stroke:#2F4F4F;stroke-width:0.5;"/><path d="M35.5,400 C39.5,400 42.5,400 46.5,396 C54.5,396 62.5,404 62.5,412 L62.5,416 C62.5,420 58.5,424 54.5,424 L16.5,424 C12.5,424 8.5,420 8.5,416 L8.5,412 C8.5,404 16.5,396 24.5,396 C28.5,400 31.5,400 35.5,400" fill="#FFFFFF" style="stroke:#2F4F4F;stroke-width:0.5;"/><text fill="#000000" font-family="sans-serif" font-size="13" lengthAdjust="spacing" textLength="34.6836" x="18.1582" y="437.9951">Guest</text></g><!--entity Student--><g class="entity" data-qualified-name="Student" data-source-line="50" id="ent0002"><ellipse cx="35.5" cy="258" fill="#FFFFFF" rx="16" ry="16" style="stroke:#2F4F4F;stroke-width:0.5;"/><path d="M35.5,278 C39.5,278 42.5,278 46.5,274 C54.5,274 62.5,282 62.5,290 L62.5,294 C62.5,298 58.5,302 54.5,302 L16.5,302 C12.5,302 8.5,298 8.5,294 L8.5,290 C8.5,282 16.5,274 24.5,274 C28.5,278 31.5,278 35.5,278" fill="#FFFFFF" style="stroke:#2F4F4F;stroke-width:0.5;"/><text fill="#000000" font-family="sans-serif" font-size="13" lengthAdjust="spacing" textLength="44.8145" x="13.0928" y="315.9951">Student</text></g><!--entity Admin--><g class="entity" data-qualified-name="Admin" data-source-line="51" id="ent0003"><ellipse cx="398.5" cy="702" fill="#FFFFFF" rx="16" ry="16" style="stroke:#2F4F4F;stroke-width:0.5;"/><path d="M398.5,722 C402.5,722 405.5,722 409.5,718 C417.5,718 425.5,726 425.5,734 L425.5,738 C425.5,742 421.5,746 417.5,746 L379.5,746 C375.5,746 371.5,742 371.5,738 L371.5,734 C371.5,726 379.5,718 387.5,718 C391.5,722 394.5,722 398.5,722" fill="#FFFFFF" style="stroke:#2F4F4F;stroke-width:0.5;"/><text fill="#000000" font-family="sans-serif" font-size="13" lengthAdjust="spacing" textLength="36.8481" x="380.0759" y="759.9951">Admin</text></g><!--entity Lecturer--><g class="entity" data-qualified-name="Lecturer" data-source-line="52" id="ent0004"><ellipse cx="35.5" cy="897" fill="#FFFFFF" rx="16" ry="16" style="stroke:#2F4F4F;stroke-width:0.5;"/><path d="M35.5,917 C39.5,917 42.5,917 46.5,913 C54.5,913 62.5,921 62.5,929 L62.5,933 C62.5,937 58.5,941 54.5,941 L16.5,941 C12.5,941 8.5,937 8.5,933 L8.5,929 C8.5,921 16.5,913 24.5,913 C28.5,917 31.5,917 35.5,917" fill="#FFFFFF" style="stroke:#2F4F4F;stroke-width:0.5;"/><text fill="#000000" font-family="sans-serif" font-size="13" lengthAdjust="spacing" textLength="47.6899" x="11.655" y="954.9951">Lecturer</text></g><!--entity System--><g class="entity" data-qualified-name="System" data-source-line="53" id="ent0005"><ellipse cx="35.269" cy="1046.5" fill="#FFFFFF" rx="16" ry="16" style="stroke:#2F4F4F;stroke-width:0.5;"/><path d="M35.269,1066.5 C39.269,1066.5 42.269,1066.5 46.269,1062.5 C54.269,1062.5 62.269,1070.5 62.269,1078.5 L62.269,1082.5 C62.269,1086.5 58.269,1090.5 54.269,1090.5 L16.269,1090.5 C12.269,1090.5 8.269,1086.5 8.269,1082.5 L8.269,1078.5 C8.269,1070.5 16.269,1062.5 24.269,1062.5 C28.269,1066.5 31.269,1066.5 35.269,1066.5" fill="#FFFFFF" style="stroke:#2F4F4F;stroke-width:0.5;"/><text fill="#000000" font-family="sans-serif" font-size="13" lengthAdjust="spacing" textLength="50.5654" x="6" y="1104.4951">System /</text><text fill="#000000" font-family="sans-serif" font-size="13" lengthAdjust="spacing" textLength="58.5381" x="6" y="1120.8467">Scheduler</text></g><!--link Guest to UC_Auth--><g class="link" data-entity-1="ent0001" data-entity-2="ent0008" data-link-type="association" data-source-line="84" id="lnk21"><path d="M63.13,399.79 C86.67,397.83 121.95,394.9 152.79,392.34" fill="none" id="Guest-UC_Auth" style="stroke:#666666;stroke-width:1;"/></g><!--link Student to UC_Auth--><g class="link" data-entity-1="ent0002" data-entity-2="ent0008" data-link-type="association" data-source-line="86" id="lnk22"><path d="M60.44,318.7 C67.32,329.82 73,339 73,339 C73,339 126.13,356.71 167.85,370.62" fill="none" id="Student-UC_Auth" style="stroke:#2E7D32;stroke-width:1;"/></g><!--link Student to UC_Onboarding--><g class="link" data-entity-1="ent0002" data-entity-2="ent0009" data-link-type="association" data-source-line="87" id="lnk23"><path d="M63.03,256.74 C68.69,251.78 73,248 73,248 C73,248 126.47,231.29 168.25,218.23" fill="none" id="Student-UC_Onboarding" style="stroke:#2E7D32;stroke-width:1;"/></g><!--link Student to UC_ParticipateSurvey--><g class="link" data-entity-1="ent0002" data-entity-2="ent0010" data-link-type="association" data-source-line="88" id="lnk24"><path d="M63.13,282.07 C86.57,283.88 121.65,286.6 152.4,288.99" fill="none" id="Student-UC_ParticipateSurvey" style="stroke:#2E7D32;stroke-width:1;"/></g><!--link Student to UC_StudentFeedback--><g class="link" data-entity-1="ent0002" data-entity-2="ent0011" data-link-type="association" data-source-line="89" id="lnk25"><path d="M47.95,241.42 C58.65,205.35 73,157 73,157 C73,157 135.76,136.95 178.41,123.33" fill="none" id="Student-UC_StudentFeedback" style="stroke:#2E7D32;stroke-width:1;"/></g><!--link Student to UC_Notifications--><g class="link" data-entity-1="ent0002" data-entity-2="ent0020" data-link-type="association" data-source-line="90" id="lnk26"><path d="M54.55,318.63 C60.21,330.74 65,341 65,341 C65,341 73,1030 73,1030 C73,1030 121.13,1045.71 161.74,1058.96" fill="none" id="Student-UC_Notifications" style="stroke:#2E7D32;stroke-width:1;"/></g><!--link Lecturer to UC_Auth--><g class="link" data-entity-1="ent0004" data-entity-2="ent0008" data-link-type="association" data-source-line="92" id="lnk27"><path d="M39.64,880.24 C48.5,771.09 73,469 73,469 C73,469 138.38,431.77 181.03,407.48" fill="none" id="Lecturer-UC_Auth" style="stroke:#6A1B9A;stroke-width:1;"/></g><!--link Lecturer to UC_ResultsReport--><g class="link" data-entity-1="ent0004" data-entity-2="ent0018" data-link-type="association" data-source-line="93" id="lnk28"><path d="M63.13,915.16 C81.96,912.45 108.31,908.66 133.88,904.97" fill="none" id="Lecturer-UC_ResultsReport" style="stroke:#6A1B9A;stroke-width:1;"/></g><!--link Lecturer to UC_StaffFeedback--><g class="link" data-entity-1="ent0004" data-entity-2="ent0019" data-link-type="association" data-source-line="94" id="lnk29"><path d="M63.03,933.53 C68.69,936.64 73,939 73,939 C73,939 125.79,955.86 167.44,969.17" fill="none" id="Lecturer-UC_StaffFeedback" style="stroke:#6A1B9A;stroke-width:1;"/></g><!--link Lecturer to UC_Notifications--><g class="link" data-entity-1="ent0004" data-entity-2="ent0020" data-link-type="association" data-source-line="95" id="lnk30"><path d="M49.16,957.51 C59.71,989.57 73,1030 73,1030 C73,1030 121.13,1045.71 161.74,1058.96" fill="none" id="Lecturer-UC_Notifications" style="stroke:#6A1B9A;stroke-width:1;"/></g><!--link Admin to UC_Auth--><g class="link" data-entity-1="ent0003" data-entity-2="ent0008" data-link-type="association" data-source-line="97" id="lnk31"><path d="M392.26,685.27 C382.61,613.94 363,469 363,469 C363,469 297.62,431.77 254.97,407.48" fill="none" id="Admin-UC_Auth" style="stroke:#1565C0;stroke-width:1;"/></g><!--link UC_UserApproval to Admin--><g class="link" data-entity-1="ent0013" data-entity-2="ent0003" data-link-type="association" data-source-line="98" id="lnk32"><path d="M275.97,692.68 C307.8,700.88 345.97,710.72 370.93,717.15" fill="none" id="UC_UserApproval-Admin" style="stroke:#1565C0;stroke-width:1;"/></g><!--link UC_SurveyLifecycle to Admin--><g class="link" data-entity-1="ent0014" data-entity-2="ent0003" data-link-type="association" data-source-line="99" id="lnk33"><path d="M266.37,757.79 C299.83,749.17 343.45,737.93 370.98,730.83" fill="none" id="UC_SurveyLifecycle-Admin" style="stroke:#1565C0;stroke-width:1;"/></g><!--link UC_QuestionTemplate to Admin--><g class="link" data-entity-1="ent0015" data-entity-2="ent0003" data-link-type="association" data-source-line="100" id="lnk34"><path d="M276.74,530.44 C316.8,543.24 363,558 363,558 C363,558 379.31,636.46 389.5,685.5" fill="none" id="UC_QuestionTemplate-Admin" style="stroke:#1565C0;stroke-width:1;"/></g><!--link UC_AuditLog to Admin--><g class="link" data-entity-1="ent0016" data-entity-2="ent0003" data-link-type="association" data-source-line="101" id="lnk35"><path d="M259.11,605.03 C301.72,615.68 363,631 363,631 C363,631 373.69,659.82 383.17,685.37" fill="none" id="UC_AuditLog-Admin" style="stroke:#1565C0;stroke-width:1;"/></g><!--link UC_ResultsReport to Admin--><g class="link" data-entity-1="ent0018" data-entity-2="ent0003" data-link-type="association" data-source-line="102" id="lnk36"><path d="M257.97,871.08 C300.61,847.09 363,812 363,812 C363,812 373.1,786.24 382.37,762.6" fill="none" id="UC_ResultsReport-Admin" style="stroke:#1565C0;stroke-width:1;"/></g><!--link UC_StaffFeedback to Admin--><g class="link" data-entity-1="ent0019" data-entity-2="ent0003" data-link-type="association" data-source-line="103" id="lnk37"><path d="M268.56,969.17 C310.21,955.86 363,939 363,939 C363,939 381.31,824.89 391.25,762.93" fill="none" id="UC_StaffFeedback-Admin" style="stroke:#1565C0;stroke-width:1;"/></g><!--link UC_Notifications to Admin--><g class="link" data-entity-1="ent0020" data-entity-2="ent0003" data-link-type="association" data-source-line="104" id="lnk38"><path d="M274.26,1058.96 C314.87,1045.71 363,1030 363,1030 C363,1030 383.85,845.1 393.13,762.76" fill="none" id="UC_Notifications-Admin" style="stroke:#1565C0;stroke-width:1;"/></g><!--link System to UC_Notifications--><g class="link" data-entity-1="ent0005" data-entity-2="ent0020" data-link-type="association" data-source-line="106" id="lnk39"><path d="M65.1,1077 C83.59,1077 108.69,1077 133.16,1077" fill="none" id="System-UC_Notifications" style="stroke:#EF6C00;stroke-width:1;"/></g><?plantuml-src bLLTJzim57tFhx10sbv0q7Q5xM4FeL0q2JP6n_QmJ9D9RbkhYHtP3bKsyTztxTWXQPA9vYcvvzolutkT59QQQ44aMwqrIPY4M3F1Wq1j6C-ff1d9QRoXArZeCWLYSCfNAJG8DDP2LZ3TWX9P4rHhceWjuokofAbg8YdZeCiSI2xIqdmqC2uIK92JTzE6KLA-CSRfDDZDJlu619yBB7KbHS6JcKZH-cFDD5I8a0d8odf9vMQHKWtNafOMdGkk5-mFaD4aU6u6hzlr2VuRfZzzAs2X8AOA1kezl7e_Fv-7hqWLIYcspcbYdvr6nYRlM_BnrG-IGoEbsi-hal_WkW2b3mXLnBvvyq8N2V0ASEyU2fECSGlODs--GSKB2T8Y_gCELoeD6Jc9-29UGrAaZbVPz-xNXRim1q1bkP_xosZuBiaS87d48tM13_2KxQcu3SAUunXpQVA6D8Mv6xbnC8yVa8Emq6jai1YFdL2UHFoMSXF51R6k3xFVXjVrdeaiJm4zNQA8V-6FWie4Dz5xlbYw_dTKOcgMc-ICHpnKYgqu96HHo2SebO_Hu5L8DzG2U49Eo7S6suXxYRo_Ay-RhVVphcfcFfZIafghgP9it2UP4-X1WLILPFvamZoNueccFgsXUDjWdAgXYD-m9SHbd49Tj0Lgys20hsOLi6JSSxw9E5RaOf9lWCU3cjKwUge7kZ6DVYGi4gR9ZLYzd3uQyBjNk7jGHQeLZXkEGrPmCqkrWfC-1MqIvtQ4iuDyB2jMHn6_Xrn8RNKbuITi9CjmPtmTpgSY3GfoOcBdmfmC_dEwiq2NozOaT6lxB3HRkZxS6Tz33Em9C3IE2LwPjQOjhXDe_qlnbZ9U_MIEiHHYQw5AYPYvm7l5ixSZEVvvU6QVNyVr2WT-LX4SNvrVJiODS01hRF00exkV0yJTHHoWjJKD_0LjEmf75n_2Hj53O7jMXbZjQHXYxTHZhmh36KtFfhFJHZ4xIz_YL3-WxcBtatPNjP_b5xCVRKamK4kp_tvAUncwbC3zu12vcf_DJa_xDFi7?></g></svg>